NimbusSanL-Bold.ufo
<glyph name="exclam" format="1">
  <advance width="333"/>
  <unicode hex="0021"/>
  <outline>
    <contour>
      <point x="262" y="726" type="line"/>
      <point x="112" y="726" type="line"/>
      <point x="112" y="516" type="line"/>
      <point x="153" y="207" type="line"/>
      <point x="220" y="207" type="line"/>
      <point x="262" y="516" type="line"/>
    </contour>
    <contour>
      <point x="262" y="146" type="line"/>
      <point x="112" y="146" type="line"/>
      <point x="112" y="0" type="line"/>
      <point x="262" y="0" type="line"/>
    </contour>
  </outline>
</glyph>
<glyph name="quotedbl" format="1">
  <advance width="474"/>
  <unicode hex="0022"/>
  <outline>
    <contour>
      <point x="188" y="729" type="line"/>
      <point x="50" y="729" type="line"/>
      <point x="50" y="599" type="line"/>
      <point x="90" y="470" type="line"/>
      <point x="146" y="470" type="line"/>
      <point x="188" y="599" type="line"/>
    </contour>
    <contour>
      <point x="424" y="729" type="line"/>
      <point x="286" y="729" type="line"/>
      <point x="286" y="599" type="line"/>
      <point x="326" y="470" type="line"/>
      <point x="382" y="470" type="line"/>
      <point x="424" y="599" type="line"/>
    </contour>
  </outline>
</glyph>
<glyph name="numbersign" format="1">
  <advance width="556"/>
  <unicode hex="0023"/>
  <outline>
    <contour>
      <point x="146" y="-32" type="line"/>
      <point x="186" y="172" type="line"/>
      <point x="289" y="172" type="line"/>
      <point x="249" y="-32" type="line"/>
      <point x="354" y="-32" type="line"/>
      <point x="394" y="172" type="line"/>
      <point x="513" y="172" type="line"/>
      <point x="513" y="271" type="line"/>
      <point x="413" y="271" type="line"/>
      <point x="444" y="424" type="line"/>
      <point x="553" y="424" type="line"/>
      <point x="553" y="523" type="line"/>
      <point x="463" y="523" type="line"/>
      <point x="497" y="697" type="line"/>
      <point x="392" y="697" type="line"/>
      <point x="358" y="523" type="line"/>
      <point x="255" y="523" type="line"/>
      <point x="289" y="697" type="line"/>
      <point x="184" y="697" type="line"/>
      <point x="150" y="523" type="line"/>
      <point x="31" y="523" type="line"/>
      <point x="31" y="424" type="line"/>
      <point x="130" y="424" type="line"/>
      <point x="100" y="271" type="line"/>
      <point x="3" y="271" type="line"/>
      <point x="3" y="172" type="line"/>
      <point x="80" y="172" type="line"/>
      <point x="40" y="-32" type="line"/>
    </contour>
    <contour>
      <point x="205" y="271" type="line"/>
      <point x="235" y="424" type="line"/>
      <point x="338" y="424" type="line"/>
      <point x="308" y="271" type="line"/>
    </contour>
  </outline>
</glyph>
<glyph name="dollar" format="1">
  <advance width="556"/>
  <unicode hex="0024"/>
  <outline>
    <contour>
      <point x="517" y="498" type="line"/>
      <point x="515" y="623"/>
      <point x="437" y="702"/>
      <point x="311" y="709" type="curve"/>
      <point x="311" y="763" type="line"/>
      <point x="243" y="763" type="line"/>
      <point x="243" y="709" type="line"/>
      <point x="114" y="697"/>
      <point x="39" y="624"/>
      <point x="39" y="512" type="curve" smooth="yes"/>
      <point x="39" y="401"/>
      <point x="108" y="330"/>
      <point x="243" y="299" type="curve"/>
      <point x="243" y="86" type="line"/>
      <point x="187" y="96"/>
      <point x="156" y="137"/>
      <point x="153" y="207" type="curve"/>
      <point x="22" y="207" type="line"/>
      <point x="22" y="198" type="line" smooth="yes"/>
      <point x="22" y="125"/>
      <point x="52" y="65"/>
      <point x="108" y="25" type="curve" smooth="yes"/>
      <point x="146" y="-2"/>
      <point x="183" y="-15"/>
      <point x="243" y="-21" type="curve"/>
      <point x="243" y="-126" type="line"/>
      <point x="311" y="-126" type="line"/>
      <point x="311" y="-21" type="line"/>
      <point x="366" y="-15"/>
      <point x="408" y="-1"/>
      <point x="441" y="20" type="curve" smooth="yes"/>
      <point x="495" y="55"/>
      <point x="527" y="120"/>
      <point x="527" y="195" type="curve" smooth="yes"/>
      <point x="527" y="305"/>
      <point x="466" y="364"/>
      <point x="311" y="407" type="curve"/>
      <point x="311" y="608" type="line"/>
      <point x="362" y="601"/>
      <point x="391" y="559"/>
      <point x="389" y="498" type="curve"/>
    </contour>
    <contour>
      <point x="243" y="427" type="line"/>
      <point x="187" y="445"/>
      <point x="162" y="472"/>
      <point x="162" y="516" type="curve" smooth="yes"/>
      <point x="162" y="567"/>
      <point x="188" y="597"/>
      <point x="243" y="608" type="curve"/>
    </contour>
    <contour>
      <point x="311" y="282" type="line"/>
      <point x="367" y="265"/>
      <point x="395" y="231"/>
      <point x="395" y="183" type="curve" smooth="yes"/>
      <point x="395" y="133"/>
      <point x="367" y="100"/>
      <point x="311" y="86" type="curve"/>
    </contour>
  </outline>
</glyph>
<glyph name="percent" format="1">
  <advance width="889"/>
  <unicode hex="0025"/>
  <outline>
    <contour>
      <point x="206" y="701" type="curve" smooth="yes"/>
      <point x="105" y="701"/>
      <point x="22" y="619"/>
      <point x="22" y="519" type="curve" smooth="yes"/>
      <point x="22" y="419"/>
      <point x="105" y="337"/>
      <point x="206" y="337" type="curve" smooth="yes"/>
      <point x="306" y="337"/>
      <point x="390" y="419"/>
      <point x="390" y="517" type="curve" smooth="yes"/>
      <point x="390" y="620"/>
      <point x="309" y="701"/>
    </contour>
    <contour>
      <point x="206" y="602" type="curve" smooth="yes"/>
      <point x="253" y="602"/>
      <point x="291" y="565"/>
      <point x="291" y="518" type="curve" smooth="yes"/>
      <point x="291" y="473"/>
      <point x="252" y="435"/>
      <point x="206" y="435" type="curve" smooth="yes"/>
      <point x="159" y="435"/>
      <point x="121" y="473"/>
      <point x="121" y="519" type="curve" smooth="yes"/>
      <point x="121" y="564"/>
      <point x="159" y="602"/>
    </contour>
    <contour>
      <point x="606" y="709" type="line"/>
      <point x="210" y="-20" type="line"/>
      <point x="287" y="-20" type="line"/>
      <point x="682" y="709" type="line"/>
    </contour>
    <contour>
      <point x="679" y="352" type="curve" smooth="yes"/>
      <point x="578" y="352"/>
      <point x="495" y="270"/>
      <point x="495" y="170" type="curve" smooth="yes"/>
      <point x="495" y="69"/>
      <point x="578" y="-13"/>
      <point x="679" y="-13" type="curve" smooth="yes"/>
      <point x="779" y="-13"/>
      <point x="863" y="69"/>
      <point x="863" y="167" type="curve" smooth="yes"/>
      <point x="863" y="271"/>
      <point x="782" y="352"/>
    </contour>
    <contour>
      <point x="679" y="253" type="curve" smooth="yes"/>
      <point x="726" y="253"/>
      <point x="764" y="215"/>
      <point x="764" y="168" type="curve" smooth="yes"/>
      <point x="764" y="123"/>
      <point x="725" y="85"/>
      <point x="679" y="85" type="curve" smooth="yes"/>
      <point x="632" y="85"/>
      <point x="594" y="123"/>
      <point x="594" y="169" type="curve" smooth="yes"/>
      <point x="594" y="215"/>
      <point x="632" y="253"/>
    </contour>
  </outline>
</glyph>
<glyph name="ampersand" format="1">
  <advance width="722"/>
  <unicode hex="0026"/>
  <outline>
    <contour>
      <point x="526" y="373" type="line"/>
      <point x="526" y="363" type="line" smooth="yes"/>
      <point x="526" y="320"/>
      <point x="518" y="290"/>
      <point x="496" y="248" type="curve"/>
      <point x="380" y="392" type="line"/>
      <point x="469" y="453"/>
      <point x="497" y="496"/>
      <point x="497" y="568" type="curve" smooth="yes"/>
      <point x="497" y="661"/>
      <point x="426" y="723"/>
      <point x="319" y="723" type="curve" smooth="yes"/>
      <point x="212" y="723"/>
      <point x="130" y="650"/>
      <point x="130" y="556" type="curve" smooth="yes"/>
      <point x="130" y="519"/>
      <point x="144" y="483"/>
      <point x="172" y="450" type="curve" smooth="yes"/>
      <point x="200" y="416" type="line"/>
      <point x="202" y="414"/>
      <point x="206" y="409"/>
      <point x="212" y="401" type="curve"/>
      <point x="95" y="340"/>
      <point x="55" y="287"/>
      <point x="55" y="193" type="curve" smooth="yes"/>
      <point x="55" y="63"/>
      <point x="150" y="-23"/>
      <point x="292" y="-23" type="curve" smooth="yes"/>
      <point x="360" y="-23"/>
      <point x="406" y="-5"/>
      <point x="487" y="56" type="curve"/>
      <point x="533" y="0" type="line"/>
      <point x="694" y="0" type="line"/>
      <point x="571" y="154" type="line"/>
      <point x="611" y="200"/>
      <point x="637" y="281"/>
      <point x="639" y="357" type="curve" smooth="yes"/>
      <point x="639" y="362" type="line"/>
      <point x="639" y="373" type="line"/>
    </contour>
    <contour>
      <point x="278" y="319" type="line"/>
      <point x="414" y="148" type="line"/>
      <point x="367" y="112"/>
      <point x="325" y="93"/>
      <point x="294" y="93" type="curve" smooth="yes"/>
      <point x="240" y="93"/>
      <point x="188" y="150"/>
      <point x="188" y="210" type="curve" smooth="yes"/>
      <point x="188" y="243"/>
      <point x="204" y="272"/>
      <point x="231" y="290" type="curve" smooth="yes"/>
    </contour>
    <contour>
      <point x="317" y="470" type="curve"/>
      <point x="267" y="533"/>
      <point x="262" y="541"/>
      <point x="262" y="566" type="curve" smooth="yes"/>
      <point x="262" y="594"/>
      <point x="286" y="614"/>
      <point x="320" y="614" type="curve" smooth="yes"/>
      <point x="356" y="614"/>
      <point x="377" y="593"/>
      <point x="377" y="556" type="curve" smooth="yes"/>
      <point x="377" y="521"/>
      <point x="357" y="492"/>
    </contour>
  </outline>
</glyph>
<glyph name="quotesingle" format="1">
  <advance width="238"/>
  <unicode hex="0027"/>
  <outline>
    <contour>
      <point x="188" y="729" type="line"/>
      <point x="50" y="729" type="line"/>
      <point x="50" y="599" type="line"/>
      <point x="90" y="470" type="line"/>
      <point x="146" y="470" type="line"/>
      <point x="188" y="599" type="line"/>
    </contour>
  </outline>
</glyph>
<glyph name="parenleft" format="1">
  <advance width="333"/>
  <unicode hex="0028"/>
  <outline>
    <contour>
      <point x="203" y="729" type="line"/>
      <point x="88" y="556"/>
      <point x="40" y="418"/>
      <point x="40" y="265" type="curve" smooth="yes"/>
      <point x="40" y="111"/>
      <point x="88" y="-27"/>
      <point x="203" y="-200" type="curve"/>
      <point x="303" y="-200" type="line"/>
      <point x="197" y="6"/>
      <point x="163" y="118"/>
      <point x="163" y="265" type="curve" smooth="yes"/>
      <point x="163" y="411"/>
      <point x="197" y="525"/>
      <point x="303" y="729" type="curve"/>
    </contour>
  </outline>
</glyph>
<glyph name="parenright" format="1">
  <advance width="333"/>
  <unicode hex="0029"/>
  <outline>
    <contour>
      <point x="122" y="-200" type="line"/>
      <point x="237" y="-27"/>
      <point x="285" y="111"/>
      <point x="285" y="264" type="curve" smooth="yes"/>
      <point x="285" y="418"/>
      <point x="237" y="556"/>
      <point x="122" y="729" type="curve"/>
      <point x="22" y="729" type="line"/>
      <point x="128" y="523"/>
      <point x="162" y="411"/>
      <point x="162" y="264" type="curve" smooth="yes"/>
      <point x="162" y="118"/>
      <point x="128" y="4"/>
      <point x="22" y="-200" type="curve"/>
    </contour>
  </outline>
</glyph>
<glyph name="asterisk" format="1">
  <advance width="389"/>
  <unicode hex="002A"/>
  <outline>
    <contour>
      <point x="132" y="544" type="line"/>
      <point x="65" y="450" type="line"/>
      <point x="123" y="407" type="line"/>
      <point x="190" y="501" type="line"/>
      <point x="257" y="407" type="line"/>
      <point x="315" y="450" type="line"/>
      <point x="248" y="544" type="line"/>
      <point x="357" y="579" type="line"/>
      <point x="335" y="649" type="line"/>
      <point x="226" y="613" type="line"/>
      <point x="226" y="729" type="line"/>
      <point x="154" y="729" type="line"/>
      <point x="154" y="613" type="line"/>
      <point x="45" y="649" type="line"/>
      <point x="23" y="580" type="line"/>
    </contour>
  </outline>
</glyph>
<glyph name="plus" format="1">
  <advance width="584"/>
  <unicode hex="002B"/>
  <outline>
    <contour>
      <point x="533" y="291" type="line"/>
      <point x="351" y="291" type="line"/>
      <point x="351" y="473" type="line"/>
      <point x="232" y="473" type="line"/>
      <point x="232" y="291" type="line"/>
      <point x="50" y="291" type="line"/>
      <point x="50" y="172" type="line"/>
      <point x="232" y="172" type="line"/>
      <point x="232" y="-10" type="line"/>
      <point x="351" y="-10" type="line"/>
      <point x="351" y="172" type="line"/>
      <point x="533" y="172" type="line"/>
    </contour>
  </outline>
</glyph>
<glyph name="comma" format="1">
  <advance width="278"/>
  <unicode hex="002C"/>
  <outline>
    <contour>
      <point x="64" y="146" type="line"/>
      <point x="64" y="0" type="line"/>
      <point x="150" y="0" type="line"/>
      <point x="150" y="-3" type="line" smooth="yes"/>
      <point x="150" y="-71"/>
      <point x="123" y="-106"/>
      <point x="64" y="-118" type="curve"/>
      <point x="64" y="-174" type="line"/>
      <point x="105" y="-169"/>
      <point x="133" y="-158"/>
      <point x="160" y="-137" type="curve" smooth="yes"/>
      <point x="200" y="-106"/>
      <point x="214" y="-69"/>
      <point x="214" y="9" type="curve" smooth="yes"/>
      <point x="214" y="146" type="line"/>
    </contour>
  </outline>
</glyph>
<glyph name="hyphen" format="1">
  <advance width="333"/>
  <unicode hex="002D"/>
  <outline>
    <contour>
      <point x="298" y="342" type="line"/>
      <point x="26" y="342" type="line"/>
      <point x="26" y="207" type="line"/>
      <point x="298" y="207" type="line"/>
    </contour>
  </outline>
</glyph>
<glyph name="slash" format="1">
  <advance width="278"/>
  <unicode hex="002F"/>
  <outline>
    <contour>
      <point x="208" y="714" type="line"/>
      <point x="2" y="-14" type="line"/>
      <point x="69" y="-14" type="line"/>
      <point x="275" y="714" type="line"/>
    </contour>
  </outline>
</glyph>
<glyph name="zero" format="1">
  <advance width="556"/>
  <unicode hex="0030"/>
  <outline>
    <contour>
      <point x="273" y="724" type="curve" smooth="yes"/>
      <point x="197" y="724"/>
      <point x="132" y="692"/>
      <point x="89" y="633" type="curve" smooth="yes"/>
      <point x="48" y="578"/>
      <point x="29" y="487"/>
      <point x="29" y="350" type="curve" smooth="yes"/>
      <point x="29" y="225"/>
      <point x="46" y="136"/>
      <point x="79" y="82" type="curve" smooth="yes"/>
      <point x="121" y="15"/>
      <point x="190" y="-23"/>
      <point x="273" y="-23" type="curve" smooth="yes"/>
      <point x="350" y="-23"/>
      <point x="413" y="8"/>
      <point x="457" y="68" type="curve" smooth="yes"/>
      <point x="497" y="122"/>
      <point x="517" y="214"/>
      <point x="517" y="346" type="curve" smooth="yes"/>
      <point x="517" y="476"/>
      <point x="501" y="564"/>
      <point x="467" y="619" type="curve" smooth="yes"/>
      <point x="425" y="687"/>
      <point x="356" y="724"/>
    </contour>
    <contour>
      <point x="273" y="611" type="curve" smooth="yes"/>
      <point x="309" y="611"/>
      <point x="338" y="591"/>
      <point x="355" y="554" type="curve" smooth="yes"/>
      <point x="369" y="524"/>
      <point x="377" y="446"/>
      <point x="377" y="349" type="curve" smooth="yes"/>
      <point x="377" y="270"/>
      <point x="369" y="190"/>
      <point x="359" y="162" type="curve" smooth="yes"/>
      <point x="343" y="120"/>
      <point x="313" y="97"/>
      <point x="273" y="97" type="curve" smooth="yes"/>
      <point x="236" y="97"/>
      <point x="208" y="116"/>
      <point x="191" y="152" type="curve" smooth="yes"/>
      <point x="177" y="182"/>
      <point x="169" y="257"/>
      <point x="169" y="351" type="curve" smooth="yes"/>
      <point x="169" y="434"/>
      <point x="177" y="515"/>
      <point x="187" y="544" type="curve" smooth="yes"/>
      <point x="203" y="587"/>
      <point x="233" y="611"/>
    </contour>
  </outline>
</glyph>
<glyph name="one" format="1">
  <advance width="556"/>
  <unicode hex="0031"/>
  <outline>
    <contour>
      <point x="238" y="489" type="line"/>
      <point x="238" y="0" type="line"/>
      <point x="378" y="0" type="line"/>
      <point x="378" y="709" type="line"/>
      <point x="285" y="709" type="line"/>
      <point x="263" y="625"/>
      <point x="190" y="582"/>
      <point x="68" y="582" type="curve"/>
      <point x="68" y="489" type="line"/>
    </contour>
  </outline>
</glyph>
<glyph name="two" format="1">
  <advance width="556"/>
  <unicode hex="0032"/>
  <outline>
    <contour>
      <point x="512" y="125" type="line"/>
      <point x="212" y="125" type="line"/>
      <point x="230" y="163"/>
      <point x="252" y="183"/>
      <point x="356" y="259" type="curve" smooth="yes"/>
      <point x="479" y="349"/>
      <point x="515" y="403"/>
      <point x="515" y="499" type="curve" smooth="yes"/>
      <point x="515" y="636"/>
      <point x="421" y="724"/>
      <point x="272" y="724" type="curve" smooth="yes"/>
      <point x="125" y="724"/>
      <point x="39" y="637"/>
      <point x="39" y="487" type="curve" smooth="yes"/>
      <point x="39" y="481"/>
      <point x="39" y="473"/>
      <point x="40" y="462" type="curve"/>
      <point x="174" y="462" type="line"/>
      <point x="174" y="485" type="line" smooth="yes"/>
      <point x="174" y="564"/>
      <point x="211" y="610"/>
      <point x="275" y="610" type="curve" smooth="yes"/>
      <point x="337" y="610"/>
      <point x="375" y="567"/>
      <point x="375" y="496" type="curve" smooth="yes"/>
      <point x="375" y="418"/>
      <point x="350" y="387"/>
      <point x="194" y="276" type="curve" smooth="yes"/>
      <point x="74" y="194"/>
      <point x="37" y="131"/>
      <point x="30" y="0" type="curve"/>
      <point x="512" y="0" type="line"/>
    </contour>
  </outline>
</glyph>
<glyph name="three" format="1">
  <advance width="556"/>
  <unicode hex="0033"/>
  <outline>
    <contour>
      <point x="217" y="317" type="line"/>
      <point x="266" y="317"/>
      <point x="275" y="316"/>
      <point x="299" y="310" type="curve" smooth="yes"/>
      <point x="346" y="297"/>
      <point x="376" y="256"/>
      <point x="376" y="204" type="curve" smooth="yes"/>
      <point x="376" y="142"/>
      <point x="332" y="97"/>
      <point x="271" y="97" type="curve" smooth="yes"/>
      <point x="205" y="97"/>
      <point x="169" y="135"/>
      <point x="165" y="208" type="curve"/>
      <point x="29" y="208" type="line"/>
      <point x="30" y="66"/>
      <point x="123" y="-23"/>
      <point x="268" y="-23" type="curve" smooth="yes"/>
      <point x="419" y="-23"/>
      <point x="516" y="66"/>
      <point x="516" y="204" type="curve" smooth="yes"/>
      <point x="516" y="287"/>
      <point x="480" y="341"/>
      <point x="400" y="380" type="curve"/>
      <point x="466" y="421"/>
      <point x="493" y="466"/>
      <point x="493" y="531" type="curve" smooth="yes"/>
      <point x="493" y="649"/>
      <point x="405" y="724"/>
      <point x="268" y="724" type="curve" smooth="yes"/>
      <point x="187" y="724"/>
      <point x="119" y="696"/>
      <point x="79" y="644" type="curve" smooth="yes"/>
      <point x="51" y="609"/>
      <point x="38" y="561"/>
      <point x="38" y="498" type="curve" smooth="yes"/>
      <point x="38" y="486" type="line"/>
      <point x="168" y="486" type="line"/>
      <point x="169" y="524"/>
      <point x="172" y="543"/>
      <point x="179" y="561" type="curve" smooth="yes"/>
      <point x="192" y="592"/>
      <point x="224" y="611"/>
      <point x="265" y="611" type="curve" smooth="yes"/>
      <point x="321" y="611"/>
      <point x="353" y="577"/>
      <point x="353" y="518" type="curve" smooth="yes"/>
      <point x="353" y="447"/>
      <point x="312" y="411"/>
      <point x="229" y="411" type="curve" smooth="yes"/>
      <point x="217" y="411" type="line"/>
    </contour>
  </outline>
</glyph>
<glyph name="four" format="1">
  <advance width="556"/>
  <unicode hex="0034"/>
  <outline>
    <contour>
      <point x="522" y="273" type="line"/>
      <point x="448" y="273" type="line"/>
      <point x="448" y="709" type="line"/>
      <point x="283" y="709" type="line"/>
      <point x="24" y="275" type="line"/>
      <point x="24" y="157" type="line"/>
      <point x="308" y="157" type="line"/>
      <point x="308" y="0" type="line"/>
      <point x="448" y="0" type="line"/>
      <point x="448" y="157" type="line"/>
      <point x="522" y="157" type="line"/>
    </contour>
    <contour>
      <point x="308" y="273" type="line"/>
      <point x="123" y="273" type="line"/>
      <point x="308" y="576" type="line"/>
    </contour>
  </outline>
</glyph>
<glyph name="five" format="1">
  <advance width="556"/>
  <unicode hex="0035"/>
  <outline>
    <contour>
      <point x="489" y="709" type="line"/>
      <point x="110" y="709" type="line"/>
      <point x="47" y="314" type="line"/>
      <point x="173" y="314" type="line"/>
      <point x="188" y="349"/>
      <point x="220" y="368"/>
      <point x="263" y="368" type="curve" smooth="yes"/>
      <point x="334" y="368"/>
      <point x="377" y="317"/>
      <point x="377" y="231" type="curve" smooth="yes"/>
      <point x="377" y="148"/>
      <point x="333" y="97"/>
      <point x="263" y="97" type="curve" smooth="yes"/>
      <point x="202" y="97"/>
      <point x="168" y="128"/>
      <point x="165" y="185" type="curve"/>
      <point x="27" y="185" type="line"/>
      <point x="29" y="61"/>
      <point x="123" y="-23"/>
      <point x="261" y="-23" type="curve" smooth="yes"/>
      <point x="413" y="-23"/>
      <point x="517" y="81"/>
      <point x="517" y="234" type="curve" smooth="yes"/>
      <point x="517" y="379"/>
      <point x="427" y="479"/>
      <point x="296" y="479" type="curve" smooth="yes"/>
      <point x="249" y="479"/>
      <point x="214" y="467"/>
      <point x="173" y="436" type="curve"/>
      <point x="196" y="584" type="line"/>
      <point x="489" y="584" type="line"/>
    </contour>
  </outline>
</glyph>
<glyph name="six" format="1">
  <advance width="556"/>
  <unicode hex="0036"/>
  <outline>
    <contour>
      <point x="507" y="548" type="line"/>
      <point x="500" y="594"/>
      <point x="491" y="617"/>
      <point x="473" y="643" type="curve" smooth="yes"/>
      <point x="436" y="694"/>
      <point x="371" y="724"/>
      <point x="294" y="724" type="curve" smooth="yes"/>
      <point x="206" y="724"/>
      <point x="134" y="685"/>
      <point x="91" y="614" type="curve" smooth="yes"/>
      <point x="49" y="545"/>
      <point x="32" y="466"/>
      <point x="32" y="337" type="curve" smooth="yes"/>
      <point x="32" y="215"/>
      <point x="47" y="139"/>
      <point x="83" y="82" type="curve" smooth="yes"/>
      <point x="124" y="16"/>
      <point x="198" y="-23"/>
      <point x="282" y="-23" type="curve" smooth="yes"/>
      <point x="423" y="-23"/>
      <point x="519" y="83"/>
      <point x="519" y="237" type="curve" smooth="yes"/>
      <point x="519" y="373"/>
      <point x="435" y="467"/>
      <point x="313" y="467" type="curve" smooth="yes"/>
      <point x="255" y="467"/>
      <point x="216" y="450"/>
      <point x="172" y="404" type="curve"/>
      <point x="175" y="479"/>
      <point x="175" y="479"/>
      <point x="181" y="509" type="curve" smooth="yes"/>
      <point x="194" y="573"/>
      <point x="234" y="611"/>
      <point x="290" y="611" type="curve" smooth="yes"/>
      <point x="335" y="611"/>
      <point x="359" y="593"/>
      <point x="377" y="548" type="curve"/>
    </contour>
    <contour>
      <point x="279" y="357" type="curve" smooth="yes"/>
      <point x="344" y="357"/>
      <point x="386" y="306"/>
      <point x="386" y="228" type="curve" smooth="yes"/>
      <point x="386" y="152"/>
      <point x="340" y="97"/>
      <point x="278" y="97" type="curve" smooth="yes"/>
      <point x="214" y="97"/>
      <point x="170" y="150"/>
      <point x="170" y="225" type="curve" smooth="yes"/>
      <point x="170" y="303"/>
      <point x="214" y="357"/>
    </contour>
  </outline>
</glyph>
<glyph name="seven" format="1">
  <advance width="556"/>
  <unicode hex="0037"/>
  <outline>
    <contour>
      <point x="528" y="709" type="line"/>
      <point x="29" y="709" type="line"/>
      <point x="29" y="584" type="line"/>
      <point x="382" y="584" type="line"/>
      <point x="339" y="538"/>
      <point x="254" y="409"/>
      <point x="226" y="347" type="curve" smooth="yes"/>
      <point x="177" y="244"/>
      <point x="152" y="151"/>
      <point x="133" y="0" type="curve"/>
      <point x="274" y="0" type="line"/>
      <point x="287" y="224"/>
      <point x="360" y="396"/>
      <point x="528" y="599" type="curve"/>
    </contour>
  </outline>
</glyph>
<glyph name="eight" format="1">
  <advance width="556"/>
  <unicode hex="0038"/>
  <outline>
    <contour>
      <point x="409" y="386" type="curve"/>
      <point x="433" y="399"/>
      <point x="444" y="406"/>
      <point x="455" y="416" type="curve" smooth="yes"/>
      <point x="484" y="443"/>
      <point x="501" y="486"/>
      <point x="501" y="532" type="curve" smooth="yes"/>
      <point x="501" y="643"/>
      <point x="405" y="724"/>
      <point x="274" y="724" type="curve" smooth="yes"/>
      <point x="142" y="724"/>
      <point x="46" y="643"/>
      <point x="46" y="531" type="curve" smooth="yes"/>
      <point x="46" y="463"/>
      <point x="74" y="420"/>
      <point x="138" y="386" type="curve"/>
      <point x="56" y="342"/>
      <point x="22" y="288"/>
      <point x="22" y="204" type="curve" smooth="yes"/>
      <point x="22" y="70"/>
      <point x="125" y="-23"/>
      <point x="274" y="-23" type="curve" smooth="yes"/>
      <point x="422" y="-23"/>
      <point x="525" y="70"/>
      <point x="525" y="204" type="curve" smooth="yes"/>
      <point x="525" y="288"/>
      <point x="491" y="342"/>
    </contour>
    <contour>
      <point x="275" y="611" type="curve" smooth="yes"/>
      <point x="337" y="611"/>
      <point x="380" y="573"/>
      <point x="380" y="518" type="curve" smooth="yes"/>
      <point x="380" y="464"/>
      <point x="336" y="425"/>
      <point x="275" y="425" type="curve" smooth="yes"/>
      <point x="213" y="425"/>
      <point x="169" y="464"/>
      <point x="169" y="519" type="curve" smooth="yes"/>
      <point x="169" y="573"/>
      <point x="212" y="611"/>
    </contour>
    <contour>
      <point x="273" y="330" type="curve" smooth="yes"/>
      <point x="342" y="330"/>
      <point x="385" y="284"/>
      <point x="385" y="210" type="curve" smooth="yes"/>
      <point x="385" y="142"/>
      <point x="341" y="97"/>
      <point x="273" y="97" type="curve" smooth="yes"/>
      <point x="205" y="97"/>
      <point x="162" y="142"/>
      <point x="162" y="212" type="curve" smooth="yes"/>
      <point x="162" y="284"/>
      <point x="206" y="330"/>
    </contour>
  </outline>
</glyph>
<glyph name="nine" format="1">
  <advance width="556"/>
  <unicode hex="0039"/>
  <outline>
    <contour>
      <point x="38" y="165" type="line"/>
      <point x="41" y="56"/>
      <point x="133" y="-24"/>
      <point x="255" y="-24" type="curve" smooth="yes"/>
      <point x="346" y="-24"/>
      <point x="415" y="14"/>
      <point x="457" y="86" type="curve" smooth="yes"/>
      <point x="494" y="149"/>
      <point x="516" y="256"/>
      <point x="516" y="370" type="curve" smooth="yes"/>
      <point x="516" y="473"/>
      <point x="499" y="555"/>
      <point x="467" y="608" type="curve" smooth="yes"/>
      <point x="422" y="684"/>
      <point x="352" y="724"/>
      <point x="267" y="724" type="curve" smooth="yes"/>
      <point x="125" y="724"/>
      <point x="28" y="622"/>
      <point x="28" y="474" type="curve" smooth="yes"/>
      <point x="28" y="328"/>
      <point x="114" y="228"/>
      <point x="240" y="228" type="curve" smooth="yes"/>
      <point x="276" y="228"/>
      <point x="310" y="238"/>
      <point x="332" y="254" type="curve" smooth="yes"/>
      <point x="345" y="263"/>
      <point x="353" y="272"/>
      <point x="376" y="298" type="curve"/>
      <point x="376" y="163"/>
      <point x="338" y="96"/>
      <point x="259" y="96" type="curve" smooth="yes"/>
      <point x="210" y="96"/>
      <point x="176" y="123"/>
      <point x="173" y="165" type="curve"/>
    </contour>
    <contour>
      <point x="263" y="610" type="curve" smooth="yes"/>
      <point x="331" y="610"/>
      <point x="373" y="557"/>
      <point x="373" y="474" type="curve" smooth="yes"/>
      <point x="373" y="396"/>
      <point x="329" y="344"/>
      <point x="265" y="344" type="curve" smooth="yes"/>
      <point x="201" y="344"/>
      <point x="161" y="395"/>
      <point x="161" y="476" type="curve" smooth="yes"/>
      <point x="161" y="558"/>
      <point x="201" y="610"/>
    </contour>
  </outline>
</glyph>
<glyph name="colon" format="1">
  <advance width="333"/>
  <unicode hex="003A"/>
  <outline>
    <contour>
      <point x="263" y="146" type="line"/>
      <point x="113" y="146" type="line"/>
      <point x="113" y="0" type="line"/>
      <point x="263" y="0" type="line"/>
    </contour>
    <contour>
      <point x="263" y="520" type="line"/>
      <point x="113" y="520" type="line"/>
      <point x="113" y="374" type="line"/>
      <point x="263" y="374" type="line"/>
    </contour>
  </outline>
</glyph>
<glyph name="semicolon" format="1">
  <advance width="333"/>
  <unicode hex="003B"/>
  <outline>
    <contour>
      <point x="113" y="146" type="line"/>
      <point x="113" y="0" type="line"/>
      <point x="199" y="0" type="line"/>
      <point x="199" y="-3" type="line" smooth="yes"/>
      <point x="199" y="-71"/>
      <point x="172" y="-106"/>
      <point x="113" y="-118" type="curve"/>
      <point x="113" y="-174" type="line"/>
      <point x="154" y="-169"/>
      <point x="182" y="-158"/>
      <point x="209" y="-137" type="curve" smooth="yes"/>
      <point x="249" y="-106"/>
      <point x="263" y="-69"/>
      <point x="263" y="9" type="curve" smooth="yes"/>
      <point x="263" y="146" type="line"/>
    </contour>
    <contour>
      <point x="263" y="520" type="line"/>
      <point x="113" y="520" type="line"/>
      <point x="113" y="374" type="line"/>
      <point x="263" y="374" type="line"/>
    </contour>
  </outline>
</glyph>
<glyph name="less" format="1">
  <advance width="584"/>
  <unicode hex="003C"/>
  <outline>
    <contour>
      <point x="529" y="474" type="line"/>
      <point x="40" y="293" type="line"/>
      <point x="40" y="172" type="line"/>
      <point x="529" y="-10" type="line"/>
      <point x="529" y="101" type="line"/>
      <point x="147" y="232" type="line"/>
      <point x="529" y="365" type="line"/>
    </contour>
  </outline>
</glyph>
<glyph name="equal" format="1">
  <advance width="584"/>
  <unicode hex="003D"/>
  <outline>
    <contour>
      <point x="534" y="411" type="line"/>
      <point x="50" y="411" type="line"/>
      <point x="50" y="292" type="line"/>
      <point x="534" y="292" type="line"/>
    </contour>
    <contour>
      <point x="534" y="171" type="line"/>
      <point x="50" y="171" type="line"/>
      <point x="50" y="52" type="line"/>
      <point x="534" y="52" type="line"/>
    </contour>
  </outline>
</glyph>
<glyph name="greater" format="1">
  <advance width="584"/>
  <unicode hex="003E"/>
  <outline>
    <contour>
      <point x="40" y="-10" type="line"/>
      <point x="529" y="171" type="line"/>
      <point x="529" y="292" type="line"/>
      <point x="40" y="474" type="line"/>
      <point x="40" y="363" type="line"/>
      <point x="422" y="232" type="line"/>
      <point x="40" y="99" type="line"/>
    </contour>
  </outline>
</glyph>
<glyph name="question" format="1">
  <advance width="611"/>
  <unicode hex="003F"/>
  <outline>
    <contour>
      <point x="369" y="201" type="line"/>
      <point x="369" y="267"/>
      <point x="376" y="278"/>
      <point x="436" y="320" type="curve" smooth="yes"/>
      <point x="529" y="386"/>
      <point x="556" y="430"/>
      <point x="556" y="514" type="curve" smooth="yes"/>
      <point x="556" y="650"/>
      <point x="454" y="744"/>
      <point x="307" y="744" type="curve" smooth="yes"/>
      <point x="221" y="744"/>
      <point x="154" y="714"/>
      <point x="111" y="655" type="curve" smooth="yes"/>
      <point x="78" y="611"/>
      <point x="65" y="563"/>
      <point x="64" y="481" type="curve"/>
      <point x="200" y="481" type="line"/>
      <point x="200" y="483" type="line" smooth="yes"/>
      <point x="196" y="564"/>
      <point x="244" y="626"/>
      <point x="310" y="626" type="curve" smooth="yes"/>
      <point x="370" y="626"/>
      <point x="415" y="576"/>
      <point x="415" y="511" type="curve" smooth="yes"/>
      <point x="415" y="466"/>
      <point x="403" y="447"/>
      <point x="344" y="399" type="curve" smooth="yes"/>
      <point x="265" y="331"/>
      <point x="242" y="286"/>
      <point x="245" y="201" type="curve"/>
    </contour>
    <contour>
      <point x="385" y="146" type="line"/>
      <point x="235" y="146" type="line"/>
      <point x="235" y="0" type="line"/>
      <point x="385" y="0" type="line"/>
    </contour>
  </outline>
</glyph>
<glyph name="at" format="1">
  <advance width="975"/>
  <unicode hex="0040"/>
  <outline>
    <contour>
      <point x="644" y="508" type="line"/>
      <point x="628" y="446" type="line"/>
      <point x="604" y="496"/>
      <point x="570" y="518"/>
      <point x="514" y="518" type="curve" smooth="yes"/>
      <point x="446" y="518"/>
      <point x="377" y="483"/>
      <point x="332" y="427" type="curve" smooth="yes"/>
      <point x="286" y="370"/>
      <point x="258" y="294"/>
      <point x="258" y="227" type="curve" smooth="yes"/>
      <point x="258" y="132"/>
      <point x="331" y="56"/>
      <point x="422" y="56" type="curve" smooth="yes"/>
      <point x="477" y="56"/>
      <point x="533" y="84"/>
      <point x="572" y="131" type="curve"/>
      <point x="580" y="106"/>
      <point x="588" y="96"/>
      <point x="608" y="82" type="curve" smooth="yes"/>
      <point x="633" y="65"/>
      <point x="664" y="56"/>
      <point x="697" y="56" type="curve" smooth="yes"/>
      <point x="757" y="56"/>
      <point x="817" y="86"/>
      <point x="865" y="140" type="curve" smooth="yes"/>
      <point x="920" y="203"/>
      <point x="947" y="272"/>
      <point x="947" y="355" type="curve" smooth="yes"/>
      <point x="947" y="462"/>
      <point x="912" y="546"/>
      <point x="836" y="620" type="curve" smooth="yes"/>
      <point x="751" y="702"/>
      <point x="642" y="745"/>
      <point x="516" y="745" type="curve" smooth="yes"/>
      <point x="380" y="745"/>
      <point x="262" y="696"/>
      <point x="170" y="601" type="curve" smooth="yes"/>
      <point x="82" y="510"/>
      <point x="27" y="380"/>
      <point x="27" y="264" type="curve" smooth="yes"/>
      <point x="27" y="145"/>
      <point x="82" y="32"/>
      <point x="178" y="-43" type="curve" smooth="yes"/>
      <point x="261" y="-108"/>
      <point x="357" y="-138"/>
      <point x="484" y="-138" type="curve" smooth="yes"/>
      <point x="578" y="-138"/>
      <point x="651" y="-124"/>
      <point x="721" y="-92" type="curve"/>
      <point x="693" y="-19" type="line"/>
      <point x="635" y="-45"/>
      <point x="558" y="-60"/>
      <point x="486" y="-60" type="curve" smooth="yes"/>
      <point x="395" y="-60"/>
      <point x="309" y="-31"/>
      <point x="242" y="21" type="curve" smooth="yes"/>
      <point x="164" y="82"/>
      <point x="124" y="166"/>
      <point x="124" y="266" type="curve" smooth="yes"/>
      <point x="124" y="366"/>
      <point x="162" y="467"/>
      <point x="227" y="542" type="curve" smooth="yes"/>
      <point x="299" y="625"/>
      <point x="395" y="668"/>
      <point x="511" y="668" type="curve" smooth="yes"/>
      <point x="609" y="668"/>
      <point x="690" y="638"/>
      <point x="760" y="576" type="curve" smooth="yes"/>
      <point x="826" y="517"/>
      <point x="858" y="449"/>
      <point x="858" y="370" type="curve" smooth="yes"/>
      <point x="858" y="312"/>
      <point x="840" y="255"/>
      <point x="807" y="209" type="curve" smooth="yes"/>
      <point x="774" y="165"/>
      <point x="732" y="137"/>
      <point x="697" y="137" type="curve" smooth="yes"/>
      <point x="667" y="137"/>
      <point x="648" y="156"/>
      <point x="648" y="186" type="curve" smooth="yes"/>
      <point x="648" y="198"/>
      <point x="648" y="198"/>
      <point x="656" y="228" type="curve" smooth="yes"/>
      <point x="734" y="508" type="line"/>
    </contour>
    <contour>
      <point x="511" y="447" type="curve" smooth="yes"/>
      <point x="563" y="447"/>
      <point x="595" y="408"/>
      <point x="595" y="345" type="curve" smooth="yes"/>
      <point x="595" y="294"/>
      <point x="569" y="227"/>
      <point x="532" y="184" type="curve" smooth="yes"/>
      <point x="508" y="156"/>
      <point x="473" y="137"/>
      <point x="444" y="137" type="curve" smooth="yes"/>
      <point x="394" y="137"/>
      <point x="355" y="184"/>
      <point x="355" y="244" type="curve" smooth="yes"/>
      <point x="355" y="346"/>
      <point x="433" y="447"/>
    </contour>
  </outline>
</glyph>
<glyph name="B" format="1">
  <advance width="722"/>
  <unicode hex="0042"/>
  <outline>
    <contour>
      <point x="82" y="0" type="line"/>
      <point x="410" y="0" type="line" smooth="yes"/>
      <point x="494" y="0"/>
      <point x="550" y="16"/>
      <point x="594" y="53" type="curve" smooth="yes"/>
      <point x="638" y="90"/>
      <point x="666" y="152"/>
      <point x="666" y="210" type="curve" smooth="yes"/>
      <point x="666" y="282"/>
      <point x="627" y="339"/>
      <point x="545" y="387" type="curve"/>
      <point x="617" y="433"/>
      <point x="645" y="475"/>
      <point x="645" y="537" type="curve" smooth="yes"/>
      <point x="645" y="587"/>
      <point x="620" y="640"/>
      <point x="579" y="676" type="curve" smooth="yes"/>
      <point x="536" y="713"/>
      <point x="485" y="729"/>
      <point x="407" y="729" type="curve" smooth="yes"/>
      <point x="82" y="729" type="line"/>
    </contour>
    <contour>
      <point x="232" y="604" type="line"/>
      <point x="395" y="604" type="line" smooth="yes"/>
      <point x="464" y="604"/>
      <point x="501" y="575"/>
      <point x="501" y="521" type="curve" smooth="yes"/>
      <point x="501" y="468"/>
      <point x="464" y="439"/>
      <point x="395" y="439" type="curve" smooth="yes"/>
      <point x="232" y="439" type="line"/>
    </contour>
    <contour>
      <point x="232" y="314" type="line"/>
      <point x="411" y="314" type="line" smooth="yes"/>
      <point x="484" y="314"/>
      <point x="522" y="281"/>
      <point x="522" y="219" type="curve" smooth="yes"/>
      <point x="522" y="158"/>
      <point x="484" y="125"/>
      <point x="411" y="125" type="curve" smooth="yes"/>
      <point x="232" y="125" type="line"/>
    </contour>
  </outline>
</glyph>
<glyph name="D" format="1">
  <advance width="722"/>
  <unicode hex="0044"/>
  <outline>
    <contour>
      <point x="77" y="0" type="line"/>
      <point x="362" y="0" type="line" smooth="yes"/>
      <point x="473" y="0"/>
      <point x="543" y="26"/>
      <point x="592" y="85" type="curve" smooth="yes"/>
      <point x="650" y="153"/>
      <point x="681" y="252"/>
      <point x="681" y="365" type="curve" smooth="yes"/>
      <point x="681" y="477"/>
      <point x="650" y="576"/>
      <point x="592" y="645" type="curve" smooth="yes"/>
      <point x="543" y="704"/>
      <point x="474" y="729"/>
      <point x="362" y="729" type="curve" smooth="yes"/>
      <point x="77" y="729" type="line"/>
    </contour>
    <contour>
      <point x="227" y="125" type="line"/>
      <point x="227" y="604" type="line"/>
      <point x="362" y="604" type="line" smooth="yes"/>
      <point x="475" y="604"/>
      <point x="531" y="525"/>
      <point x="531" y="364" type="curve" smooth="yes"/>
      <point x="531" y="204"/>
      <point x="475" y="125"/>
      <point x="362" y="125" type="curve" smooth="yes"/>
    </contour>
  </outline>
</glyph>
<glyph name="E" format="1">
  <advance width="667"/>
  <unicode hex="0045"/>
  <outline>
    <contour>
      <point x="229" y="314" type="line"/>
      <point x="578" y="314" type="line"/>
      <point x="578" y="439" type="line"/>
      <point x="229" y="439" type="line"/>
      <point x="229" y="604" type="line"/>
      <point x="606" y="604" type="line"/>
      <point x="606" y="729" type="line"/>
      <point x="79" y="729" type="line"/>
      <point x="79" y="0" type="line"/>
      <point x="624" y="0" type="line"/>
      <point x="624" y="125" type="line"/>
      <point x="229" y="125" type="line"/>
    </contour>
  </outline>
</glyph>
<glyph name="F" format="1">
  <advance width="611"/>
  <unicode hex="0046"/>
  <outline>
    <contour>
      <point x="224" y="314" type="line"/>
      <point x="543" y="314" type="line"/>
      <point x="543" y="439" type="line"/>
      <point x="224" y="439" type="line"/>
      <point x="224" y="604" type="line"/>
      <point x="586" y="604" type="line"/>
      <point x="586" y="729" type="line"/>
      <point x="74" y="729" type="line"/>
      <point x="74" y="0" type="line"/>
      <point x="224" y="0" type="line"/>
    </contour>
  </outline>
</glyph>
<glyph name="G" format="1">
  <advance width="778"/>
  <unicode hex="0047"/>
  <outline>
    <contour>
      <point x="711" y="392" type="line"/>
      <point x="419" y="392" type="line"/>
      <point x="419" y="267" type="line"/>
      <point x="585" y="267" type="line"/>
      <point x="581" y="226"/>
      <point x="571" y="201"/>
      <point x="549" y="175" type="curve" smooth="yes"/>
      <point x="513" y="131"/>
      <point x="458" y="105"/>
      <point x="400" y="105" type="curve" smooth="yes"/>
      <point x="279" y="105"/>
      <point x="192" y="211"/>
      <point x="192" y="361" type="curve" smooth="yes"/>
      <point x="192" y="518"/>
      <point x="269" y="613"/>
      <point x="396" y="613" type="curve" smooth="yes"/>
      <point x="448" y="613"/>
      <point x="492" y="598"/>
      <point x="525" y="569" type="curve" smooth="yes"/>
      <point x="546" y="551"/>
      <point x="557" y="534"/>
      <point x="570" y="496" type="curve"/>
      <point x="711" y="496" type="line"/>
      <point x="693" y="646"/>
      <point x="571" y="741"/>
      <point x="395" y="741" type="curve" smooth="yes"/>
      <point x="185" y="741"/>
      <point x="42" y="586"/>
      <point x="42" y="359" type="curve" smooth="yes"/>
      <point x="42" y="138"/>
      <point x="186" y="-23"/>
      <point x="383" y="-23" type="curve" smooth="yes"/>
      <point x="481" y="-23"/>
      <point x="547" y="12"/>
      <point x="603" y="94" type="curve"/>
      <point x="621" y="-2" type="line"/>
      <point x="711" y="-2" type="line"/>
    </contour>
  </outline>
</glyph>
<glyph name="H" format="1">
  <advance width="722"/>
  <unicode hex="0048"/>
  <outline>
    <contour>
      <point x="507" y="331" type="line"/>
      <point x="507" y="0" type="line"/>
      <point x="657" y="0" type="line"/>
      <point x="657" y="729" type="line"/>
      <point x="506" y="729" type="line"/>
      <point x="506" y="456" type="line"/>
      <point x="218" y="456" type="line"/>
      <point x="218" y="729" type="line"/>
      <point x="68" y="729" type="line"/>
      <point x="68" y="0" type="line"/>
      <point x="218" y="0" type="line"/>
      <point x="218" y="331" type="line"/>
    </contour>
  </outline>
</glyph>
<glyph name="J" format="1">
  <advance width="556"/>
  <unicode hex="004A"/>
  <outline>
    <contour>
      <point x="336" y="729" type="line"/>
      <point x="336" y="190" type="line" smooth="yes"/>
      <point x="336" y="135"/>
      <point x="307" y="105"/>
      <point x="255" y="105" type="curve" smooth="yes"/>
      <point x="198" y="105"/>
      <point x="174" y="133"/>
      <point x="174" y="200" type="curve" smooth="yes"/>
      <point x="174" y="270" type="line"/>
      <point x="24" y="270" type="line"/>
      <point x="24" y="198" type="line" smooth="yes"/>
      <point x="24" y="122"/>
      <point x="42" y="75"/>
      <point x="85" y="35" type="curve" smooth="yes"/>
      <point x="127" y="-3"/>
      <point x="183" y="-23"/>
      <point x="252" y="-23" type="curve" smooth="yes"/>
      <point x="401" y="-23"/>
      <point x="486" y="54"/>
      <point x="486" y="190" type="curve" smooth="yes"/>
      <point x="486" y="729" type="line"/>
    </contour>
  </outline>
</glyph>
<glyph name="K" format="1">
  <advance width="722"/>
  <unicode hex="004B"/>
  <outline>
    <contour>
      <point x="224" y="244" type="line"/>
      <point x="299" y="322" type="line"/>
      <point x="538" y="0" type="line"/>
      <point x="717" y="0" type="line"/>
      <point x="395" y="415" type="line"/>
      <point x="686" y="729" type="line"/>
      <point x="509" y="729" type="line"/>
      <point x="224" y="409" type="line"/>
      <point x="224" y="729" type="line"/>
      <point x="74" y="729" type="line"/>
      <point x="74" y="0" type="line"/>
      <point x="224" y="0" type="line"/>
    </contour>
  </outline>
</glyph>
<glyph name="L" format="1">
  <advance width="611"/>
  <unicode hex="004C"/>
  <outline>
    <contour>
      <point x="230" y="729" type="line"/>
      <point x="80" y="729" type="line"/>
      <point x="80" y="0" type="line"/>
      <point x="579" y="0" type="line"/>
      <point x="579" y="125" type="line"/>
      <point x="230" y="125" type="line"/>
    </contour>
  </outline>
</glyph>
<glyph name="M" format="1">
  <advance width="833"/>
  <unicode hex="004D"/>
  <outline>
    <contour>
      <point x="216" y="568" type="line"/>
      <point x="347" y="0" type="line"/>
      <point x="497" y="0" type="line"/>
      <point x="626" y="568" type="line"/>
      <point x="626" y="0" type="line"/>
      <point x="776" y="0" type="line"/>
      <point x="776" y="729" type="line"/>
      <point x="550" y="729" type="line"/>
      <point x="422" y="149" type="line"/>
      <point x="290" y="729" type="line"/>
      <point x="66" y="729" type="line"/>
      <point x="66" y="0" type="line"/>
      <point x="216" y="0" type="line"/>
    </contour>
  </outline>
</glyph>
<glyph name="N" format="1">
  <advance width="722"/>
  <unicode hex="004E"/>
  <outline>
    <contour>
      <point x="511" y="0" type="line"/>
      <point x="661" y="0" type="line"/>
      <point x="661" y="729" type="line"/>
      <point x="511" y="729" type="line"/>
      <point x="511" y="233" type="line"/>
      <point x="222" y="729" type="line"/>
      <point x="68" y="729" type="line"/>
      <point x="68" y="0" type="line"/>
      <point x="218" y="0" type="line"/>
      <point x="218" y="504" type="line"/>
    </contour>
  </outline>
</glyph>
<glyph name="P" format="1">
  <advance width="667"/>
  <unicode hex="0050"/>
  <outline>
    <contour>
      <point x="226" y="260" type="line"/>
      <point x="413" y="260" type="line" smooth="yes"/>
      <point x="547" y="260"/>
      <point x="633" y="355"/>
      <point x="633" y="503" type="curve" smooth="yes"/>
      <point x="633" y="649"/>
      <point x="550" y="729"/>
      <point x="398" y="729" type="curve" smooth="yes"/>
      <point x="76" y="729" type="line"/>
      <point x="76" y="0" type="line"/>
      <point x="226" y="0" type="line"/>
    </contour>
    <contour>
      <point x="226" y="385" type="line"/>
      <point x="226" y="604" type="line"/>
      <point x="366" y="604" type="line" smooth="yes"/>
      <point x="446" y="604"/>
      <point x="483" y="569"/>
      <point x="483" y="494" type="curve" smooth="yes"/>
      <point x="483" y="420"/>
      <point x="446" y="385"/>
      <point x="366" y="385" type="curve" smooth="yes"/>
    </contour>
  </outline>
</glyph>
<glyph name="Q" format="1">
  <advance width="778"/>
  <unicode hex="0051"/>
  <outline>
    <contour>
      <point x="665" y="103" type="line"/>
      <point x="714" y="163"/>
      <point x="745" y="263"/>
      <point x="745" y="361" type="curve" smooth="yes"/>
      <point x="745" y="468"/>
      <point x="707" y="571"/>
      <point x="643" y="640" type="curve" smooth="yes"/>
      <point x="580" y="708"/>
      <point x="498" y="741"/>
      <point x="394" y="741" type="curve" smooth="yes"/>
      <point x="290" y="741"/>
      <point x="208" y="708"/>
      <point x="145" y="640" type="curve" smooth="yes"/>
      <point x="81" y="571"/>
      <point x="43" y="468"/>
      <point x="43" y="359" type="curve" smooth="yes"/>
      <point x="43" y="250"/>
      <point x="81" y="147"/>
      <point x="145" y="78" type="curve" smooth="yes"/>
      <point x="208" y="10"/>
      <point x="291" y="-23"/>
      <point x="394" y="-23" type="curve" smooth="yes"/>
      <point x="469" y="-23"/>
      <point x="525" y="-8"/>
      <point x="583" y="27" type="curve"/>
      <point x="669" y="-54" type="line"/>
      <point x="745" y="27" type="line"/>
    </contour>
    <contour>
      <point x="480" y="278" type="line"/>
      <point x="404" y="197" type="line"/>
      <point x="481" y="124" type="line"/>
      <point x="458" y="112"/>
      <point x="425" y="105"/>
      <point x="393" y="105" type="curve" smooth="yes"/>
      <point x="273" y="105"/>
      <point x="193" y="206"/>
      <point x="193" y="359" type="curve" smooth="yes"/>
      <point x="193" y="512"/>
      <point x="273" y="613"/>
      <point x="394" y="613" type="curve" smooth="yes"/>
      <point x="516" y="613"/>
      <point x="595" y="513"/>
      <point x="595" y="358" type="curve" smooth="yes"/>
      <point x="595" y="298"/>
      <point x="584" y="244"/>
      <point x="562" y="200" type="curve"/>
    </contour>
  </outline>
</glyph>
<glyph name="S" format="1">
  <advance width="667"/>
  <unicode hex="0053"/>
  <outline>
    <contour>
      <point x="607" y="507" type="line"/>
      <point x="607" y="574"/>
      <point x="592" y="618"/>
      <point x="556" y="658" type="curve" smooth="yes"/>
      <point x="507" y="712"/>
      <point x="426" y="741"/>
      <point x="321" y="741" type="curve" smooth="yes"/>
      <point x="146" y="741"/>
      <point x="45" y="659"/>
      <point x="45" y="517" type="curve" smooth="yes"/>
      <point x="45" y="404"/>
      <point x="102" y="349"/>
      <point x="250" y="321" type="curve" smooth="yes"/>
      <point x="352" y="301" type="line" smooth="yes"/>
      <point x="452" y="282"/>
      <point x="489" y="254"/>
      <point x="489" y="195" type="curve" smooth="yes"/>
      <point x="489" y="134"/>
      <point x="433" y="97"/>
      <point x="342" y="97" type="curve" smooth="yes"/>
      <point x="240" y="97"/>
      <point x="183" y="140"/>
      <point x="178" y="218" type="curve"/>
      <point x="32" y="218" type="line"/>
      <point x="41" y="62"/>
      <point x="148" y="-23"/>
      <point x="334" y="-23" type="curve" smooth="yes"/>
      <point x="522" y="-23"/>
      <point x="633" y="65"/>
      <point x="633" y="213" type="curve" smooth="yes"/>
      <point x="633" y="328"/>
      <point x="575" y="388"/>
      <point x="440" y="414" type="curve" smooth="yes"/>
      <point x="326" y="436" type="line" smooth="yes"/>
      <point x="219" y="457"/>
      <point x="188" y="478"/>
      <point x="188" y="531" type="curve" smooth="yes"/>
      <point x="188" y="586"/>
      <point x="237" y="621"/>
      <point x="314" y="621" type="curve" smooth="yes"/>
      <point x="409" y="621"/>
      <point x="462" y="581"/>
      <point x="467" y="507" type="curve"/>
    </contour>
  </outline>
</glyph>
<glyph name="U" format="1">
  <advance width="722"/>
  <unicode hex="0055"/>
  <outline>
    <contour>
      <point x="504" y="729" type="line"/>
      <point x="504" y="235" type="line" smooth="yes"/>
      <point x="504" y="147"/>
      <point x="459" y="105"/>
      <point x="365" y="105" type="curve" smooth="yes"/>
      <point x="271" y="105"/>
      <point x="226" y="147"/>
      <point x="226" y="235" type="curve" smooth="yes"/>
      <point x="226" y="729" type="line"/>
      <point x="76" y="729" type="line"/>
      <point x="76" y="235" type="line" smooth="yes"/>
      <point x="76" y="153"/>
      <point x="98" y="95"/>
      <point x="147" y="51" type="curve" smooth="yes"/>
      <point x="200" y="3"/>
      <point x="277" y="-23"/>
      <point x="365" y="-23" type="curve" smooth="yes"/>
      <point x="453" y="-23"/>
      <point x="530" y="3"/>
      <point x="583" y="51" type="curve" smooth="yes"/>
      <point x="632" y="95"/>
      <point x="654" y="153"/>
      <point x="654" y="235" type="curve" smooth="yes"/>
      <point x="654" y="729" type="line"/>
    </contour>
  </outline>
</glyph>
<glyph name="V" format="1">
  <advance width="667"/>
  <unicode hex="0056"/>
  <outline>
    <contour>
      <point x="397" y="0" type="line"/>
      <point x="647" y="729" type="line"/>
      <point x="496" y="729" type="line"/>
      <point x="337" y="180" type="line"/>
      <point x="175" y="729" type="line"/>
      <point x="24" y="729" type="line"/>
      <point x="270" y="0" type="line"/>
    </contour>
  </outline>
</glyph>
<glyph name="W" format="1">
  <advance width="944"/>
  <unicode hex="0057"/>
  <outline>
    <contour>
      <point x="730" y="0" type="line"/>
      <point x="932" y="729" type="line"/>
      <point x="773" y="729" type="line"/>
      <point x="664" y="182" type="line"/>
      <point x="546" y="729" type="line"/>
      <point x="398" y="729" type="line"/>
      <point x="285" y="183" type="line"/>
      <point x="172" y="729" type="line"/>
      <point x="13" y="729" type="line"/>
      <point x="219" y="0" type="line"/>
      <point x="354" y="0" type="line"/>
      <point x="473" y="569" type="line"/>
      <point x="595" y="0" type="line"/>
    </contour>
  </outline>
</glyph>
<glyph name="X" format="1">
  <advance width="667"/>
  <unicode hex="0058"/>
  <outline>
    <contour>
      <point x="419" y="372" type="line"/>
      <point x="644" y="729" type="line"/>
      <point x="470" y="729" type="line"/>
      <point x="336" y="489" type="line"/>
      <point x="208" y="729" type="line"/>
      <point x="30" y="729" type="line"/>
      <point x="252" y="367" type="line"/>
      <point x="22" y="0" type="line"/>
      <point x="196" y="0" type="line"/>
      <point x="335" y="253" type="line"/>
      <point x="475" y="0" type="line"/>
      <point x="653" y="0" type="line"/>
    </contour>
  </outline>
</glyph>
<glyph name="Y" format="1">
  <advance width="667"/>
  <unicode hex="0059"/>
  <outline>
    <contour>
      <point x="419" y="270" type="line"/>
      <point x="650" y="729" type="line"/>
      <point x="482" y="729" type="line"/>
      <point x="343" y="407" type="line"/>
      <point x="194" y="729" type="line"/>
      <point x="27" y="729" type="line"/>
      <point x="269" y="270" type="line"/>
      <point x="269" y="0" type="line"/>
      <point x="419" y="0" type="line"/>
    </contour>
  </outline>
</glyph>
<glyph name="Z" format="1">
  <advance width="611"/>
  <unicode hex="005A"/>
  <outline>
    <contour>
      <point x="578" y="729" type="line"/>
      <point x="30" y="729" type="line"/>
      <point x="30" y="604" type="line"/>
      <point x="403" y="604" type="line"/>
      <point x="30" y="125" type="line"/>
      <point x="30" y="0" type="line"/>
      <point x="578" y="0" type="line"/>
      <point x="578" y="125" type="line"/>
      <point x="206" y="125" type="line"/>
      <point x="578" y="604" type="line"/>
    </contour>
  </outline>
</glyph>
<glyph name="bracketleft" format="1">
  <advance width="333"/>
  <unicode hex="005B"/>
  <outline>
    <contour>
      <point x="308" y="729" type="line"/>
      <point x="66" y="729" type="line"/>
      <point x="66" y="-200" type="line"/>
      <point x="308" y="-200" type="line"/>
      <point x="308" y="-98" type="line"/>
      <point x="196" y="-98" type="line"/>
      <point x="196" y="627" type="line"/>
      <point x="308" y="627" type="line"/>
    </contour>
  </outline>
</glyph>
<glyph name="backslash" format="1">
  <advance width="278"/>
  <unicode hex="005C"/>
  <outline>
    <contour>
      <point x="55" y="714" type="line"/>
      <point x="-12" y="714" type="line"/>
      <point x="222" y="-14" type="line"/>
      <point x="289" y="-14" type="line"/>
    </contour>
  </outline>
</glyph>
<glyph name="bracketright" format="1">
  <advance width="333"/>
  <unicode hex="005D"/>
  <outline>
    <contour>
      <point x="18" y="-200" type="line"/>
      <point x="260" y="-200" type="line"/>
      <point x="260" y="729" type="line"/>
      <point x="18" y="729" type="line"/>
      <point x="18" y="627" type="line"/>
      <point x="130" y="627" type="line"/>
      <point x="130" y="-98" type="line"/>
      <point x="18" y="-98" type="line"/>
    </contour>
  </outline>
</glyph>
<glyph name="asciicircum" format="1">
  <advance width="584"/>
  <unicode hex="005E"/>
  <outline>
    <contour>
      <point x="522" y="270" type="line"/>
      <point x="351" y="695" type="line"/>
      <point x="226" y="695" type="line"/>
      <point x="61" y="270" type="line"/>
      <point x="173" y="270" type="line"/>
      <point x="288" y="570" type="line"/>
      <point x="409" y="270" type="line"/>
    </contour>
  </outline>
</glyph>
<glyph name="underscore" format="1">
  <advance width="556"/>
  <unicode hex="005F"/>
  <outline>
    <contour>
      <point x="578" y="-120" type="line"/>
      <point x="-22" y="-120" type="line"/>
      <point x="-22" y="-189" type="line"/>
      <point x="578" y="-189" type="line"/>
    </contour>
  </outline>
</glyph>
<glyph name="grave" format="1">
  <advance width="333"/>
  <unicode hex="0060"/>
  <outline>
    <contour>
      <point x="17" y="757" type="line"/>
      <point x="143" y="607" type="line"/>
      <point x="213" y="607" type="line"/>
      <point x="143" y="757" type="line"/>
    </contour>
  </outline>
</glyph>
<glyph name="b" format="1">
  <advance width="611"/>
  <unicode hex="0062"/>
  <outline>
    <contour>
      <point x="59" y="729" type="line"/>
      <point x="59" y="0" type="line"/>
      <point x="199" y="0" type="line"/>
      <point x="199" y="55" type="line"/>
      <point x="233" y="2"/>
      <point x="280" y="-23"/>
      <point x="348" y="-23" type="curve" smooth="yes"/>
      <point x="477" y="-23"/>
      <point x="575" y="100"/>
      <point x="575" y="263" type="curve" smooth="yes"/>
      <point x="575" y="336"/>
      <point x="553" y="410"/>
      <point x="517" y="462" type="curve" smooth="yes"/>
      <point x="480" y="515"/>
      <point x="414" y="549"/>
      <point x="348" y="549" type="curve" smooth="yes"/>
      <point x="281" y="549"/>
      <point x="233" y="524"/>
      <point x="199" y="470" type="curve"/>
      <point x="199" y="729" type="line"/>
    </contour>
    <contour>
      <point x="317" y="432" type="curve" smooth="yes"/>
      <point x="386" y="432"/>
      <point x="435" y="362"/>
      <point x="435" y="262" type="curve" smooth="yes"/>
      <point x="435" y="164"/>
      <point x="386" y="94"/>
      <point x="317" y="94" type="curve" smooth="yes"/>
      <point x="246" y="94"/>
      <point x="199" y="162"/>
      <point x="199" y="265" type="curve" smooth="yes"/>
      <point x="199" y="363"/>
      <point x="247" y="432"/>
    </contour>
  </outline>
</glyph>
<glyph name="d" format="1">
  <advance width="611"/>
  <unicode hex="0064"/>
  <outline>
    <contour>
      <point x="405" y="0" type="line"/>
      <point x="545" y="0" type="line"/>
      <point x="545" y="729" type="line"/>
      <point x="405" y="729" type="line"/>
      <point x="405" y="470" type="line"/>
      <point x="370" y="524"/>
      <point x="323" y="549"/>
      <point x="256" y="549" type="curve" smooth="yes"/>
      <point x="127" y="549"/>
      <point x="29" y="425"/>
      <point x="29" y="262" type="curve" smooth="yes"/>
      <point x="29" y="189"/>
      <point x="51" y="115"/>
      <point x="87" y="63" type="curve" smooth="yes"/>
      <point x="124" y="11"/>
      <point x="190" y="-23"/>
      <point x="256" y="-23" type="curve" smooth="yes"/>
      <point x="323" y="-23"/>
      <point x="370" y="2"/>
      <point x="405" y="55" type="curve"/>
    </contour>
    <contour>
      <point x="287" y="432" type="curve" smooth="yes"/>
      <point x="358" y="432"/>
      <point x="405" y="363"/>
      <point x="405" y="260" type="curve" smooth="yes"/>
      <point x="405" y="162"/>
      <point x="357" y="94"/>
      <point x="287" y="94" type="curve" smooth="yes"/>
      <point x="217" y="94"/>
      <point x="169" y="163"/>
      <point x="169" y="262" type="curve" smooth="yes"/>
      <point x="169" y="362"/>
      <point x="217" y="432"/>
    </contour>
  </outline>
</glyph>
<glyph name="h" format="1">
  <advance width="611"/>
  <unicode hex="0068"/>
  <outline>
    <contour>
      <point x="67" y="729" type="line"/>
      <point x="67" y="0" type="line"/>
      <point x="207" y="0" type="line"/>
      <point x="207" y="324" type="line" smooth="yes"/>
      <point x="207" y="386"/>
      <point x="252" y="430"/>
      <point x="315" y="430" type="curve" smooth="yes"/>
      <point x="345" y="430"/>
      <point x="369" y="419"/>
      <point x="385" y="397" type="curve" smooth="yes"/>
      <point x="397" y="379"/>
      <point x="401" y="365"/>
      <point x="401" y="330" type="curve" smooth="yes"/>
      <point x="401" y="0" type="line"/>
      <point x="541" y="0" type="line"/>
      <point x="541" y="362" type="line" smooth="yes"/>
      <point x="541" y="429"/>
      <point x="523" y="477"/>
      <point x="486" y="508" type="curve" smooth="yes"/>
      <point x="455" y="534"/>
      <point x="410" y="549"/>
      <point x="365" y="549" type="curve" smooth="yes"/>
      <point x="296" y="549"/>
      <point x="246" y="521"/>
      <point x="207" y="462" type="curve"/>
      <point x="207" y="729" type="line"/>
    </contour>
  </outline>
</glyph>
<glyph name="i" format="1">
  <advance width="278"/>
  <unicode hex="0069"/>
  <outline>
    <contour>
      <point x="207" y="540" type="line"/>
      <point x="67" y="540" type="line"/>
      <point x="67" y="0" type="line"/>
      <point x="207" y="0" type="line"/>
    </contour>
    <contour>
      <point x="207" y="729" type="line"/>
      <point x="67" y="729" type="line"/>
      <point x="67" y="604" type="line"/>
      <point x="207" y="604" type="line"/>
    </contour>
  </outline>
</glyph>
<glyph name="j" format="1">
  <advance width="278"/>
  <unicode hex="006A"/>
  <outline>
    <contour>
      <point x="210" y="540" type="line"/>
      <point x="70" y="540" type="line"/>
      <point x="70" y="-63" type="line" smooth="yes"/>
      <point x="70" y="-94"/>
      <point x="59" y="-105"/>
      <point x="29" y="-105" type="curve" smooth="yes"/>
      <point x="20" y="-105"/>
      <point x="14" y="-104"/>
      <point x="4" y="-101" type="curve"/>
      <point x="4" y="-213" type="line"/>
      <point x="32" y="-216"/>
      <point x="67" y="-218"/>
      <point x="87" y="-218" type="curve" smooth="yes"/>
      <point x="174" y="-218"/>
      <point x="210" y="-182"/>
      <point x="210" y="-94" type="curve" smooth="yes"/>
    </contour>
    <contour>
      <point x="210" y="729" type="line"/>
      <point x="70" y="729" type="line"/>
      <point x="70" y="604" type="line"/>
      <point x="210" y="604" type="line"/>
    </contour>
  </outline>
</glyph>
<glyph name="k" format="1">
  <advance width="556"/>
  <unicode hex="006B"/>
  <outline>
    <contour>
      <point x="199" y="330" type="line"/>
      <point x="199" y="729" type="line"/>
      <point x="59" y="729" type="line"/>
      <point x="59" y="0" type="line"/>
      <point x="199" y="0" type="line"/>
      <point x="199" y="177" type="line"/>
      <point x="255" y="238" type="line"/>
      <point x="384" y="0" type="line"/>
      <point x="548" y="0" type="line"/>
      <point x="351" y="336" type="line"/>
      <point x="535" y="540" type="line"/>
      <point x="376" y="540" type="line"/>
    </contour>
  </outline>
</glyph>
<glyph name="m" format="1">
  <advance width="889"/>
  <unicode hex="006D"/>
  <outline>
    <contour>
      <point x="60" y="540" type="line"/>
      <point x="60" y="0" type="line"/>
      <point x="200" y="0" type="line"/>
      <point x="200" y="324" type="line" smooth="yes"/>
      <point x="200" y="390"/>
      <point x="236" y="430"/>
      <point x="296" y="430" type="curve" smooth="yes"/>
      <point x="343" y="430"/>
      <point x="372" y="403"/>
      <point x="372" y="360" type="curve" smooth="yes"/>
      <point x="372" y="0" type="line"/>
      <point x="512" y="0" type="line"/>
      <point x="512" y="324" type="line" smooth="yes"/>
      <point x="512" y="390"/>
      <point x="548" y="430"/>
      <point x="608" y="430" type="curve" smooth="yes"/>
      <point x="655" y="430"/>
      <point x="684" y="403"/>
      <point x="684" y="360" type="curve" smooth="yes"/>
      <point x="684" y="0" type="line"/>
      <point x="824" y="0" type="line"/>
      <point x="824" y="382" type="line" smooth="yes"/>
      <point x="824" y="487"/>
      <point x="760" y="549"/>
      <point x="652" y="549" type="curve" smooth="yes"/>
      <point x="584" y="549"/>
      <point x="536" y="525"/>
      <point x="494" y="469" type="curve"/>
      <point x="468" y="520"/>
      <point x="414" y="549"/>
      <point x="347" y="549" type="curve" smooth="yes"/>
      <point x="285" y="549"/>
      <point x="245" y="528"/>
      <point x="199" y="473" type="curve"/>
      <point x="199" y="540" type="line"/>
    </contour>
  </outline>
</glyph>
<glyph name="p" format="1">
  <advance width="611"/>
  <unicode hex="0070"/>
  <outline>
    <contour>
      <point x="198" y="540" type="line"/>
      <point x="58" y="540" type="line"/>
      <point x="58" y="-218" type="line"/>
      <point x="198" y="-218" type="line"/>
      <point x="198" y="64" type="line"/>
      <point x="232" y="4"/>
      <point x="280" y="-24"/>
      <point x="348" y="-24" type="curve" smooth="yes"/>
      <point x="478" y="-24"/>
      <point x="574" y="98"/>
      <point x="574" y="262" type="curve" smooth="yes"/>
      <point x="574" y="338"/>
      <point x="552" y="414"/>
      <point x="516" y="464" type="curve" smooth="yes"/>
      <point x="480" y="515"/>
      <point x="413" y="549"/>
      <point x="348" y="549" type="curve" smooth="yes"/>
      <point x="280" y="549"/>
      <point x="232" y="520"/>
      <point x="198" y="460" type="curve"/>
    </contour>
    <contour>
      <point x="316" y="432" type="curve" smooth="yes"/>
      <point x="387" y="432"/>
      <point x="434" y="363"/>
      <point x="434" y="260" type="curve" smooth="yes"/>
      <point x="434" y="162"/>
      <point x="385" y="93"/>
      <point x="316" y="93" type="curve" smooth="yes"/>
      <point x="246" y="93"/>
      <point x="198" y="161"/>
      <point x="198" y="262" type="curve" smooth="yes"/>
      <point x="198" y="363"/>
      <point x="246" y="432"/>
    </contour>
  </outline>
</glyph>
<glyph name="q" format="1">
  <advance width="611"/>
  <unicode hex="0071"/>
  <outline>
    <contour>
      <point x="404" y="540" type="line"/>
      <point x="404" y="460" type="line"/>
      <point x="371" y="519"/>
      <point x="321" y="549"/>
      <point x="254" y="549" type="curve" smooth="yes"/>
      <point x="124" y="549"/>
      <point x="28" y="427"/>
      <point x="28" y="262" type="curve" smooth="yes"/>
      <point x="28" y="186"/>
      <point x="50" y="110"/>
      <point x="86" y="61" type="curve" smooth="yes"/>
      <point x="122" y="10"/>
      <point x="189" y="-24"/>
      <point x="253" y="-24" type="curve" smooth="yes"/>
      <point x="321" y="-24"/>
      <point x="371" y="5"/>
      <point x="404" y="64" type="curve"/>
      <point x="404" y="-218" type="line"/>
      <point x="544" y="-218" type="line"/>
      <point x="544" y="540" type="line"/>
    </contour>
    <contour>
      <point x="286" y="432" type="curve" smooth="yes"/>
      <point x="357" y="432"/>
      <point x="404" y="364"/>
      <point x="404" y="259" type="curve" smooth="yes"/>
      <point x="404" y="161"/>
      <point x="356" y="93"/>
      <point x="286" y="93" type="curve" smooth="yes"/>
      <point x="216" y="93"/>
      <point x="168" y="161"/>
      <point x="168" y="262" type="curve" smooth="yes"/>
      <point x="168" y="363"/>
      <point x="216" y="432"/>
    </contour>
  </outline>
</glyph>
<glyph name="r" format="1">
  <advance width="389"/>
  <unicode hex="0072"/>
  <outline>
    <contour>
      <point x="63" y="540" type="line"/>
      <point x="63" y="0" type="line"/>
      <point x="203" y="0" type="line"/>
      <point x="203" y="287" type="line" smooth="yes"/>
      <point x="203" y="369"/>
      <point x="244" y="410"/>
      <point x="326" y="410" type="curve" smooth="yes"/>
      <point x="341" y="410"/>
      <point x="351" y="409"/>
      <point x="370" y="406" type="curve"/>
      <point x="370" y="548" type="line"/>
      <point x="362" y="549"/>
      <point x="357" y="549"/>
      <point x="353" y="549" type="curve" smooth="yes"/>
      <point x="289" y="549"/>
      <point x="233" y="507"/>
      <point x="203" y="434" type="curve"/>
      <point x="203" y="540" type="line"/>
    </contour>
  </outline>
</glyph>
<glyph name="t" format="1">
  <advance width="333"/>
  <unicode hex="0074"/>
  <outline>
    <contour>
      <point x="301" y="529" type="line"/>
      <point x="223" y="529" type="line"/>
      <point x="223" y="674" type="line"/>
      <point x="83" y="674" type="line"/>
      <point x="83" y="529" type="line"/>
      <point x="14" y="529" type="line"/>
      <point x="14" y="436" type="line"/>
      <point x="83" y="436" type="line"/>
      <point x="83" y="104" type="line" smooth="yes"/>
      <point x="83" y="19"/>
      <point x="128" y="-23"/>
      <point x="220" y="-23" type="curve" smooth="yes"/>
      <point x="251" y="-23"/>
      <point x="276" y="-20"/>
      <point x="301" y="-12" type="curve"/>
      <point x="301" y="86" type="line"/>
      <point x="287" y="84"/>
      <point x="279" y="83"/>
      <point x="269" y="83" type="curve" smooth="yes"/>
      <point x="232" y="83"/>
      <point x="223" y="94"/>
      <point x="223" y="142" type="curve" smooth="yes"/>
      <point x="223" y="436" type="line"/>
      <point x="301" y="436" type="line"/>
    </contour>
  </outline>
</glyph>
<glyph name="w" format="1">
  <advance width="778"/>
  <unicode hex="0077"/>
  <outline>
    <contour>
      <point x="613" y="0" type="line"/>
      <point x="766" y="540" type="line"/>
      <point x="621" y="540" type="line"/>
      <point x="539" y="162" type="line"/>
      <point x="458" y="540" type="line"/>
      <point x="318" y="540" type="line"/>
      <point x="236" y="162" type="line"/>
      <point x="150" y="540" type="line"/>
      <point x="5" y="540" type="line"/>
      <point x="157" y="0" type="line"/>
      <point x="301" y="0" type="line"/>
      <point x="387" y="381" type="line"/>
      <point x="468" y="0" type="line"/>
    </contour>
  </outline>
</glyph>
<glyph name="x" format="1">
  <advance width="556"/>
  <unicode hex="0078"/>
  <outline>
    <contour>
      <point x="355" y="272" type="line"/>
      <point x="531" y="540" type="line"/>
      <point x="363" y="540" type="line"/>
      <point x="276" y="377" type="line"/>
      <point x="188" y="540" type="line"/>
      <point x="20" y="540" type="line"/>
      <point x="196" y="272" type="line"/>
      <point x="16" y="0" type="line"/>
      <point x="184" y="0" type="line"/>
      <point x="276" y="168" type="line"/>
      <point x="367" y="0" type="line"/>
      <point x="535" y="0" type="line"/>
    </contour>
  </outline>
</glyph>
<glyph name="z" format="1">
  <advance width="500"/>
  <unicode hex="007A"/>
  <outline>
    <contour>
      <point x="459" y="540" type="line"/>
      <point x="39" y="540" type="line"/>
      <point x="39" y="427" type="line"/>
      <point x="288" y="427" type="line"/>
      <point x="21" y="113" type="line"/>
      <point x="21" y="0" type="line"/>
      <point x="468" y="0" type="line"/>
      <point x="468" y="113" type="line"/>
      <point x="194" y="113" type="line"/>
      <point x="459" y="427" type="line"/>
    </contour>
  </outline>
</glyph>
<glyph name="braceleft" format="1">
  <advance width="389"/>
  <unicode hex="007B"/>
  <outline>
    <contour>
      <point x="317" y="729" type="line"/>
      <point x="241" y="729" type="line" smooth="yes"/>
      <point x="169" y="729"/>
      <point x="118" y="671"/>
      <point x="118" y="589" type="curve" smooth="yes"/>
      <point x="118" y="378" type="line" smooth="yes"/>
      <point x="118" y="335"/>
      <point x="98" y="316"/>
      <point x="53" y="315" type="curve" smooth="yes"/>
      <point x="41" y="315" type="line"/>
      <point x="37" y="315" type="line"/>
      <point x="37" y="223" type="line"/>
      <point x="41" y="222" type="line"/>
      <point x="69" y="222"/>
      <point x="76" y="221"/>
      <point x="87" y="217" type="curve"/>
      <point x="110" y="206"/>
      <point x="118" y="190"/>
      <point x="118" y="150" type="curve" smooth="yes"/>
      <point x="118" y="-60" type="line" smooth="yes"/>
      <point x="118" y="-142"/>
      <point x="169" y="-200"/>
      <point x="241" y="-200" type="curve" smooth="yes"/>
      <point x="317" y="-200" type="line"/>
      <point x="317" y="-101" type="line"/>
      <point x="280" y="-101" type="line" smooth="yes"/>
      <point x="246" y="-101"/>
      <point x="235" y="-85"/>
      <point x="235" y="-36" type="curve" smooth="yes"/>
      <point x="235" y="159" type="line" smooth="yes"/>
      <point x="235" y="232"/>
      <point x="213" y="257"/>
      <point x="138" y="269" type="curve"/>
      <point x="213" y="280"/>
      <point x="235" y="305"/>
      <point x="235" y="378" type="curve" smooth="yes"/>
      <point x="235" y="573" type="line" smooth="yes"/>
      <point x="235" y="613"/>
      <point x="249" y="630"/>
      <point x="280" y="630" type="curve" smooth="yes"/>
      <point x="317" y="630" type="line"/>
    </contour>
  </outline>
</glyph>
<glyph name="braceright" format="1">
  <advance width="389"/>
  <unicode hex="007D"/>
  <outline>
    <contour>
      <point x="72" y="-200" type="line"/>
      <point x="148" y="-200" type="line" smooth="yes"/>
      <point x="220" y="-200"/>
      <point x="271" y="-142"/>
      <point x="271" y="-60" type="curve" smooth="yes"/>
      <point x="271" y="151" type="line" smooth="yes"/>
      <point x="271" y="194"/>
      <point x="291" y="213"/>
      <point x="336" y="214" type="curve" smooth="yes"/>
      <point x="348" y="214" type="line"/>
      <point x="352" y="214" type="line"/>
      <point x="352" y="306" type="line"/>
      <point x="348" y="307" type="line"/>
      <point x="320" y="307"/>
      <point x="313" y="308"/>
      <point x="302" y="312" type="curve"/>
      <point x="279" y="323"/>
      <point x="271" y="339"/>
      <point x="271" y="379" type="curve" smooth="yes"/>
      <point x="271" y="589" type="line" smooth="yes"/>
      <point x="271" y="671"/>
      <point x="220" y="729"/>
      <point x="148" y="729" type="curve" smooth="yes"/>
      <point x="72" y="729" type="line"/>
      <point x="72" y="630" type="line"/>
      <point x="109" y="630" type="line" smooth="yes"/>
      <point x="143" y="630"/>
      <point x="154" y="614"/>
      <point x="154" y="565" type="curve" smooth="yes"/>
      <point x="154" y="370" type="line" smooth="yes"/>
      <point x="154" y="297"/>
      <point x="176" y="272"/>
      <point x="251" y="260" type="curve"/>
      <point x="176" y="249"/>
      <point x="154" y="224"/>
      <point x="154" y="151" type="curve" smooth="yes"/>
      <point x="154" y="-44" type="line" smooth="yes"/>
      <point x="154" y="-84"/>
      <point x="140" y="-101"/>
      <point x="109" y="-101" type="curve" smooth="yes"/>
      <point x="72" y="-101" type="line"/>
    </contour>
  </outline>
</glyph>
<glyph name="asciitilde" format="1">
  <advance width="584"/>
  <unicode hex="007E"/>
  <outline>
    <contour>
      <point x="441" y="288" type="line"/>
      <point x="440" y="261"/>
      <point x="439" y="257"/>
      <point x="436" y="249" type="curve"/>
      <point x="428" y="231"/>
      <point x="412" y="222"/>
      <point x="388" y="222" type="curve" smooth="yes"/>
      <point x="367" y="222"/>
      <point x="353" y="228"/>
      <point x="327" y="247" type="curve" smooth="yes"/>
      <point x="270" y="289" type="line" smooth="yes"/>
      <point x="246" y="306"/>
      <point x="220" y="314"/>
      <point x="187" y="314" type="curve" smooth="yes"/>
      <point x="108" y="314"/>
      <point x="65" y="266"/>
      <point x="60" y="169" type="curve"/>
      <point x="138" y="169" type="line"/>
      <point x="139" y="195"/>
      <point x="140" y="199"/>
      <point x="143" y="207" type="curve"/>
      <point x="151" y="225"/>
      <point x="167" y="234"/>
      <point x="191" y="234" type="curve" smooth="yes"/>
      <point x="212" y="234"/>
      <point x="229" y="227"/>
      <point x="252" y="210" type="curve" smooth="yes"/>
      <point x="309" y="168" type="line" smooth="yes"/>
      <point x="335" y="150"/>
      <point x="359" y="142"/>
      <point x="392" y="142" type="curve" smooth="yes"/>
      <point x="472" y="142"/>
      <point x="513" y="190"/>
      <point x="519" y="288" type="curve"/>
    </contour>
  </outline>
</glyph>
<glyph name="exclamdown" format="1">
  <advance width="333"/>
  <unicode hex="00A1"/>
  <outline>
    <contour>
      <point x="66" y="-186" type="line"/>
      <point x="216" y="-186" type="line"/>
      <point x="216" y="24" type="line"/>
      <point x="175" y="333" type="line"/>
      <point x="108" y="333" type="line"/>
      <point x="66" y="24" type="line"/>
    </contour>
    <contour>
      <point x="66" y="394" type="line"/>
      <point x="216" y="394" type="line"/>
      <point x="216" y="540" type="line"/>
      <point x="66" y="540" type="line"/>
    </contour>
  </outline>
</glyph>
<glyph name="cent" format="1">
  <advance width="556"/>
  <unicode hex="00A2"/>
  <outline>
    <contour>
      <point x="303" y="435" type="line"/>
      <point x="350" y="428"/>
      <point x="375" y="400"/>
      <point x="388" y="338" type="curve"/>
      <point x="522" y="338" type="line"/>
      <point x="514" y="462"/>
      <point x="426" y="547"/>
      <point x="303" y="549" type="curve"/>
      <point x="303" y="634" type="line"/>
      <point x="259" y="634" type="line"/>
      <point x="259" y="548" type="line"/>
      <point x="114" y="533"/>
      <point x="36" y="431"/>
      <point x="36" y="259" type="curve" smooth="yes"/>
      <point x="36" y="93"/>
      <point x="120" y="-13"/>
      <point x="259" y="-22" type="curve"/>
      <point x="259" y="-124" type="line"/>
      <point x="303" y="-124" type="line"/>
      <point x="303" y="-23" type="line"/>
      <point x="422" y="-18"/>
      <point x="511" y="67"/>
      <point x="522" y="187" type="curve"/>
      <point x="388" y="187" type="line"/>
      <point x="373" y="126"/>
      <point x="349" y="98"/>
      <point x="303" y="91" type="curve"/>
    </contour>
    <contour>
      <point x="259" y="94" type="line"/>
      <point x="205" y="110"/>
      <point x="176" y="167"/>
      <point x="176" y="260" type="curve" smooth="yes"/>
      <point x="176" y="359"/>
      <point x="205" y="419"/>
      <point x="259" y="433" type="curve"/>
    </contour>
  </outline>
</glyph>
<glyph name="sterling" format="1">
  <advance width="556"/>
  <unicode hex="00A3"/>
  <outline>
    <contour>
      <point x="375" y="371" type="line"/>
      <point x="236" y="371" type="line"/>
      <point x="230" y="386"/>
      <point x="223" y="401"/>
      <point x="206" y="436" type="curve" smooth="yes"/>
      <point x="182" y="485"/>
      <point x="179" y="493"/>
      <point x="179" y="513" type="curve" smooth="yes"/>
      <point x="179" y="566"/>
      <point x="220" y="604"/>
      <point x="277" y="604" type="curve" smooth="yes"/>
      <point x="307" y="604"/>
      <point x="334" y="595"/>
      <point x="354" y="577" type="curve" smooth="yes"/>
      <point x="375" y="559"/>
      <point x="383" y="541"/>
      <point x="389" y="495" type="curve" smooth="yes"/>
      <point x="390" y="484" type="line"/>
      <point x="522" y="484" type="line"/>
      <point x="517" y="543"/>
      <point x="509" y="576"/>
      <point x="494" y="605" type="curve" smooth="yes"/>
      <point x="458" y="676"/>
      <point x="380" y="715"/>
      <point x="276" y="715" type="curve" smooth="yes"/>
      <point x="209" y="715"/>
      <point x="154" y="698"/>
      <point x="112" y="666" type="curve" smooth="yes"/>
      <point x="66" y="629"/>
      <point x="38" y="572"/>
      <point x="38" y="516" type="curve" smooth="yes"/>
      <point x="38" y="472"/>
      <point x="46" y="450"/>
      <point x="91" y="371" type="curve"/>
      <point x="31" y="371" type="line"/>
      <point x="31" y="316" type="line"/>
      <point x="120" y="316" type="line"/>
      <point x="136" y="277"/>
      <point x="141" y="256"/>
      <point x="141" y="231" type="curve" smooth="yes"/>
      <point x="141" y="173"/>
      <point x="115" y="137"/>
      <point x="31" y="80" type="curve"/>
      <point x="86" y="-21" type="line"/>
      <point x="130" y="1"/>
      <point x="157" y="9"/>
      <point x="195" y="9" type="curve" smooth="yes"/>
      <point x="221" y="9"/>
      <point x="245" y="5"/>
      <point x="293" y="-7" type="curve" smooth="yes"/>
      <point x="343" y="-19"/>
      <point x="365" y="-23"/>
      <point x="392" y="-23" type="curve" smooth="yes"/>
      <point x="441" y="-23"/>
      <point x="481" y="-11"/>
      <point x="537" y="22" type="curve"/>
      <point x="496" y="131" type="line"/>
      <point x="456" y="111"/>
      <point x="424" y="102"/>
      <point x="391" y="102" type="curve" smooth="yes"/>
      <point x="374" y="102"/>
      <point x="354" y="105"/>
      <point x="328" y="112" type="curve" smooth="yes"/>
      <point x="289" y="122"/>
      <point x="281" y="123"/>
      <point x="264" y="123" type="curve" smooth="yes"/>
      <point x="235" y="123"/>
      <point x="215" y="116"/>
      <point x="152" y="86" type="curve"/>
      <point x="237" y="153"/>
      <point x="268" y="199"/>
      <point x="268" y="257" type="curve" smooth="yes"/>
      <point x="268" y="277"/>
      <point x="265" y="290"/>
      <point x="253" y="316" type="curve"/>
      <point x="375" y="316" type="line"/>
    </contour>
  </outline>
</glyph>
<glyph name="currency" format="1">
  <advance width="556"/>
  <unicode hex="00A4"/>
  <outline>
    <contour>
      <point x="388" y="528" type="line"/>
      <point x="359" y="546"/>
      <point x="318" y="558"/>
      <point x="281" y="558" type="curve" smooth="yes"/>
      <point x="244" y="558"/>
      <point x="203" y="546"/>
      <point x="172" y="527" type="curve"/>
      <point x="95" y="604" type="line"/>
      <point x="26" y="536" type="line"/>
      <point x="105" y="457" type="line"/>
      <point x="86" y="427"/>
      <point x="76" y="390"/>
      <point x="76" y="352" type="curve" smooth="yes"/>
      <point x="76" y="314"/>
      <point x="84" y="286"/>
      <point x="106" y="246" type="curve"/>
      <point x="28" y="169" type="line"/>
      <point x="96" y="100" type="line"/>
      <point x="175" y="178" type="line"/>
      <point x="201" y="159"/>
      <point x="246" y="147"/>
      <point x="286" y="147" type="curve" smooth="yes"/>
      <point x="322" y="147"/>
      <point x="340" y="152"/>
      <point x="386" y="177" type="curve"/>
      <point x="461" y="102" type="line"/>
      <point x="530" y="170" type="line"/>
      <point x="453" y="246" type="line"/>
      <point x="473" y="281"/>
      <point x="482" y="315"/>
      <point x="482" y="354" type="curve" smooth="yes"/>
      <point x="482" y="392"/>
      <point x="475" y="417"/>
      <point x="455" y="457" type="curve"/>
      <point x="530" y="532" type="line"/>
      <point x="461" y="601" type="line"/>
    </contour>
    <contour>
      <point x="280" y="460" type="curve" smooth="yes"/>
      <point x="338" y="460"/>
      <point x="386" y="411"/>
      <point x="386" y="353" type="curve" smooth="yes"/>
      <point x="386" y="293"/>
      <point x="338" y="245"/>
      <point x="279" y="245" type="curve" smooth="yes"/>
      <point x="220" y="245"/>
      <point x="172" y="293"/>
      <point x="172" y="352" type="curve" smooth="yes"/>
      <point x="172" y="413"/>
      <point x="220" y="460"/>
    </contour>
  </outline>
</glyph>
<glyph name="yen" format="1">
  <advance width="556"/>
  <unicode hex="00A5"/>
  <outline>
    <contour>
      <point x="497" y="351" type="line"/>
      <point x="360" y="351" type="line"/>
      <point x="552" y="704" type="line"/>
      <point x="417" y="704" type="line"/>
      <point x="283" y="450" type="line"/>
      <point x="144" y="704" type="line"/>
      <point x="5" y="704" type="line"/>
      <point x="208" y="351" type="line"/>
      <point x="70" y="351" type="line"/>
      <point x="70" y="292" type="line"/>
      <point x="215" y="292" type="line"/>
      <point x="215" y="239" type="line"/>
      <point x="70" y="239" type="line"/>
      <point x="70" y="180" type="line"/>
      <point x="215" y="180" type="line"/>
      <point x="215" y="0" type="line"/>
      <point x="355" y="0" type="line"/>
      <point x="355" y="180" type="line"/>
      <point x="497" y="180" type="line"/>
      <point x="497" y="239" type="line"/>
      <point x="355" y="239" type="line"/>
      <point x="355" y="292" type="line"/>
      <point x="497" y="292" type="line"/>
    </contour>
  </outline>
</glyph>
<glyph name="brokenbar" format="1">
  <advance width="280"/>
  <unicode hex="00A6"/>
  <outline>
    <contour>
      <point x="180" y="729" type="line"/>
      <point x="100" y="729" type="line"/>
      <point x="100" y="340" type="line"/>
      <point x="180" y="340" type="line"/>
    </contour>
    <contour>
      <point x="180" y="189" type="line"/>
      <point x="100" y="189" type="line"/>
      <point x="100" y="-200" type="line"/>
      <point x="180" y="-200" type="line"/>
    </contour>
  </outline>
</glyph>
<glyph name="section" format="1">
  <advance width="556"/>
  <unicode hex="00A7"/>
  <outline>
    <contour>
      <point x="473" y="544" type="line"/>
      <point x="471" y="593"/>
      <point x="464" y="619"/>
      <point x="447" y="647" type="curve" smooth="yes"/>
      <point x="416" y="694"/>
      <point x="351" y="723"/>
      <point x="273" y="723" type="curve" smooth="yes"/>
      <point x="152" y="723"/>
      <point x="64" y="651"/>
      <point x="64" y="551" type="curve" smooth="yes"/>
      <point x="64" y="520"/>
      <point x="74" y="487"/>
      <point x="91" y="465" type="curve"/>
      <point x="97" y="456"/>
      <point x="100" y="453"/>
      <point x="125" y="428" type="curve"/>
      <point x="54" y="374"/>
      <point x="33" y="341"/>
      <point x="33" y="281" type="curve" smooth="yes"/>
      <point x="33" y="226"/>
      <point x="61" y="179"/>
      <point x="112" y="149" type="curve" smooth="yes"/>
      <point x="283" y="49" type="line" smooth="yes"/>
      <point x="325" y="26"/>
      <point x="325" y="26"/>
      <point x="335" y="16" type="curve" smooth="yes"/>
      <point x="346" y="5"/>
      <point x="353" y="-11"/>
      <point x="353" y="-29" type="curve" smooth="yes"/>
      <point x="353" y="-65"/>
      <point x="322" y="-90"/>
      <point x="277" y="-90" type="curve" smooth="yes"/>
      <point x="252" y="-90"/>
      <point x="229" y="-82"/>
      <point x="215" y="-68" type="curve" smooth="yes"/>
      <point x="202" y="-56"/>
      <point x="198" y="-42"/>
      <point x="196" y="-10" type="curve"/>
      <point x="196" y="0" type="line"/>
      <point x="65" y="0" type="line"/>
      <point x="66" y="-133"/>
      <point x="137" y="-201"/>
      <point x="276" y="-201" type="curve" smooth="yes"/>
      <point x="406" y="-201"/>
      <point x="494" y="-124"/>
      <point x="494" y="-10" type="curve" smooth="yes"/>
      <point x="494" y="47"/>
      <point x="471" y="91"/>
      <point x="424" y="124" type="curve"/>
      <point x="491" y="155"/>
      <point x="518" y="195"/>
      <point x="518" y="262" type="curve" smooth="yes"/>
      <point x="518" y="330"/>
      <point x="487" y="378"/>
      <point x="421" y="415" type="curve" smooth="yes"/>
      <point x="294" y="485" type="line" smooth="yes"/>
      <point x="223" y="524"/>
      <point x="204" y="542"/>
      <point x="204" y="570" type="curve" smooth="yes"/>
      <point x="204" y="601"/>
      <point x="230" y="621"/>
      <point x="268" y="621" type="curve" smooth="yes"/>
      <point x="315" y="621"/>
      <point x="339" y="597"/>
      <point x="346" y="544" type="curve"/>
    </contour>
    <contour>
      <point x="337" y="306" type="line" smooth="yes"/>
      <point x="384" y="281"/>
      <point x="398" y="264"/>
      <point x="398" y="232" type="curve" smooth="yes"/>
      <point x="398" y="209"/>
      <point x="386" y="191"/>
      <point x="352" y="167" type="curve"/>
      <point x="205" y="247" type="line" smooth="yes"/>
      <point x="165" y="269"/>
      <point x="152" y="286"/>
      <point x="152" y="317" type="curve" smooth="yes"/>
      <point x="152" y="346"/>
      <point x="164" y="364"/>
      <point x="194" y="382" type="curve"/>
    </contour>
  </outline>
</glyph>
<glyph name="dieresis" format="1">
  <advance width="333"/>
  <unicode hex="00A8"/>
  <outline>
    <contour>
      <point x="128" y="743" type="line"/>
      <point x="18" y="743" type="line"/>
      <point x="18" y="621" type="line"/>
      <point x="128" y="621" type="line"/>
    </contour>
    <contour>
      <point x="314" y="743" type="line"/>
      <point x="204" y="743" type="line"/>
      <point x="204" y="621" type="line"/>
      <point x="314" y="621" type="line"/>
    </contour>
  </outline>
</glyph>
<glyph name="copyright" format="1">
  <advance width="737"/>
  <unicode hex="00A9"/>
  <outline>
    <contour>
      <point x="552" y="431" type="line"/>
      <point x="549" y="472"/>
      <point x="541" y="496"/>
      <point x="522" y="522" type="curve" smooth="yes"/>
      <point x="488" y="567"/>
      <point x="433" y="592"/>
      <point x="367" y="592" type="curve" smooth="yes"/>
      <point x="241" y="592"/>
      <point x="163" y="503"/>
      <point x="163" y="360" type="curve" smooth="yes"/>
      <point x="163" y="218"/>
      <point x="241" y="128"/>
      <point x="364" y="128" type="curve" smooth="yes"/>
      <point x="476" y="128"/>
      <point x="549" y="192"/>
      <point x="554" y="297" type="curve"/>
      <point x="462" y="297" type="line"/>
      <point x="457" y="241"/>
      <point x="423" y="211"/>
      <point x="366" y="211" type="curve" smooth="yes"/>
      <point x="296" y="211"/>
      <point x="255" y="266"/>
      <point x="255" y="359" type="curve" smooth="yes"/>
      <point x="255" y="453"/>
      <point x="298" y="509"/>
      <point x="369" y="509" type="curve" smooth="yes"/>
      <point x="422" y="509"/>
      <point x="451" y="485"/>
      <point x="462" y="431" type="curve"/>
    </contour>
    <contour>
      <point x="369" y="743" type="curve" smooth="yes"/>
      <point x="158" y="743"/>
      <point x="-14" y="571"/>
      <point x="-14" y="361" type="curve" smooth="yes"/>
      <point x="-14" y="152"/>
      <point x="158" y="-22"/>
      <point x="364" y="-22" type="curve" smooth="yes"/>
      <point x="580" y="-22"/>
      <point x="751" y="147"/>
      <point x="751" y="361" type="curve" smooth="yes"/>
      <point x="751" y="572"/>
      <point x="579" y="743"/>
    </contour>
    <contour>
      <point x="368" y="671" type="curve" smooth="yes"/>
      <point x="536" y="671"/>
      <point x="673" y="532"/>
      <point x="673" y="361" type="curve" smooth="yes"/>
      <point x="673" y="188"/>
      <point x="537" y="50"/>
      <point x="365" y="50" type="curve" smooth="yes"/>
      <point x="201" y="50"/>
      <point x="64" y="192"/>
      <point x="64" y="361" type="curve" smooth="yes"/>
      <point x="64" y="532"/>
      <point x="201" y="671"/>
    </contour>
  </outline>
</glyph>
<glyph name="ordfeminine" format="1">
  <advance width="370"/>
  <unicode hex="00AA"/>
  <outline>
    <contour>
      <point x="321" y="340" type="line"/>
      <point x="37" y="340" type="line"/>
      <point x="37" y="262" type="line"/>
      <point x="321" y="262" type="line"/>
    </contour>
    <contour>
      <point x="329" y="410" type="line"/>
      <point x="313" y="424"/>
      <point x="309" y="433"/>
      <point x="309" y="450" type="curve" smooth="yes"/>
      <point x="309" y="629" type="line" smooth="yes"/>
      <point x="309" y="695"/>
      <point x="264" y="729"/>
      <point x="176" y="729" type="curve" smooth="yes"/>
      <point x="88" y="729"/>
      <point x="42" y="691"/>
      <point x="41" y="617" type="curve"/>
      <point x="119" y="617" type="line"/>
      <point x="123" y="649"/>
      <point x="138" y="661"/>
      <point x="178" y="661" type="curve" smooth="yes"/>
      <point x="210" y="661"/>
      <point x="227" y="650"/>
      <point x="227" y="630" type="curve" smooth="yes"/>
      <point x="227" y="620"/>
      <point x="221" y="610"/>
      <point x="212" y="606" type="curve"/>
      <point x="201" y="600"/>
      <point x="201" y="600"/>
      <point x="160" y="593" type="curve" smooth="yes"/>
      <point x="126" y="587" type="line" smooth="yes"/>
      <point x="61" y="576"/>
      <point x="31" y="543"/>
      <point x="31" y="484" type="curve" smooth="yes"/>
      <point x="31" y="425"/>
      <point x="70" y="386"/>
      <point x="129" y="386" type="curve" smooth="yes"/>
      <point x="165" y="386"/>
      <point x="199" y="402"/>
      <point x="227" y="432" type="curve"/>
      <point x="228" y="416"/>
      <point x="229" y="410"/>
      <point x="237" y="400" type="curve"/>
      <point x="329" y="400" type="line"/>
    </contour>
    <contour>
      <point x="227" y="530" type="line" smooth="yes"/>
      <point x="227" y="482"/>
      <point x="203" y="454"/>
      <point x="161" y="454" type="curve" smooth="yes"/>
      <point x="132" y="454"/>
      <point x="115" y="469"/>
      <point x="115" y="493" type="curve" smooth="yes"/>
      <point x="115" y="518"/>
      <point x="128" y="530"/>
      <point x="163" y="537" type="curve" smooth="yes"/>
      <point x="192" y="543" type="line" smooth="yes"/>
      <point x="214" y="547"/>
      <point x="217" y="548"/>
      <point x="227" y="553" type="curve"/>
    </contour>
  </outline>
</glyph>
<glyph name="guillemotleft" format="1">
  <advance width="556"/>
  <unicode hex="00AB"/>
  <outline>
    <contour>
      <point x="88" y="218" type="line"/>
      <point x="255" y="72" type="line"/>
      <point x="255" y="186" type="line"/>
      <point x="154" y="275" type="line"/>
      <point x="255" y="364" type="line"/>
      <point x="255" y="481" type="line"/>
      <point x="88" y="332" type="line"/>
    </contour>
    <contour>
      <point x="301" y="218" type="line"/>
      <point x="468" y="72" type="line"/>
      <point x="468" y="186" type="line"/>
      <point x="367" y="275" type="line"/>
      <point x="468" y="364" type="line"/>
      <point x="468" y="481" type="line"/>
      <point x="301" y="332" type="line"/>
    </contour>
  </outline>
</glyph>
<glyph name="logicalnot" format="1">
  <advance width="584"/>
  <unicode hex="00AC"/>
  <outline>
    <contour>
      <point x="40" y="375" type="line"/>
      <point x="40" y="298" type="line"/>
      <point x="467" y="298" type="line"/>
      <point x="467" y="86" type="line"/>
      <point x="544" y="86" type="line"/>
      <point x="544" y="375" type="line"/>
    </contour>
  </outline>
</glyph>
<glyph name="registered" format="1">
  <advance width="737"/>
  <unicode hex="00AE"/>
  <outline>
    <contour>
      <point x="288" y="313" type="line"/>
      <point x="380" y="313" type="line" smooth="yes"/>
      <point x="422" y="313"/>
      <point x="441" y="298"/>
      <point x="441" y="264" type="curve" smooth="yes"/>
      <point x="441" y="247" type="line"/>
      <point x="440" y="237"/>
      <point x="440" y="229"/>
      <point x="440" y="221" type="curve" smooth="yes"/>
      <point x="440" y="177"/>
      <point x="442" y="163"/>
      <point x="454" y="140" type="curve"/>
      <point x="557" y="140" type="line"/>
      <point x="557" y="161" type="line"/>
      <point x="542" y="169"/>
      <point x="538" y="176"/>
      <point x="538" y="195" type="curve" smooth="yes"/>
      <point x="535" y="323"/>
      <point x="533" y="330"/>
      <point x="481" y="354" type="curve"/>
      <point x="530" y="378"/>
      <point x="551" y="412"/>
      <point x="551" y="462" type="curve" smooth="yes"/>
      <point x="551" y="538"/>
      <point x="506" y="583"/>
      <point x="430" y="583" type="curve" smooth="yes"/>
      <point x="192" y="583" type="line"/>
      <point x="192" y="140" type="line"/>
      <point x="288" y="140" type="line"/>
    </contour>
    <contour>
      <point x="288" y="394" type="line"/>
      <point x="288" y="502" type="line"/>
      <point x="391" y="502" type="line" smooth="yes"/>
      <point x="439" y="502"/>
      <point x="455" y="489"/>
      <point x="455" y="448" type="curve" smooth="yes"/>
      <point x="455" y="407"/>
      <point x="439" y="394"/>
      <point x="391" y="394" type="curve" smooth="yes"/>
    </contour>
    <contour>
      <point x="369" y="743" type="curve" smooth="yes"/>
      <point x="158" y="743"/>
      <point x="-14" y="571"/>
      <point x="-14" y="361" type="curve" smooth="yes"/>
      <point x="-14" y="152"/>
      <point x="158" y="-22"/>
      <point x="364" y="-22" type="curve" smooth="yes"/>
      <point x="580" y="-22"/>
      <point x="751" y="147"/>
      <point x="751" y="361" type="curve" smooth="yes"/>
      <point x="751" y="572"/>
      <point x="579" y="743"/>
    </contour>
    <contour>
      <point x="368" y="671" type="curve" smooth="yes"/>
      <point x="536" y="671"/>
      <point x="673" y="532"/>
      <point x="673" y="361" type="curve" smooth="yes"/>
      <point x="673" y="188"/>
      <point x="537" y="50"/>
      <point x="365" y="50" type="curve" smooth="yes"/>
      <point x="201" y="50"/>
      <point x="64" y="192"/>
      <point x="64" y="361" type="curve" smooth="yes"/>
      <point x="64" y="532"/>
      <point x="201" y="671"/>
    </contour>
  </outline>
</glyph>
<glyph name="macron" format="1">
  <advance width="333"/>
  <unicode hex="00AF"/>
  <outline>
    <contour>
      <point x="315" y="719" type="line"/>
      <point x="16" y="719" type="line"/>
      <point x="16" y="640" type="line"/>
      <point x="315" y="640" type="line"/>
    </contour>
  </outline>
</glyph>
<glyph name="degree" format="1">
  <advance width="606"/>
  <unicode hex="00B0"/>
  <outline>
    <contour>
      <point x="303" y="686" type="curve" smooth="yes"/>
      <point x="219" y="686"/>
      <point x="151" y="618"/>
      <point x="151" y="535" type="curve" smooth="yes"/>
      <point x="151" y="452"/>
      <point x="219" y="383"/>
      <point x="301" y="383" type="curve" smooth="yes"/>
      <point x="386" y="383"/>
      <point x="454" y="450"/>
      <point x="454" y="535" type="curve" smooth="yes"/>
      <point x="454" y="618"/>
      <point x="386" y="686"/>
    </contour>
    <contour>
      <point x="303" y="623" type="curve" smooth="yes"/>
      <point x="351" y="623"/>
      <point x="391" y="583"/>
      <point x="391" y="535" type="curve" smooth="yes"/>
      <point x="391" y="485"/>
      <point x="351" y="446"/>
      <point x="301" y="446" type="curve" smooth="yes"/>
      <point x="254" y="446"/>
      <point x="214" y="487"/>
      <point x="214" y="534" type="curve" smooth="yes"/>
      <point x="214" y="583"/>
      <point x="254" y="623"/>
    </contour>
  </outline>
</glyph>
<glyph name="plusminus" format="1">
  <advance width="584"/>
  <unicode hex="00B1"/>
  <outline>
    <contour>
      <point x="527" y="103" type="line"/>
      <point x="56" y="103" type="line"/>
      <point x="56" y="-16" type="line"/>
      <point x="527" y="-16" type="line"/>
    </contour>
    <contour>
      <point x="527" y="432" type="line"/>
      <point x="351" y="432" type="line"/>
      <point x="351" y="608" type="line"/>
      <point x="232" y="608" type="line"/>
      <point x="232" y="432" type="line"/>
      <point x="56" y="432" type="line"/>
      <point x="56" y="313" type="line"/>
      <point x="232" y="313" type="line"/>
      <point x="232" y="137" type="line"/>
      <point x="351" y="137" type="line"/>
      <point x="351" y="313" type="line"/>
      <point x="527" y="313" type="line"/>
    </contour>
  </outline>
</glyph>
<glyph name="paragraph" format="1">
  <advance width="556"/>
  <unicode hex="00B6"/>
  <outline>
    <contour>
      <point x="529" y="729" type="line"/>
      <point x="226" y="729" type="line" smooth="yes"/>
      <point x="161" y="729"/>
      <point x="109" y="703"/>
      <point x="70" y="650" type="curve" smooth="yes"/>
      <point x="37" y="606"/>
      <point x="19" y="550"/>
      <point x="19" y="495" type="curve" smooth="yes"/>
      <point x="19" y="367"/>
      <point x="104" y="273"/>
      <point x="227" y="267" type="curve"/>
      <point x="227" y="-191" type="line"/>
      <point x="325" y="-191" type="line"/>
      <point x="325" y="657" type="line"/>
      <point x="388" y="657" type="line"/>
      <point x="388" y="-191" type="line"/>
      <point x="486" y="-191" type="line"/>
      <point x="486" y="657" type="line"/>
      <point x="529" y="657" type="line"/>
    </contour>
  </outline>
</glyph>
<glyph name="periodcentered" format="1">
  <advance width="278"/>
  <unicode hex="00B7"/>
  <outline>
    <contour>
      <point x="64" y="292" type="line"/>
      <point x="64" y="169" type="line"/>
      <point x="188" y="169" type="line"/>
      <point x="188" y="292" type="line"/>
    </contour>
  </outline>
</glyph>
<glyph name="cedilla" format="1">
  <advance width="333"/>
  <unicode hex="00B8"/>
  <outline>
    <contour>
      <point x="162" y="0" type="line"/>
      <point x="108" y="-106" type="line"/>
      <point x="127" y="-97"/>
      <point x="137" y="-94"/>
      <point x="157" y="-94" type="curve" smooth="yes"/>
      <point x="188" y="-94"/>
      <point x="208" y="-108"/>
      <point x="208" y="-129" type="curve" smooth="yes"/>
      <point x="208" y="-152"/>
      <point x="183" y="-170"/>
      <point x="151" y="-170" type="curve" smooth="yes"/>
      <point x="123" y="-170"/>
      <point x="99" y="-163"/>
      <point x="46" y="-140" type="curve"/>
      <point x="27" y="-192" type="line"/>
      <point x="92" y="-214"/>
      <point x="121" y="-220"/>
      <point x="165" y="-220" type="curve" smooth="yes"/>
      <point x="248" y="-220"/>
      <point x="294" y="-187"/>
      <point x="294" y="-127" type="curve" smooth="yes"/>
      <point x="294" y="-83"/>
      <point x="265" y="-56"/>
      <point x="218" y="-56" type="curve" smooth="yes"/>
      <point x="203" y="-56"/>
      <point x="191" y="-58"/>
      <point x="176" y="-63" type="curve"/>
      <point x="205" y="0" type="line"/>
    </contour>
  </outline>
</glyph>
<glyph name="ordmasculine" format="1">
  <advance width="365"/>
  <unicode hex="00BA"/>
  <outline>
    <contour>
      <point x="334" y="340" type="line"/>
      <point x="33" y="340" type="line"/>
      <point x="33" y="262" type="line"/>
      <point x="334" y="262" type="line"/>
    </contour>
    <contour>
      <point x="183" y="729" type="curve" smooth="yes"/>
      <point x="84" y="729"/>
      <point x="23" y="664"/>
      <point x="23" y="557" type="curve" smooth="yes"/>
      <point x="23" y="451"/>
      <point x="84" y="386"/>
      <point x="183" y="386" type="curve" smooth="yes"/>
      <point x="281" y="386"/>
      <point x="343" y="451"/>
      <point x="343" y="555" type="curve" smooth="yes"/>
      <point x="343" y="665"/>
      <point x="284" y="729"/>
    </contour>
    <contour>
      <point x="183" y="661" type="curve" smooth="yes"/>
      <point x="229" y="661"/>
      <point x="259" y="619"/>
      <point x="259" y="556" type="curve" smooth="yes"/>
      <point x="259" y="496"/>
      <point x="228" y="454"/>
      <point x="183" y="454" type="curve" smooth="yes"/>
      <point x="138" y="454"/>
      <point x="107" y="496"/>
      <point x="107" y="558" type="curve" smooth="yes"/>
      <point x="107" y="619"/>
      <point x="138" y="661"/>
    </contour>
  </outline>
</glyph>
<glyph name="guillemotright" format="1">
  <advance width="556"/>
  <unicode hex="00BB"/>
  <outline>
    <contour>
      <point x="255" y="335" type="line"/>
      <point x="88" y="481" type="line"/>
      <point x="88" y="367" type="line"/>
      <point x="189" y="278" type="line"/>
      <point x="88" y="189" type="line"/>
      <point x="88" y="72" type="line"/>
      <point x="255" y="220" type="line"/>
    </contour>
    <contour>
      <point x="462" y="335" type="line"/>
      <point x="295" y="481" type="line"/>
      <point x="295" y="367" type="line"/>
      <point x="396" y="278" type="line"/>
      <point x="295" y="189" type="line"/>
      <point x="295" y="72" type="line"/>
      <point x="462" y="220" type="line"/>
    </contour>
  </outline>
</glyph>
<glyph name="onequarter" format="1">
  <advance width="869"/>
  <unicode hex="00BC"/>
  <outline>
    <contour>
      <point x="147" y="573" type="line"/>
      <point x="147" y="284" type="line"/>
      <point x="242" y="284" type="line"/>
      <point x="242" y="709" type="line"/>
      <point x="178" y="709" type="line"/>
      <point x="164" y="659"/>
      <point x="118" y="634"/>
      <point x="40" y="634" type="curve"/>
      <point x="40" y="573" type="line"/>
    </contour>
    <contour>
      <point x="593" y="715" type="line"/>
      <point x="170" y="-20" type="line"/>
      <point x="257" y="-20" type="line"/>
      <point x="680" y="715" type="line"/>
    </contour>
    <contour>
      <point x="850" y="168" type="line"/>
      <point x="804" y="168" type="line"/>
      <point x="804" y="425" type="line"/>
      <point x="695" y="425" type="line"/>
      <point x="530" y="167" type="line"/>
      <point x="530" y="93" type="line"/>
      <point x="709" y="93" type="line"/>
      <point x="709" y="0" type="line"/>
      <point x="804" y="0" type="line"/>
      <point x="804" y="93" type="line"/>
      <point x="850" y="93" type="line"/>
    </contour>
    <contour>
      <point x="709" y="168" type="line"/>
      <point x="603" y="168" type="line"/>
      <point x="709" y="332" type="line"/>
    </contour>
  </outline>
</glyph>
<glyph name="onehalf" format="1">
  <advance width="869"/>
  <unicode hex="00BD"/>
  <outline>
    <contour>
      <point x="147" y="573" type="line"/>
      <point x="147" y="284" type="line"/>
      <point x="242" y="284" type="line"/>
      <point x="242" y="709" type="line"/>
      <point x="178" y="709" type="line"/>
      <point x="164" y="659"/>
      <point x="118" y="634"/>
      <point x="40" y="634" type="curve"/>
      <point x="40" y="573" type="line"/>
    </contour>
    <contour>
      <point x="587" y="715" type="line"/>
      <point x="164" y="-20" type="line"/>
      <point x="251" y="-20" type="line"/>
      <point x="674" y="715" type="line"/>
    </contour>
    <contour>
      <point x="844" y="81" type="line"/>
      <point x="657" y="81" type="line"/>
      <point x="671" y="98"/>
      <point x="677" y="105"/>
      <point x="685" y="111" type="curve"/>
      <point x="691" y="116"/>
      <point x="714" y="133"/>
      <point x="744" y="154" type="curve" smooth="yes"/>
      <point x="824" y="209"/>
      <point x="846" y="240"/>
      <point x="846" y="300" type="curve" smooth="yes"/>
      <point x="846" y="386"/>
      <point x="792" y="434"/>
      <point x="695" y="434" type="curve" smooth="yes"/>
      <point x="595" y="434"/>
      <point x="539" y="383"/>
      <point x="539" y="291" type="curve" smooth="yes"/>
      <point x="539" y="288"/>
      <point x="539" y="281"/>
      <point x="540" y="273" type="curve"/>
      <point x="632" y="273" type="line"/>
      <point x="631" y="280"/>
      <point x="630" y="287"/>
      <point x="630" y="289" type="curve" smooth="yes"/>
      <point x="630" y="334"/>
      <point x="652" y="360"/>
      <point x="690" y="360" type="curve" smooth="yes"/>
      <point x="728" y="360"/>
      <point x="751" y="336"/>
      <point x="751" y="296" type="curve" smooth="yes"/>
      <point x="751" y="251"/>
      <point x="737" y="235"/>
      <point x="638" y="169" type="curve" smooth="yes"/>
      <point x="560" y="119"/>
      <point x="537" y="81"/>
      <point x="534" y="0" type="curve"/>
      <point x="844" y="0" type="line"/>
    </contour>
  </outline>
</glyph>
<glyph name="questiondown" format="1">
  <advance width="611"/>
  <unicode hex="00BF"/>
  <outline>
    <contour>
      <point x="239" y="339" type="line"/>
      <point x="239" y="274"/>
      <point x="232" y="262"/>
      <point x="172" y="220" type="curve" smooth="yes"/>
      <point x="78" y="154"/>
      <point x="51" y="110"/>
      <point x="51" y="26" type="curve" smooth="yes"/>
      <point x="51" y="-110"/>
      <point x="153" y="-204"/>
      <point x="301" y="-204" type="curve" smooth="yes"/>
      <point x="387" y="-204"/>
      <point x="454" y="-174"/>
      <point x="497" y="-115" type="curve" smooth="yes"/>
      <point x="530" y="-71"/>
      <point x="543" y="-23"/>
      <point x="544" y="59" type="curve"/>
      <point x="408" y="59" type="line"/>
      <point x="408" y="57" type="line" smooth="yes"/>
      <point x="412" y="-24"/>
      <point x="364" y="-86"/>
      <point x="297" y="-86" type="curve" smooth="yes"/>
      <point x="237" y="-86"/>
      <point x="192" y="-36"/>
      <point x="192" y="29" type="curve" smooth="yes"/>
      <point x="192" y="74"/>
      <point x="204" y="93"/>
      <point x="263" y="141" type="curve" smooth="yes"/>
      <point x="343" y="209"/>
      <point x="366" y="254"/>
      <point x="363" y="339" type="curve"/>
    </contour>
    <contour>
      <point x="223" y="394" type="line"/>
      <point x="373" y="394" type="line"/>
      <point x="373" y="540" type="line"/>
      <point x="223" y="540" type="line"/>
    </contour>
  </outline>
</glyph>
<glyph name="Aacute" format="1">
  <advance width="722"/>
  <unicode hex="00C1"/>
  <outline>
    <contour>
      <point x="501" y="147" type="line"/>
      <point x="549" y="0" type="line"/>
      <point x="703" y="0" type="line"/>
      <point x="451" y="729" type="line"/>
      <point x="285" y="729" type="line"/>
      <point x="26" y="0" type="line"/>
      <point x="179" y="0" type="line"/>
      <point x="228" y="147" type="line"/>
    </contour>
    <contour>
      <point x="460" y="272" type="line"/>
      <point x="270" y="272" type="line"/>
      <point x="365" y="557" type="line"/>
    </contour>
    <contour>
      <point x="510" y="936" type="line"/>
      <point x="384" y="936" type="line"/>
      <point x="314" y="786" type="line"/>
      <point x="384" y="786" type="line"/>
    </contour>
  </outline>
</glyph>
<glyph name="Acircumflex" format="1">
  <advance width="722"/>
  <unicode hex="00C2"/>
  <outline>
    <contour>
      <point x="501" y="147" type="line"/>
      <point x="549" y="0" type="line"/>
      <point x="703" y="0" type="line"/>
      <point x="451" y="729" type="line"/>
      <point x="285" y="729" type="line"/>
      <point x="26" y="0" type="line"/>
      <point x="179" y="0" type="line"/>
      <point x="228" y="147" type="line"/>
    </contour>
    <contour>
      <point x="460" y="272" type="line"/>
      <point x="270" y="272" type="line"/>
      <point x="365" y="557" type="line"/>
    </contour>
    <contour>
      <point x="313" y="936" type="line"/>
      <point x="205" y="786" type="line"/>
      <point x="281" y="786" type="line"/>
      <point x="363" y="886" type="line"/>
      <point x="445" y="786" type="line"/>
      <point x="523" y="786" type="line"/>
      <point x="420" y="936" type="line"/>
    </contour>
  </outline>
</glyph>
<glyph name="Atilde" format="1">
  <advance width="722"/>
  <unicode hex="00C3"/>
  <outline>
    <contour>
      <point x="501" y="147" type="line"/>
      <point x="549" y="0" type="line"/>
      <point x="703" y="0" type="line"/>
      <point x="451" y="729" type="line"/>
      <point x="285" y="729" type="line"/>
      <point x="26" y="0" type="line"/>
      <point x="179" y="0" type="line"/>
      <point x="228" y="147" type="line"/>
    </contour>
    <contour>
      <point x="460" y="272" type="line"/>
      <point x="270" y="272" type="line"/>
      <point x="365" y="557" type="line"/>
    </contour>
    <contour>
      <point x="484" y="928" type="line"/>
      <point x="481" y="896"/>
      <point x="469" y="880"/>
      <point x="448" y="880" type="curve" smooth="yes"/>
      <point x="441" y="880"/>
      <point x="421" y="884"/>
      <point x="414" y="886" type="curve"/>
      <point x="343" y="911" type="line" smooth="yes"/>
      <point x="311" y="923"/>
      <point x="305" y="924"/>
      <point x="287" y="924" type="curve" smooth="yes"/>
      <point x="232" y="924"/>
      <point x="197" y="878"/>
      <point x="193" y="800" type="curve"/>
      <point x="256" y="800" type="line"/>
      <point x="261" y="832"/>
      <point x="272" y="845"/>
      <point x="296" y="845" type="curve" smooth="yes"/>
      <point x="305" y="845"/>
      <point x="315" y="843"/>
      <point x="326" y="839" type="curve" smooth="yes"/>
      <point x="397" y="813" type="line" smooth="yes"/>
      <point x="417" y="805"/>
      <point x="437" y="801"/>
      <point x="452" y="801" type="curve" smooth="yes"/>
      <point x="511" y="801"/>
      <point x="542" y="843"/>
      <point x="547" y="928" type="curve"/>
    </contour>
  </outline>
</glyph>
<glyph name="Aring" format="1">
  <advance width="722"/>
  <unicode hex="00C5"/>
  <outline>
    <contour>
      <point x="501" y="147" type="line"/>
      <point x="549" y="0" type="line"/>
      <point x="703" y="0" type="line"/>
      <point x="451" y="729" type="line"/>
      <point x="285" y="729" type="line"/>
      <point x="26" y="0" type="line"/>
      <point x="179" y="0" type="line"/>
      <point x="228" y="147" type="line"/>
    </contour>
    <contour>
      <point x="460" y="272" type="line"/>
      <point x="270" y="272" type="line"/>
      <point x="365" y="557" type="line"/>
    </contour>
    <contour>
      <point x="365" y="949" type="curve" smooth="yes"/>
      <point x="314" y="949"/>
      <point x="274" y="909"/>
      <point x="274" y="859" type="curve" smooth="yes"/>
      <point x="274" y="809"/>
      <point x="314" y="769"/>
      <point x="364" y="769" type="curve" smooth="yes"/>
      <point x="413" y="769"/>
      <point x="454" y="809"/>
      <point x="454" y="858" type="curve" smooth="yes"/>
      <point x="454" y="909"/>
      <point x="415" y="949"/>
    </contour>
    <contour>
      <point x="365" y="901" type="curve" smooth="yes"/>
      <point x="388" y="901"/>
      <point x="406" y="882"/>
      <point x="406" y="859" type="curve" smooth="yes"/>
      <point x="406" y="836"/>
      <point x="387" y="817"/>
      <point x="365" y="817" type="curve" smooth="yes"/>
      <point x="341" y="817"/>
      <point x="322" y="836"/>
      <point x="322" y="859" type="curve" smooth="yes"/>
      <point x="322" y="882"/>
      <point x="341" y="901"/>
    </contour>
  </outline>
</glyph>
<glyph name="AE" format="1">
  <advance width="1000"/>
  <unicode hex="00C6"/>
  <outline>
    <contour>
      <point x="430" y="152" type="line"/>
      <point x="430" y="0" type="line"/>
      <point x="966" y="0" type="line"/>
      <point x="966" y="125" type="line"/>
      <point x="580" y="125" type="line"/>
      <point x="580" y="314" type="line"/>
      <point x="919" y="314" type="line"/>
      <point x="919" y="439" type="line"/>
      <point x="580" y="439" type="line"/>
      <point x="580" y="604" type="line"/>
      <point x="946" y="604" type="line"/>
      <point x="946" y="729" type="line"/>
      <point x="264" y="729" type="line"/>
      <point x="1" y="0" type="line"/>
      <point x="154" y="0" type="line"/>
      <point x="207" y="152" type="line"/>
    </contour>
    <contour>
      <point x="430" y="277" type="line"/>
      <point x="249" y="277" type="line"/>
      <point x="363" y="604" type="line"/>
      <point x="430" y="604" type="line"/>
    </contour>
  </outline>
</glyph>
<glyph name="Ccedilla" format="1">
  <advance width="722"/>
  <unicode hex="00C7"/>
  <outline>
    <contour>
      <point x="379" y="-23" type="line"/>
      <point x="561" y="-19"/>
      <point x="677" y="84"/>
      <point x="685" y="249" type="curve"/>
      <point x="539" y="249" type="line"/>
      <point x="530" y="156"/>
      <point x="471" y="103"/>
      <point x="378" y="103" type="curve" smooth="yes"/>
      <point x="262" y="103"/>
      <point x="194" y="197"/>
      <point x="194" y="356" type="curve" smooth="yes"/>
      <point x="194" y="517"/>
      <point x="265" y="613"/>
      <point x="383" y="613" type="curve" smooth="yes"/>
      <point x="435" y="613"/>
      <point x="478" y="595"/>
      <point x="506" y="560" type="curve" smooth="yes"/>
      <point x="522" y="540"/>
      <point x="530" y="521"/>
      <point x="539" y="482" type="curve"/>
      <point x="682" y="482" type="line"/>
      <point x="677" y="545"/>
      <point x="664" y="585"/>
      <point x="633" y="626" type="curve" smooth="yes"/>
      <point x="577" y="700"/>
      <point x="487" y="741"/>
      <point x="378" y="741" type="curve" smooth="yes"/>
      <point x="172" y="741"/>
      <point x="44" y="594"/>
      <point x="44" y="358" type="curve" smooth="yes"/>
      <point x="44" y="230"/>
      <point x="82" y="126"/>
      <point x="155" y="56" type="curve" smooth="yes"/>
      <point x="203" y="11"/>
      <point x="242" y="-7"/>
      <point x="335" y="-23" type="curve"/>
      <point x="292" y="-106" type="line"/>
      <point x="311" y="-97"/>
      <point x="321" y="-94"/>
      <point x="341" y="-94" type="curve" smooth="yes"/>
      <point x="372" y="-94"/>
      <point x="392" y="-108"/>
      <point x="392" y="-129" type="curve" smooth="yes"/>
      <point x="392" y="-152"/>
      <point x="367" y="-170"/>
      <point x="335" y="-170" type="curve" smooth="yes"/>
      <point x="307" y="-170"/>
      <point x="283" y="-163"/>
      <point x="230" y="-140" type="curve"/>
      <point x="211" y="-192" type="line"/>
      <point x="276" y="-214"/>
      <point x="305" y="-220"/>
      <point x="349" y="-220" type="curve" smooth="yes"/>
      <point x="432" y="-220"/>
      <point x="478" y="-187"/>
      <point x="478" y="-127" type="curve" smooth="yes"/>
      <point x="478" y="-83"/>
      <point x="449" y="-56"/>
      <point x="402" y="-56" type="curve" smooth="yes"/>
      <point x="386" y="-56"/>
      <point x="374" y="-58"/>
      <point x="360" y="-63" type="curve"/>
    </contour>
  </outline>
</glyph>
<glyph name="Egrave" format="1">
  <advance width="667"/>
  <unicode hex="00C8"/>
  <outline>
    <contour>
      <point x="229" y="314" type="line"/>
      <point x="578" y="314" type="line"/>
      <point x="578" y="439" type="line"/>
      <point x="229" y="439" type="line"/>
      <point x="229" y="604" type="line"/>
      <point x="606" y="604" type="line"/>
      <point x="606" y="729" type="line"/>
      <point x="79" y="729" type="line"/>
      <point x="79" y="0" type="line"/>
      <point x="624" y="0" type="line"/>
      <point x="624" y="125" type="line"/>
      <point x="229" y="125" type="line"/>
    </contour>
    <contour>
      <point x="208" y="936" type="line"/>
      <point x="334" y="786" type="line"/>
      <point x="404" y="786" type="line"/>
      <point x="334" y="936" type="line"/>
    </contour>
  </outline>
</glyph>
<glyph name="Ecircumflex" format="1">
  <advance width="667"/>
  <unicode hex="00CA"/>
  <outline>
    <contour>
      <point x="229" y="314" type="line"/>
      <point x="578" y="314" type="line"/>
      <point x="578" y="439" type="line"/>
      <point x="229" y="439" type="line"/>
      <point x="229" y="604" type="line"/>
      <point x="606" y="604" type="line"/>
      <point x="606" y="729" type="line"/>
      <point x="79" y="729" type="line"/>
      <point x="79" y="0" type="line"/>
      <point x="624" y="0" type="line"/>
      <point x="624" y="125" type="line"/>
      <point x="229" y="125" type="line"/>
    </contour>
    <contour>
      <point x="294" y="936" type="line"/>
      <point x="186" y="786" type="line"/>
      <point x="262" y="786" type="line"/>
      <point x="344" y="886" type="line"/>
      <point x="426" y="786" type="line"/>
      <point x="504" y="786" type="line"/>
      <point x="401" y="936" type="line"/>
    </contour>
  </outline>
</glyph>
<glyph name="Edieresis" format="1">
  <advance width="667"/>
  <unicode hex="00CB"/>
  <outline>
    <contour>
      <point x="229" y="314" type="line"/>
      <point x="578" y="314" type="line"/>
      <point x="578" y="439" type="line"/>
      <point x="229" y="439" type="line"/>
      <point x="229" y="604" type="line"/>
      <point x="606" y="604" type="line"/>
      <point x="606" y="729" type="line"/>
      <point x="79" y="729" type="line"/>
      <point x="79" y="0" type="line"/>
      <point x="624" y="0" type="line"/>
      <point x="624" y="125" type="line"/>
      <point x="229" y="125" type="line"/>
    </contour>
    <contour>
      <point x="307" y="922" type="line"/>
      <point x="197" y="922" type="line"/>
      <point x="197" y="800" type="line"/>
      <point x="307" y="800" type="line"/>
    </contour>
    <contour>
      <point x="493" y="922" type="line"/>
      <point x="383" y="922" type="line"/>
      <point x="383" y="800" type="line"/>
      <point x="493" y="800" type="line"/>
    </contour>
  </outline>
</glyph>
<glyph name="Icircumflex" format="1">
  <advance width="278"/>
  <unicode hex="00CE"/>
  <outline>
    <contour>
      <point x="213" y="729" type="line"/>
      <point x="63" y="729" type="line"/>
      <point x="63" y="0" type="line"/>
      <point x="213" y="0" type="line"/>
    </contour>
    <contour>
      <point x="89" y="936" type="line"/>
      <point x="-19" y="786" type="line"/>
      <point x="57" y="786" type="line"/>
      <point x="139" y="886" type="line"/>
      <point x="221" y="786" type="line"/>
      <point x="299" y="786" type="line"/>
      <point x="196" y="936" type="line"/>
    </contour>
  </outline>
</glyph>
<glyph name="Idieresis" format="1">
  <advance width="278"/>
  <unicode hex="00CF"/>
  <outline>
    <contour>
      <point x="213" y="729" type="line"/>
      <point x="63" y="729" type="line"/>
      <point x="63" y="0" type="line"/>
      <point x="213" y="0" type="line"/>
    </contour>
    <contour>
      <point x="101" y="922" type="line"/>
      <point x="-9" y="922" type="line"/>
      <point x="-9" y="800" type="line"/>
      <point x="101" y="800" type="line"/>
    </contour>
    <contour>
      <point x="287" y="922" type="line"/>
      <point x="177" y="922" type="line"/>
      <point x="177" y="800" type="line"/>
      <point x="287" y="800" type="line"/>
    </contour>
  </outline>
</glyph>
<glyph name="Eth" format="1">
  <advance width="722"/>
  <unicode hex="00D0"/>
  <outline>
    <contour>
      <point x="77" y="339" type="line"/>
      <point x="77" y="0" type="line"/>
      <point x="362" y="0" type="line" smooth="yes"/>
      <point x="476" y="0"/>
      <point x="545" y="25"/>
      <point x="593" y="85" type="curve" smooth="yes"/>
      <point x="648" y="154"/>
      <point x="681" y="257"/>
      <point x="681" y="365" type="curve" smooth="yes"/>
      <point x="681" y="472"/>
      <point x="648" y="576"/>
      <point x="593" y="645" type="curve" smooth="yes"/>
      <point x="544" y="704"/>
      <point x="477" y="729"/>
      <point x="362" y="729" type="curve" smooth="yes"/>
      <point x="77" y="729" type="line"/>
      <point x="77" y="419" type="line"/>
      <point x="0" y="419" type="line"/>
      <point x="0" y="339" type="line"/>
    </contour>
    <contour>
      <point x="227" y="339" type="line"/>
      <point x="377" y="339" type="line"/>
      <point x="377" y="419" type="line"/>
      <point x="227" y="419" type="line"/>
      <point x="227" y="604" type="line"/>
      <point x="362" y="604" type="line" smooth="yes"/>
      <point x="427" y="604"/>
      <point x="465" y="588"/>
      <point x="491" y="550" type="curve" smooth="yes"/>
      <point x="522" y="506"/>
      <point x="537" y="444"/>
      <point x="537" y="364" type="curve" smooth="yes"/>
      <point x="537" y="285"/>
      <point x="522" y="223"/>
      <point x="491" y="179" type="curve" smooth="yes"/>
      <point x="465" y="141"/>
      <point x="427" y="125"/>
      <point x="362" y="125" type="curve" smooth="yes"/>
      <point x="227" y="125" type="line"/>
    </contour>
  </outline>
</glyph>
<glyph name="Ntilde" format="1">
  <advance width="722"/>
  <unicode hex="00D1"/>
  <outline>
    <contour>
      <point x="511" y="0" type="line"/>
      <point x="661" y="0" type="line"/>
      <point x="661" y="729" type="line"/>
      <point x="511" y="729" type="line"/>
      <point x="511" y="233" type="line"/>
      <point x="222" y="729" type="line"/>
      <point x="68" y="729" type="line"/>
      <point x="68" y="0" type="line"/>
      <point x="218" y="0" type="line"/>
      <point x="218" y="504" type="line"/>
    </contour>
    <contour>
      <point x="485" y="928" type="line"/>
      <point x="482" y="896"/>
      <point x="470" y="880"/>
      <point x="449" y="880" type="curve" smooth="yes"/>
      <point x="442" y="880"/>
      <point x="422" y="884"/>
      <point x="415" y="886" type="curve"/>
      <point x="344" y="911" type="line" smooth="yes"/>
      <point x="312" y="923"/>
      <point x="306" y="924"/>
      <point x="288" y="924" type="curve" smooth="yes"/>
      <point x="233" y="924"/>
      <point x="198" y="878"/>
      <point x="194" y="800" type="curve"/>
      <point x="257" y="800" type="line"/>
      <point x="262" y="832"/>
      <point x="273" y="845"/>
      <point x="297" y="845" type="curve" smooth="yes"/>
      <point x="306" y="845"/>
      <point x="316" y="843"/>
      <point x="327" y="839" type="curve" smooth="yes"/>
      <point x="398" y="813" type="line" smooth="yes"/>
      <point x="418" y="805"/>
      <point x="438" y="801"/>
      <point x="453" y="801" type="curve" smooth="yes"/>
      <point x="512" y="801"/>
      <point x="543" y="843"/>
      <point x="548" y="928" type="curve"/>
    </contour>
  </outline>
</glyph>
<glyph name="Ocircumflex" format="1">
  <advance width="778"/>
  <unicode hex="00D4"/>
  <outline>
    <contour>
      <point x="390" y="741" type="curve" smooth="yes"/>
      <point x="288" y="741"/>
      <point x="204" y="707"/>
      <point x="142" y="640" type="curve" smooth="yes"/>
      <point x="77" y="570"/>
      <point x="40" y="468"/>
      <point x="40" y="359" type="curve" smooth="yes"/>
      <point x="40" y="250"/>
      <point x="77" y="147"/>
      <point x="142" y="78" type="curve" smooth="yes"/>
      <point x="205" y="10"/>
      <point x="287" y="-23"/>
      <point x="391" y="-23" type="curve" smooth="yes"/>
      <point x="495" y="-23"/>
      <point x="577" y="10"/>
      <point x="640" y="78" type="curve" smooth="yes"/>
      <point x="703" y="145"/>
      <point x="742" y="251"/>
      <point x="742" y="354" type="curve" smooth="yes"/>
      <point x="742" y="468"/>
      <point x="705" y="570"/>
      <point x="640" y="640" type="curve" smooth="yes"/>
      <point x="576" y="709"/>
      <point x="495" y="741"/>
    </contour>
    <contour>
      <point x="391" y="613" type="curve" smooth="yes"/>
      <point x="514" y="613"/>
      <point x="592" y="513"/>
      <point x="592" y="355" type="curve" smooth="yes"/>
      <point x="592" y="206"/>
      <point x="511" y="105"/>
      <point x="391" y="105" type="curve" smooth="yes"/>
      <point x="270" y="105"/>
      <point x="190" y="206"/>
      <point x="190" y="359" type="curve" smooth="yes"/>
      <point x="190" y="512"/>
      <point x="270" y="613"/>
    </contour>
    <contour>
      <point x="340" y="936" type="line"/>
      <point x="232" y="786" type="line"/>
      <point x="308" y="786" type="line"/>
      <point x="390" y="886" type="line"/>
      <point x="472" y="786" type="line"/>
      <point x="550" y="786" type="line"/>
      <point x="447" y="936" type="line"/>
    </contour>
  </outline>
</glyph>
<glyph name="Otilde" format="1">
  <advance width="778"/>
  <unicode hex="00D5"/>
  <outline>
    <contour>
      <point x="390" y="741" type="curve" smooth="yes"/>
      <point x="288" y="741"/>
      <point x="204" y="707"/>
      <point x="142" y="640" type="curve" smooth="yes"/>
      <point x="77" y="570"/>
      <point x="40" y="468"/>
      <point x="40" y="359" type="curve" smooth="yes"/>
      <point x="40" y="250"/>
      <point x="77" y="147"/>
      <point x="142" y="78" type="curve" smooth="yes"/>
      <point x="205" y="10"/>
      <point x="287" y="-23"/>
      <point x="391" y="-23" type="curve" smooth="yes"/>
      <point x="495" y="-23"/>
      <point x="577" y="10"/>
      <point x="640" y="78" type="curve" smooth="yes"/>
      <point x="703" y="145"/>
      <point x="742" y="251"/>
      <point x="742" y="354" type="curve" smooth="yes"/>
      <point x="742" y="468"/>
      <point x="705" y="570"/>
      <point x="640" y="640" type="curve" smooth="yes"/>
      <point x="576" y="709"/>
      <point x="495" y="741"/>
    </contour>
    <contour>
      <point x="391" y="613" type="curve" smooth="yes"/>
      <point x="514" y="613"/>
      <point x="592" y="513"/>
      <point x="592" y="355" type="curve" smooth="yes"/>
      <point x="592" y="206"/>
      <point x="511" y="105"/>
      <point x="391" y="105" type="curve" smooth="yes"/>
      <point x="270" y="105"/>
      <point x="190" y="206"/>
      <point x="190" y="359" type="curve" smooth="yes"/>
      <point x="190" y="512"/>
      <point x="270" y="613"/>
    </contour>
    <contour>
      <point x="512" y="928" type="line"/>
      <point x="509" y="896"/>
      <point x="497" y="880"/>
      <point x="476" y="880" type="curve" smooth="yes"/>
      <point x="469" y="880"/>
      <point x="449" y="884"/>
      <point x="442" y="886" type="curve"/>
      <point x="371" y="911" type="line" smooth="yes"/>
      <point x="339" y="923"/>
      <point x="333" y="924"/>
      <point x="315" y="924" type="curve" smooth="yes"/>
      <point x="260" y="924"/>
      <point x="225" y="878"/>
      <point x="221" y="800" type="curve"/>
      <point x="284" y="800" type="line"/>
      <point x="289" y="832"/>
      <point x="300" y="845"/>
      <point x="324" y="845" type="curve" smooth="yes"/>
      <point x="333" y="845"/>
      <point x="343" y="843"/>
      <point x="354" y="839" type="curve" smooth="yes"/>
      <point x="425" y="813" type="line" smooth="yes"/>
      <point x="445" y="805"/>
      <point x="465" y="801"/>
      <point x="480" y="801" type="curve" smooth="yes"/>
      <point x="539" y="801"/>
      <point x="570" y="843"/>
      <point x="575" y="928" type="curve"/>
    </contour>
  </outline>
</glyph>
<glyph name="Odieresis" format="1">
  <advance width="778"/>
  <unicode hex="00D6"/>
  <outline>
    <contour>
      <point x="390" y="741" type="curve" smooth="yes"/>
      <point x="288" y="741"/>
      <point x="204" y="707"/>
      <point x="142" y="640" type="curve" smooth="yes"/>
      <point x="77" y="570"/>
      <point x="40" y="468"/>
      <point x="40" y="359" type="curve" smooth="yes"/>
      <point x="40" y="250"/>
      <point x="77" y="147"/>
      <point x="142" y="78" type="curve" smooth="yes"/>
      <point x="205" y="10"/>
      <point x="287" y="-23"/>
      <point x="391" y="-23" type="curve" smooth="yes"/>
      <point x="495" y="-23"/>
      <point x="577" y="10"/>
      <point x="640" y="78" type="curve" smooth="yes"/>
      <point x="703" y="145"/>
      <point x="742" y="251"/>
      <point x="742" y="354" type="curve" smooth="yes"/>
      <point x="742" y="468"/>
      <point x="705" y="570"/>
      <point x="640" y="640" type="curve" smooth="yes"/>
      <point x="576" y="709"/>
      <point x="495" y="741"/>
    </contour>
    <contour>
      <point x="391" y="613" type="curve" smooth="yes"/>
      <point x="514" y="613"/>
      <point x="592" y="513"/>
      <point x="592" y="355" type="curve" smooth="yes"/>
      <point x="592" y="206"/>
      <point x="511" y="105"/>
      <point x="391" y="105" type="curve" smooth="yes"/>
      <point x="270" y="105"/>
      <point x="190" y="206"/>
      <point x="190" y="359" type="curve" smooth="yes"/>
      <point x="190" y="512"/>
      <point x="270" y="613"/>
    </contour>
    <contour>
      <point x="353" y="922" type="line"/>
      <point x="243" y="922" type="line"/>
      <point x="243" y="800" type="line"/>
      <point x="353" y="800" type="line"/>
    </contour>
    <contour>
      <point x="539" y="922" type="line"/>
      <point x="429" y="922" type="line"/>
      <point x="429" y="800" type="line"/>
      <point x="539" y="800" type="line"/>
    </contour>
  </outline>
</glyph>
<glyph name="multiply" format="1">
  <advance width="584"/>
  <unicode hex="00D7"/>
  <outline>
    <contour>
      <point x="421" y="444" type="line"/>
      <point x="292" y="315" type="line"/>
      <point x="163" y="444" type="line"/>
      <point x="79" y="359" type="line"/>
      <point x="208" y="231" type="line"/>
      <point x="80" y="103" type="line"/>
      <point x="164" y="19" type="line"/>
      <point x="292" y="147" type="line"/>
      <point x="420" y="18" type="line"/>
      <point x="504" y="102" type="line"/>
      <point x="376" y="231" type="line"/>
      <point x="505" y="360" type="line"/>
    </contour>
  </outline>
</glyph>
<glyph name="Oslash" format="1">
  <advance width="778"/>
  <unicode hex="00D8"/>
  <outline>
    <contour>
      <point x="165" y="52" type="line"/>
      <point x="223" y="2"/>
      <point x="298" y="-23"/>
      <point x="388" y="-23" type="curve" smooth="yes"/>
      <point x="492" y="-23"/>
      <point x="574" y="10"/>
      <point x="637" y="78" type="curve" smooth="yes"/>
      <point x="702" y="146"/>
      <point x="740" y="250"/>
      <point x="740" y="357" type="curve" smooth="yes"/>
      <point x="740" y="449"/>
      <point x="712" y="542"/>
      <point x="666" y="605" type="curve"/>
      <point x="755" y="704" type="line"/>
      <point x="703" y="749" type="line"/>
      <point x="620" y="657" type="line"/>
      <point x="553" y="716"/>
      <point x="483" y="741"/>
      <point x="388" y="741" type="curve" smooth="yes"/>
      <point x="283" y="741"/>
      <point x="201" y="708"/>
      <point x="138" y="640" type="curve" smooth="yes"/>
      <point x="72" y="571"/>
      <point x="35" y="468"/>
      <point x="35" y="359" type="curve" smooth="yes"/>
      <point x="35" y="261"/>
      <point x="62" y="176"/>
      <point x="117" y="102" type="curve"/>
      <point x="31" y="7" type="line"/>
      <point x="82" y="-39" type="line"/>
    </contour>
    <contour>
      <point x="567" y="497" type="line"/>
      <point x="582" y="457"/>
      <point x="590" y="408"/>
      <point x="590" y="361" type="curve" smooth="yes"/>
      <point x="590" y="206"/>
      <point x="510" y="105"/>
      <point x="388" y="105" type="curve" smooth="yes"/>
      <point x="336" y="105"/>
      <point x="287" y="123"/>
      <point x="256" y="153" type="curve"/>
    </contour>
    <contour>
      <point x="214" y="209" type="line"/>
      <point x="195" y="251"/>
      <point x="185" y="301"/>
      <point x="185" y="356" type="curve" smooth="yes"/>
      <point x="185" y="512"/>
      <point x="264" y="613"/>
      <point x="388" y="613" type="curve" smooth="yes"/>
      <point x="444" y="613"/>
      <point x="491" y="594"/>
      <point x="528" y="555" type="curve"/>
    </contour>
  </outline>
</glyph>
<glyph name="Udieresis" format="1">
  <advance width="722"/>
  <unicode hex="00DC"/>
  <outline>
    <contour>
      <point x="504" y="729" type="line"/>
      <point x="504" y="235" type="line" smooth="yes"/>
      <point x="504" y="147"/>
      <point x="459" y="105"/>
      <point x="365" y="105" type="curve" smooth="yes"/>
      <point x="271" y="105"/>
      <point x="226" y="147"/>
      <point x="226" y="235" type="curve" smooth="yes"/>
      <point x="226" y="729" type="line"/>
      <point x="76" y="729" type="line"/>
      <point x="76" y="235" type="line" smooth="yes"/>
      <point x="76" y="153"/>
      <point x="98" y="95"/>
      <point x="147" y="51" type="curve" smooth="yes"/>
      <point x="200" y="3"/>
      <point x="277" y="-23"/>
      <point x="365" y="-23" type="curve" smooth="yes"/>
      <point x="453" y="-23"/>
      <point x="530" y="3"/>
      <point x="583" y="51" type="curve" smooth="yes"/>
      <point x="632" y="95"/>
      <point x="654" y="153"/>
      <point x="654" y="235" type="curve" smooth="yes"/>
      <point x="654" y="729" type="line"/>
    </contour>
    <contour>
      <point x="327" y="922" type="line"/>
      <point x="217" y="922" type="line"/>
      <point x="217" y="800" type="line"/>
      <point x="327" y="800" type="line"/>
    </contour>
    <contour>
      <point x="513" y="922" type="line"/>
      <point x="403" y="922" type="line"/>
      <point x="403" y="800" type="line"/>
      <point x="513" y="800" type="line"/>
    </contour>
  </outline>
</glyph>
<glyph name="Yacute" format="1">
  <advance width="667"/>
  <unicode hex="00DD"/>
  <outline>
    <contour>
      <point x="419" y="270" type="line"/>
      <point x="650" y="729" type="line"/>
      <point x="482" y="729" type="line"/>
      <point x="343" y="407" type="line"/>
      <point x="194" y="729" type="line"/>
      <point x="27" y="729" type="line"/>
      <point x="269" y="270" type="line"/>
      <point x="269" y="0" type="line"/>
      <point x="419" y="0" type="line"/>
    </contour>
    <contour>
      <point x="480" y="936" type="line"/>
      <point x="354" y="936" type="line"/>
      <point x="284" y="786" type="line"/>
      <point x="354" y="786" type="line"/>
    </contour>
  </outline>
</glyph>
<glyph name="Thorn" format="1">
  <advance width="667"/>
  <unicode hex="00DE"/>
  <outline>
    <contour>
      <point x="226" y="140" type="line"/>
      <point x="413" y="140" type="line" smooth="yes"/>
      <point x="548" y="140"/>
      <point x="633" y="233"/>
      <point x="633" y="382" type="curve" smooth="yes"/>
      <point x="633" y="456"/>
      <point x="613" y="512"/>
      <point x="571" y="553" type="curve" smooth="yes"/>
      <point x="531" y="592"/>
      <point x="480" y="609"/>
      <point x="398" y="609" type="curve" smooth="yes"/>
      <point x="226" y="609" type="line"/>
      <point x="226" y="729" type="line"/>
      <point x="76" y="729" type="line"/>
      <point x="76" y="0" type="line"/>
      <point x="226" y="0" type="line"/>
    </contour>
    <contour>
      <point x="226" y="265" type="line"/>
      <point x="226" y="484" type="line"/>
      <point x="366" y="484" type="line" smooth="yes"/>
      <point x="446" y="484"/>
      <point x="483" y="449"/>
      <point x="483" y="374" type="curve" smooth="yes"/>
      <point x="483" y="300"/>
      <point x="446" y="265"/>
      <point x="366" y="265" type="curve" smooth="yes"/>
    </contour>
  </outline>
</glyph>
<glyph name="germandbls" format="1">
  <advance width="611"/>
  <unicode hex="00DF"/>
  <outline>
    <contour>
      <point x="285" y="349" type="line"/>
      <point x="298" y="349" type="line" smooth="yes"/>
      <point x="383" y="349"/>
      <point x="435" y="302"/>
      <point x="435" y="226" type="curve" smooth="yes"/>
      <point x="435" y="155"/>
      <point x="387" y="104"/>
      <point x="318" y="103" type="curve" smooth="yes"/>
      <point x="298" y="102" type="line" smooth="yes"/>
      <point x="296" y="102"/>
      <point x="291" y="102"/>
      <point x="285" y="101" type="curve"/>
      <point x="285" y="-11" type="line"/>
      <point x="318" y="-15"/>
      <point x="335" y="-17"/>
      <point x="357" y="-17" type="curve" smooth="yes"/>
      <point x="488" y="-17"/>
      <point x="575" y="84"/>
      <point x="575" y="236" type="curve" smooth="yes"/>
      <point x="575" y="298"/>
      <point x="560" y="336"/>
      <point x="524" y="371" type="curve" smooth="yes"/>
      <point x="499" y="394"/>
      <point x="479" y="404"/>
      <point x="445" y="411" type="curve"/>
      <point x="502" y="433"/>
      <point x="532" y="480"/>
      <point x="532" y="547" type="curve" smooth="yes"/>
      <point x="532" y="654"/>
      <point x="438" y="729"/>
      <point x="303" y="729" type="curve" smooth="yes"/>
      <point x="234" y="729"/>
      <point x="167" y="710"/>
      <point x="128" y="679" type="curve" smooth="yes"/>
      <point x="85" y="645"/>
      <point x="67" y="596"/>
      <point x="67" y="518" type="curve" smooth="yes"/>
      <point x="67" y="0" type="line"/>
      <point x="207" y="0" type="line"/>
      <point x="207" y="537" type="line" smooth="yes"/>
      <point x="207" y="587"/>
      <point x="239" y="616"/>
      <point x="294" y="616" type="curve" smooth="yes"/>
      <point x="355" y="616"/>
      <point x="392" y="585"/>
      <point x="392" y="533" type="curve" smooth="yes"/>
      <point x="392" y="479"/>
      <point x="354" y="445"/>
      <point x="294" y="444" type="curve" smooth="yes"/>
      <point x="285" y="444" type="line"/>
    </contour>
  </outline>
</glyph>
<glyph name="agrave" format="1">
  <advance width="556"/>
  <unicode hex="00E0"/>
  <outline>
    <contour>
      <point x="524" y="17" type="line"/>
      <point x="499" y="40"/>
      <point x="492" y="55"/>
      <point x="492" y="83" type="curve" smooth="yes"/>
      <point x="492" y="383" type="line" smooth="yes"/>
      <point x="492" y="493"/>
      <point x="417" y="549"/>
      <point x="271" y="549" type="curve" smooth="yes"/>
      <point x="125" y="549"/>
      <point x="49" y="487"/>
      <point x="40" y="362" type="curve"/>
      <point x="175" y="362" type="line"/>
      <point x="182" y="418"/>
      <point x="205" y="436"/>
      <point x="274" y="436" type="curve" smooth="yes"/>
      <point x="328" y="436"/>
      <point x="355" y="418"/>
      <point x="355" y="382" type="curve" smooth="yes"/>
      <point x="355" y="364"/>
      <point x="346" y="348"/>
      <point x="331" y="340" type="curve" smooth="yes"/>
      <point x="312" y="330"/>
      <point x="312" y="330"/>
      <point x="243" y="319" type="curve" smooth="yes"/>
      <point x="187" y="309" type="line" smooth="yes"/>
      <point x="80" y="291"/>
      <point x="28" y="236"/>
      <point x="28" y="139" type="curve" smooth="yes"/>
      <point x="28" y="93"/>
      <point x="41" y="55"/>
      <point x="66" y="28" type="curve" smooth="yes"/>
      <point x="97" y="-4"/>
      <point x="144" y="-23"/>
      <point x="192" y="-23" type="curve" smooth="yes"/>
      <point x="252" y="-23"/>
      <point x="307" y="3"/>
      <point x="356" y="54" type="curve"/>
      <point x="356" y="26"/>
      <point x="359" y="16"/>
      <point x="372" y="0" type="curve"/>
      <point x="524" y="0" type="line"/>
    </contour>
    <contour>
      <point x="355" y="217" type="line" smooth="yes"/>
      <point x="355" y="136"/>
      <point x="315" y="90"/>
      <point x="244" y="90" type="curve" smooth="yes"/>
      <point x="197" y="90"/>
      <point x="168" y="115"/>
      <point x="168" y="155" type="curve" smooth="yes"/>
      <point x="168" y="197"/>
      <point x="190" y="217"/>
      <point x="248" y="229" type="curve" smooth="yes"/>
      <point x="296" y="238" type="line" smooth="yes"/>
      <point x="333" y="245"/>
      <point x="339" y="247"/>
      <point x="355" y="255" type="curve"/>
    </contour>
    <contour>
      <point x="132" y="757" type="line"/>
      <point x="258" y="607" type="line"/>
      <point x="328" y="607" type="line"/>
      <point x="258" y="757" type="line"/>
    </contour>
  </outline>
</glyph>
<glyph name="ccedilla" format="1">
  <advance width="556"/>
  <unicode hex="00E7"/>
  <outline>
    <contour>
      <point x="291" y="-23" type="line"/>
      <point x="416" y="-24"/>
      <point x="511" y="62"/>
      <point x="522" y="187" type="curve"/>
      <point x="388" y="187" type="line"/>
      <point x="371" y="118"/>
      <point x="342" y="90"/>
      <point x="289" y="90" type="curve" smooth="yes"/>
      <point x="259" y="90"/>
      <point x="228" y="103"/>
      <point x="212" y="123" type="curve" smooth="yes"/>
      <point x="189" y="151"/>
      <point x="174" y="203"/>
      <point x="174" y="260" type="curve" smooth="yes"/>
      <point x="174" y="310"/>
      <point x="184" y="358"/>
      <point x="201" y="390" type="curve" smooth="yes"/>
      <point x="217" y="420"/>
      <point x="248" y="436"/>
      <point x="288" y="436" type="curve" smooth="yes"/>
      <point x="345" y="436"/>
      <point x="372" y="409"/>
      <point x="388" y="338" type="curve"/>
      <point x="522" y="338" type="line"/>
      <point x="512" y="470"/>
      <point x="424" y="549"/>
      <point x="289" y="549" type="curve" smooth="yes"/>
      <point x="128" y="549"/>
      <point x="34" y="443"/>
      <point x="34" y="259" type="curve" smooth="yes"/>
      <point x="34" y="96"/>
      <point x="110" y="-3"/>
      <point x="248" y="-21" type="curve"/>
      <point x="205" y="-106" type="line"/>
      <point x="224" y="-97"/>
      <point x="235" y="-94"/>
      <point x="255" y="-94" type="curve" smooth="yes"/>
      <point x="286" y="-94"/>
      <point x="306" y="-108"/>
      <point x="306" y="-129" type="curve" smooth="yes"/>
      <point x="306" y="-152"/>
      <point x="280" y="-170"/>
      <point x="248" y="-170" type="curve" smooth="yes"/>
      <point x="221" y="-170"/>
      <point x="195" y="-163"/>
      <point x="144" y="-140" type="curve"/>
      <point x="125" y="-192" type="line"/>
      <point x="185" y="-213"/>
      <point x="219" y="-220"/>
      <point x="263" y="-220" type="curve" smooth="yes"/>
      <point x="346" y="-220"/>
      <point x="392" y="-187"/>
      <point x="392" y="-127" type="curve" smooth="yes"/>
      <point x="392" y="-83"/>
      <point x="363" y="-56"/>
      <point x="315" y="-56" type="curve" smooth="yes"/>
      <point x="300" y="-56"/>
      <point x="287" y="-58"/>
      <point x="274" y="-63" type="curve"/>
    </contour>
  </outline>
</glyph>
<glyph name="egrave" format="1">
  <advance width="556"/>
  <unicode hex="00E8"/>
  <outline>
    <contour>
      <point x="524" y="226" type="line"/>
      <point x="525" y="238"/>
      <point x="525" y="243"/>
      <point x="525" y="250" type="curve" smooth="yes"/>
      <point x="525" y="304"/>
      <point x="517" y="354"/>
      <point x="504" y="392" type="curve" smooth="yes"/>
      <point x="468" y="490"/>
      <point x="381" y="549"/>
      <point x="272" y="549" type="curve" smooth="yes"/>
      <point x="117" y="549"/>
      <point x="22" y="437"/>
      <point x="22" y="256" type="curve" smooth="yes"/>
      <point x="22" y="83"/>
      <point x="116" y="-23"/>
      <point x="269" y="-23" type="curve" smooth="yes"/>
      <point x="390" y="-23"/>
      <point x="488" y="46"/>
      <point x="519" y="152" type="curve"/>
      <point x="381" y="152" type="line"/>
      <point x="364" y="109"/>
      <point x="325" y="84"/>
      <point x="274" y="84" type="curve" smooth="yes"/>
      <point x="234" y="84"/>
      <point x="202" y="101"/>
      <point x="182" y="131" type="curve" smooth="yes"/>
      <point x="169" y="151"/>
      <point x="164" y="175"/>
      <point x="162" y="226" type="curve"/>
    </contour>
    <contour>
      <point x="164" y="319" type="line"/>
      <point x="173" y="401"/>
      <point x="208" y="442"/>
      <point x="270" y="442" type="curve" smooth="yes"/>
      <point x="305" y="442"/>
      <point x="337" y="425"/>
      <point x="357" y="397" type="curve" smooth="yes"/>
      <point x="370" y="377"/>
      <point x="376" y="356"/>
      <point x="379" y="319" type="curve"/>
    </contour>
    <contour>
      <point x="133" y="757" type="line"/>
      <point x="259" y="607" type="line"/>
      <point x="329" y="607" type="line"/>
      <point x="259" y="757" type="line"/>
    </contour>
  </outline>
</glyph>
<glyph name="igrave" format="1">
  <advance width="278"/>
  <unicode hex="00EC"/>
  <outline>
    <contour>
      <point x="207" y="540" type="line"/>
      <point x="67" y="540" type="line"/>
      <point x="67" y="0" type="line"/>
      <point x="207" y="0" type="line"/>
    </contour>
    <contour>
      <point x="-10" y="757" type="line"/>
      <point x="116" y="607" type="line"/>
      <point x="186" y="607" type="line"/>
      <point x="116" y="757" type="line"/>
    </contour>
  </outline>
</glyph>
<glyph name="icircumflex" format="1">
  <advance width="278"/>
  <unicode hex="00EE"/>
  <outline>
    <contour>
      <point x="207" y="540" type="line"/>
      <point x="67" y="540" type="line"/>
      <point x="67" y="0" type="line"/>
      <point x="207" y="0" type="line"/>
    </contour>
    <contour>
      <point x="89" y="757" type="line"/>
      <point x="-19" y="607" type="line"/>
      <point x="57" y="607" type="line"/>
      <point x="139" y="707" type="line"/>
      <point x="221" y="607" type="line"/>
      <point x="299" y="607" type="line"/>
      <point x="196" y="757" type="line"/>
    </contour>
  </outline>
</glyph>
<glyph name="idieresis" format="1">
  <advance width="278"/>
  <unicode hex="00EF"/>
  <outline>
    <contour>
      <point x="207" y="540" type="line"/>
      <point x="67" y="540" type="line"/>
      <point x="67" y="0" type="line"/>
      <point x="207" y="0" type="line"/>
    </contour>
    <contour>
      <point x="101" y="743" type="line"/>
      <point x="-9" y="743" type="line"/>
      <point x="-9" y="621" type="line"/>
      <point x="101" y="621" type="line"/>
    </contour>
    <contour>
      <point x="287" y="743" type="line"/>
      <point x="177" y="743" type="line"/>
      <point x="177" y="621" type="line"/>
      <point x="287" y="621" type="line"/>
    </contour>
  </outline>
</glyph>
<glyph name="eth" format="1">
  <advance width="611"/>
  <unicode hex="00F0"/>
  <outline>
    <contour>
      <point x="432" y="710" type="line"/>
      <point x="381" y="744" type="line"/>
      <point x="294" y="692" type="line"/>
      <point x="286" y="695"/>
      <point x="280" y="698"/>
      <point x="279" y="699" type="curve"/>
      <point x="232" y="725"/>
      <point x="229" y="727"/>
      <point x="192" y="741" type="curve"/>
      <point x="125" y="694" type="line"/>
      <point x="174" y="670"/>
      <point x="188" y="662"/>
      <point x="215" y="646" type="curve"/>
      <point x="145" y="602" type="line"/>
      <point x="187" y="565" type="line"/>
      <point x="264" y="611" type="line"/>
      <point x="302" y="589"/>
      <point x="332" y="558"/>
      <point x="359" y="515" type="curve"/>
      <point x="320" y="530"/>
      <point x="300" y="534"/>
      <point x="274" y="534" type="curve" smooth="yes"/>
      <point x="231" y="534"/>
      <point x="187" y="521"/>
      <point x="148" y="497" type="curve" smooth="yes"/>
      <point x="72" y="452"/>
      <point x="35" y="375"/>
      <point x="35" y="265" type="curve" smooth="yes"/>
      <point x="35" y="85"/>
      <point x="135" y="-23"/>
      <point x="302" y="-23" type="curve" smooth="yes"/>
      <point x="470" y="-23"/>
      <point x="569" y="85"/>
      <point x="569" y="269" type="curve" smooth="yes"/>
      <point x="569" y="435"/>
      <point x="499" y="558"/>
      <point x="348" y="660" type="curve"/>
    </contour>
    <contour>
      <point x="302" y="429" type="curve" smooth="yes"/>
      <point x="379" y="429"/>
      <point x="428" y="362"/>
      <point x="428" y="257" type="curve" smooth="yes"/>
      <point x="428" y="157"/>
      <point x="378" y="90"/>
      <point x="302" y="90" type="curve" smooth="yes"/>
      <point x="226" y="90"/>
      <point x="176" y="157"/>
      <point x="176" y="260" type="curve" smooth="yes"/>
      <point x="176" y="362"/>
      <point x="226" y="429"/>
    </contour>
  </outline>
</glyph>
<glyph name="ntilde" format="1">
  <advance width="611"/>
  <unicode hex="00F1"/>
  <outline>
    <contour>
      <point x="63" y="540" type="line"/>
      <point x="63" y="0" type="line"/>
      <point x="203" y="0" type="line"/>
      <point x="203" y="324" type="line" smooth="yes"/>
      <point x="203" y="388"/>
      <point x="248" y="430"/>
      <point x="316" y="430" type="curve" smooth="yes"/>
      <point x="376" y="430"/>
      <point x="406" y="397"/>
      <point x="406" y="333" type="curve" smooth="yes"/>
      <point x="406" y="0" type="line"/>
      <point x="546" y="0" type="line"/>
      <point x="546" y="362" type="line" smooth="yes"/>
      <point x="546" y="481"/>
      <point x="480" y="549"/>
      <point x="365" y="549" type="curve" smooth="yes"/>
      <point x="292" y="549"/>
      <point x="243" y="522"/>
      <point x="203" y="462" type="curve"/>
      <point x="203" y="540" type="line"/>
    </contour>
    <contour>
      <point x="415" y="749" type="line"/>
      <point x="412" y="717"/>
      <point x="400" y="701"/>
      <point x="379" y="701" type="curve" smooth="yes"/>
      <point x="372" y="701"/>
      <point x="352" y="704"/>
      <point x="345" y="707" type="curve"/>
      <point x="274" y="732" type="line" smooth="yes"/>
      <point x="238" y="745"/>
      <point x="237" y="745"/>
      <point x="218" y="745" type="curve" smooth="yes"/>
      <point x="163" y="745"/>
      <point x="128" y="699"/>
      <point x="124" y="621" type="curve"/>
      <point x="187" y="621" type="line"/>
      <point x="192" y="653"/>
      <point x="203" y="666"/>
      <point x="227" y="666" type="curve" smooth="yes"/>
      <point x="236" y="666"/>
      <point x="245" y="664"/>
      <point x="257" y="660" type="curve" smooth="yes"/>
      <point x="328" y="634" type="line" smooth="yes"/>
      <point x="349" y="626"/>
      <point x="368" y="622"/>
      <point x="383" y="622" type="curve" smooth="yes"/>
      <point x="442" y="622"/>
      <point x="474" y="664"/>
      <point x="478" y="749" type="curve"/>
    </contour>
  </outline>
</glyph>
<glyph name="ocircumflex" format="1">
  <advance width="611"/>
  <unicode hex="00F4"/>
  <outline>
    <contour>
      <point x="301" y="549" type="curve" smooth="yes"/>
      <point x="136" y="549"/>
      <point x="35" y="440"/>
      <point x="35" y="263" type="curve" smooth="yes"/>
      <point x="35" y="85"/>
      <point x="136" y="-23"/>
      <point x="302" y="-23" type="curve" smooth="yes"/>
      <point x="466" y="-23"/>
      <point x="569" y="86"/>
      <point x="569" y="259" type="curve" smooth="yes"/>
      <point x="569" y="442"/>
      <point x="470" y="549"/>
    </contour>
    <contour>
      <point x="302" y="436" type="curve" smooth="yes"/>
      <point x="379" y="436"/>
      <point x="429" y="367"/>
      <point x="429" y="261" type="curve" smooth="yes"/>
      <point x="429" y="160"/>
      <point x="377" y="90"/>
      <point x="302" y="90" type="curve" smooth="yes"/>
      <point x="226" y="90"/>
      <point x="175" y="160"/>
      <point x="175" y="263" type="curve" smooth="yes"/>
      <point x="175" y="366"/>
      <point x="226" y="436"/>
    </contour>
    <contour>
      <point x="251" y="757" type="line"/>
      <point x="143" y="607" type="line"/>
      <point x="219" y="607" type="line"/>
      <point x="301" y="707" type="line"/>
      <point x="383" y="607" type="line"/>
      <point x="461" y="607" type="line"/>
      <point x="358" y="757" type="line"/>
    </contour>
  </outline>
</glyph>
<glyph name="otilde" format="1">
  <advance width="611"/>
  <unicode hex="00F5"/>
  <outline>
    <contour>
      <point x="301" y="549" type="curve" smooth="yes"/>
      <point x="136" y="549"/>
      <point x="35" y="440"/>
      <point x="35" y="263" type="curve" smooth="yes"/>
      <point x="35" y="85"/>
      <point x="136" y="-23"/>
      <point x="302" y="-23" type="curve" smooth="yes"/>
      <point x="466" y="-23"/>
      <point x="569" y="86"/>
      <point x="569" y="259" type="curve" smooth="yes"/>
      <point x="569" y="442"/>
      <point x="470" y="549"/>
    </contour>
    <contour>
      <point x="302" y="436" type="curve" smooth="yes"/>
      <point x="379" y="436"/>
      <point x="429" y="367"/>
      <point x="429" y="261" type="curve" smooth="yes"/>
      <point x="429" y="160"/>
      <point x="377" y="90"/>
      <point x="302" y="90" type="curve" smooth="yes"/>
      <point x="226" y="90"/>
      <point x="175" y="160"/>
      <point x="175" y="263" type="curve" smooth="yes"/>
      <point x="175" y="366"/>
      <point x="226" y="436"/>
    </contour>
    <contour>
      <point x="419" y="749" type="line"/>
      <point x="416" y="717"/>
      <point x="404" y="701"/>
      <point x="383" y="701" type="curve" smooth="yes"/>
      <point x="376" y="701"/>
      <point x="356" y="704"/>
      <point x="349" y="707" type="curve"/>
      <point x="278" y="732" type="line" smooth="yes"/>
      <point x="242" y="745"/>
      <point x="241" y="745"/>
      <point x="222" y="745" type="curve" smooth="yes"/>
      <point x="167" y="745"/>
      <point x="132" y="699"/>
      <point x="128" y="621" type="curve"/>
      <point x="191" y="621" type="line"/>
      <point x="196" y="653"/>
      <point x="207" y="666"/>
      <point x="231" y="666" type="curve" smooth="yes"/>
      <point x="240" y="666"/>
      <point x="249" y="664"/>
      <point x="261" y="660" type="curve" smooth="yes"/>
      <point x="332" y="634" type="line" smooth="yes"/>
      <point x="353" y="626"/>
      <point x="372" y="622"/>
      <point x="387" y="622" type="curve" smooth="yes"/>
      <point x="446" y="622"/>
      <point x="478" y="664"/>
      <point x="482" y="749" type="curve"/>
    </contour>
  </outline>
</glyph>
<glyph name="odieresis" format="1">
  <advance width="611"/>
  <unicode hex="00F6"/>
  <outline>
    <contour>
      <point x="301" y="549" type="curve" smooth="yes"/>
      <point x="136" y="549"/>
      <point x="35" y="440"/>
      <point x="35" y="263" type="curve" smooth="yes"/>
      <point x="35" y="85"/>
      <point x="136" y="-23"/>
      <point x="302" y="-23" type="curve" smooth="yes"/>
      <point x="466" y="-23"/>
      <point x="569" y="86"/>
      <point x="569" y="259" type="curve" smooth="yes"/>
      <point x="569" y="442"/>
      <point x="470" y="549"/>
    </contour>
    <contour>
      <point x="302" y="436" type="curve" smooth="yes"/>
      <point x="379" y="436"/>
      <point x="429" y="367"/>
      <point x="429" y="261" type="curve" smooth="yes"/>
      <point x="429" y="160"/>
      <point x="377" y="90"/>
      <point x="302" y="90" type="curve" smooth="yes"/>
      <point x="226" y="90"/>
      <point x="175" y="160"/>
      <point x="175" y="263" type="curve" smooth="yes"/>
      <point x="175" y="366"/>
      <point x="226" y="436"/>
    </contour>
    <contour>
      <point x="264" y="743" type="line"/>
      <point x="154" y="743" type="line"/>
      <point x="154" y="621" type="line"/>
      <point x="264" y="621" type="line"/>
    </contour>
    <contour>
      <point x="450" y="743" type="line"/>
      <point x="340" y="743" type="line"/>
      <point x="340" y="621" type="line"/>
      <point x="450" y="621" type="line"/>
    </contour>
  </outline>
</glyph>
<glyph name="divide" format="1">
  <advance width="584"/>
  <unicode hex="00F7"/>
  <outline>
    <contour>
      <point x="534" y="291" type="line"/>
      <point x="50" y="291" type="line"/>
      <point x="50" y="172" type="line"/>
      <point x="534" y="172" type="line"/>
    </contour>
    <contour>
      <point x="230" y="474" type="line"/>
      <point x="230" y="351" type="line"/>
      <point x="354" y="351" type="line"/>
      <point x="354" y="474" type="line"/>
    </contour>
    <contour>
      <point x="230" y="112" type="line"/>
      <point x="230" y="-11" type="line"/>
      <point x="354" y="-11" type="line"/>
      <point x="354" y="112" type="line"/>
    </contour>
  </outline>
</glyph>
<glyph name="oslash" format="1">
  <advance width="611"/>
  <unicode hex="00F8"/>
  <outline>
    <contour>
      <point x="126" y="35" type="line"/>
      <point x="166" y="-1"/>
      <point x="235" y="-23"/>
      <point x="306" y="-23" type="curve" smooth="yes"/>
      <point x="471" y="-23"/>
      <point x="573" y="86"/>
      <point x="573" y="263" type="curve" smooth="yes"/>
      <point x="573" y="335"/>
      <point x="558" y="393"/>
      <point x="526" y="443" type="curve"/>
      <point x="598" y="516" type="line"/>
      <point x="555" y="557" type="line"/>
      <point x="487" y="487" type="line"/>
      <point x="436" y="529"/>
      <point x="378" y="549"/>
      <point x="305" y="549" type="curve" smooth="yes"/>
      <point x="138" y="549"/>
      <point x="36" y="441"/>
      <point x="36" y="263" type="curve" smooth="yes"/>
      <point x="36" y="188"/>
      <point x="52" y="128"/>
      <point x="86" y="79" type="curve"/>
      <point x="11" y="2" type="line"/>
      <point x="54" y="-38" type="line"/>
    </contour>
    <contour>
      <point x="421" y="336" type="line"/>
      <point x="429" y="312"/>
      <point x="433" y="287"/>
      <point x="433" y="260" type="curve" smooth="yes"/>
      <point x="433" y="161"/>
      <point x="380" y="90"/>
      <point x="306" y="90" type="curve" smooth="yes"/>
      <point x="273" y="90"/>
      <point x="244" y="104"/>
      <point x="220" y="132" type="curve"/>
    </contour>
    <contour>
      <point x="190" y="184" type="line"/>
      <point x="181" y="207"/>
      <point x="176" y="236"/>
      <point x="176" y="266" type="curve" smooth="yes"/>
      <point x="176" y="366"/>
      <point x="228" y="437"/>
      <point x="303" y="437" type="curve" smooth="yes"/>
      <point x="338" y="437"/>
      <point x="364" y="424"/>
      <point x="392" y="390" type="curve"/>
    </contour>
  </outline>
</glyph>
<glyph name="uacute" format="1">
  <advance width="611"/>
  <unicode hex="00FA"/>
  <outline>
    <contour>
      <point x="541" y="0" type="line"/>
      <point x="541" y="540" type="line"/>
      <point x="401" y="540" type="line"/>
      <point x="401" y="202" type="line" smooth="yes"/>
      <point x="401" y="138"/>
      <point x="356" y="96"/>
      <point x="288" y="96" type="curve" smooth="yes"/>
      <point x="228" y="96"/>
      <point x="198" y="128"/>
      <point x="198" y="193" type="curve" smooth="yes"/>
      <point x="198" y="540" type="line"/>
      <point x="58" y="540" type="line"/>
      <point x="58" y="164" type="line" smooth="yes"/>
      <point x="58" y="45"/>
      <point x="124" y="-23"/>
      <point x="239" y="-23" type="curve" smooth="yes"/>
      <point x="312" y="-23"/>
      <point x="361" y="4"/>
      <point x="401" y="64" type="curve"/>
      <point x="401" y="0" type="line"/>
    </contour>
    <contour>
      <point x="438" y="757" type="line"/>
      <point x="312" y="757" type="line"/>
      <point x="242" y="607" type="line"/>
      <point x="312" y="607" type="line"/>
    </contour>
  </outline>
</glyph>
<glyph name="yacute" format="1">
  <advance width="556"/>
  <unicode hex="00FD"/>
  <outline>
    <contour>
      <point x="394" y="540" type="line"/>
      <point x="282" y="147" type="line"/>
      <point x="163" y="540" type="line"/>
      <point x="9" y="540" type="line"/>
      <point x="210" y="-22" type="line"/>
      <point x="210" y="-23" type="line"/>
      <point x="210" y="-26" type="line" smooth="yes"/>
      <point x="210" y="-77"/>
      <point x="172" y="-116"/>
      <point x="123" y="-116" type="curve" smooth="yes"/>
      <point x="112" y="-116"/>
      <point x="104" y="-115"/>
      <point x="86" y="-110" type="curve"/>
      <point x="86" y="-215" type="line"/>
      <point x="107" y="-218"/>
      <point x="119" y="-219"/>
      <point x="136" y="-219" type="curve" smooth="yes"/>
      <point x="171" y="-219"/>
      <point x="213" y="-212"/>
      <point x="237" y="-202" type="curve" smooth="yes"/>
      <point x="276" y="-186"/>
      <point x="293" y="-163"/>
      <point x="316" y="-99" type="curve" smooth="yes"/>
      <point x="538" y="540" type="line"/>
    </contour>
    <contour>
      <point x="412" y="757" type="line"/>
      <point x="286" y="757" type="line"/>
      <point x="216" y="607" type="line"/>
      <point x="286" y="607" type="line"/>
    </contour>
  </outline>
</glyph>
<glyph name="thorn" format="1">
  <advance width="611"/>
  <unicode hex="00FE"/>
  <outline>
    <contour>
      <point x="198" y="729" type="line"/>
      <point x="58" y="729" type="line"/>
      <point x="58" y="-218" type="line"/>
      <point x="198" y="-218" type="line"/>
      <point x="198" y="64" type="line"/>
      <point x="232" y="5"/>
      <point x="280" y="-23"/>
      <point x="348" y="-23" type="curve" smooth="yes"/>
      <point x="478" y="-23"/>
      <point x="574" y="99"/>
      <point x="574" y="262" type="curve" smooth="yes"/>
      <point x="574" y="427"/>
      <point x="478" y="549"/>
      <point x="348" y="549" type="curve" smooth="yes"/>
      <point x="280" y="549"/>
      <point x="232" y="520"/>
      <point x="198" y="460" type="curve"/>
    </contour>
    <contour>
      <point x="316" y="432" type="curve" smooth="yes"/>
      <point x="387" y="432"/>
      <point x="434" y="363"/>
      <point x="434" y="260" type="curve" smooth="yes"/>
      <point x="434" y="162"/>
      <point x="385" y="94"/>
      <point x="316" y="94" type="curve" smooth="yes"/>
      <point x="246" y="94"/>
      <point x="198" y="162"/>
      <point x="198" y="262" type="curve" smooth="yes"/>
      <point x="198" y="363"/>
      <point x="246" y="432"/>
    </contour>
  </outline>
</glyph>
<glyph name="ydieresis" format="1">
  <advance width="556"/>
  <unicode hex="00FF"/>
  <outline>
    <contour>
      <point x="394" y="540" type="line"/>
      <point x="282" y="147" type="line"/>
      <point x="163" y="540" type="line"/>
      <point x="9" y="540" type="line"/>
      <point x="210" y="-22" type="line"/>
      <point x="210" y="-23" type="line"/>
      <point x="210" y="-26" type="line" smooth="yes"/>
      <point x="210" y="-77"/>
      <point x="172" y="-116"/>
      <point x="123" y="-116" type="curve" smooth="yes"/>
      <point x="112" y="-116"/>
      <point x="104" y="-115"/>
      <point x="86" y="-110" type="curve"/>
      <point x="86" y="-215" type="line"/>
      <point x="107" y="-218"/>
      <point x="119" y="-219"/>
      <point x="136" y="-219" type="curve" smooth="yes"/>
      <point x="171" y="-219"/>
      <point x="213" y="-212"/>
      <point x="237" y="-202" type="curve" smooth="yes"/>
      <point x="276" y="-186"/>
      <point x="293" y="-163"/>
      <point x="316" y="-99" type="curve" smooth="yes"/>
      <point x="538" y="540" type="line"/>
    </contour>
    <contour>
      <point x="235" y="743" type="line"/>
      <point x="125" y="743" type="line"/>
      <point x="125" y="621" type="line"/>
      <point x="235" y="621" type="line"/>
    </contour>
    <contour>
      <point x="421" y="743" type="line"/>
      <point x="311" y="743" type="line"/>
      <point x="311" y="621" type="line"/>
      <point x="421" y="621" type="line"/>
    </contour>
  </outline>
</glyph>
<glyph name="Abreve" format="1">
  <advance width="722"/>
  <unicode hex="0102"/>
  <outline>
    <contour>
      <point x="501" y="147" type="line"/>
      <point x="549" y="0" type="line"/>
      <point x="703" y="0" type="line"/>
      <point x="451" y="729" type="line"/>
      <point x="285" y="729" type="line"/>
      <point x="26" y="0" type="line"/>
      <point x="179" y="0" type="line"/>
      <point x="228" y="147" type="line"/>
    </contour>
    <contour>
      <point x="460" y="272" type="line"/>
      <point x="270" y="272" type="line"/>
      <point x="365" y="557" type="line"/>
    </contour>
    <contour>
      <point x="493" y="927" type="line"/>
      <point x="437" y="927" type="line"/>
      <point x="428" y="881"/>
      <point x="406" y="861"/>
      <point x="362" y="861" type="curve" smooth="yes"/>
      <point x="316" y="861"/>
      <point x="291" y="883"/>
      <point x="285" y="927" type="curve"/>
      <point x="229" y="927" type="line"/>
      <point x="229" y="917" type="line" smooth="yes"/>
      <point x="229" y="841"/>
      <point x="286" y="784"/>
      <point x="361" y="784" type="curve" smooth="yes"/>
      <point x="436" y="784"/>
      <point x="493" y="841"/>
      <point x="493" y="916" type="curve" smooth="yes"/>
    </contour>
  </outline>
</glyph>
<glyph name="Aogonek" format="1">
  <advance width="722"/>
  <unicode hex="0104"/>
  <outline>
    <contour>
      <point x="501" y="147" type="line"/>
      <point x="549" y="0" type="line"/>
      <point x="624" y="0" type="line"/>
      <point x="546" y="-28"/>
      <point x="500" y="-79"/>
      <point x="500" y="-138" type="curve" smooth="yes"/>
      <point x="500" y="-198"/>
      <point x="554" y="-233"/>
      <point x="648" y="-233" type="curve" smooth="yes"/>
      <point x="675" y="-233"/>
      <point x="695" y="-231"/>
      <point x="723" y="-224" type="curve"/>
      <point x="723" y="-177" type="line"/>
      <point x="705" y="-180"/>
      <point x="685" y="-182"/>
      <point x="666" y="-182" type="curve" smooth="yes"/>
      <point x="614" y="-182"/>
      <point x="590" y="-165"/>
      <point x="590" y="-129" type="curve" smooth="yes"/>
      <point x="590" y="-80"/>
      <point x="634" y="-30"/>
      <point x="703" y="0" type="curve"/>
      <point x="452" y="729" type="line"/>
      <point x="285" y="729" type="line"/>
      <point x="26" y="0" type="line"/>
      <point x="179" y="0" type="line"/>
      <point x="228" y="147" type="line"/>
    </contour>
    <contour>
      <point x="461" y="272" type="line"/>
      <point x="270" y="272" type="line"/>
      <point x="366" y="557" type="line"/>
    </contour>
  </outline>
</glyph>
<glyph name="Ccaron" format="1">
  <advance width="722"/>
  <unicode hex="010C"/>
  <outline>
    <contour>
      <point x="682" y="482" type="line"/>
      <point x="677" y="545"/>
      <point x="664" y="585"/>
      <point x="633" y="626" type="curve" smooth="yes"/>
      <point x="577" y="700"/>
      <point x="487" y="741"/>
      <point x="378" y="741" type="curve" smooth="yes"/>
      <point x="172" y="741"/>
      <point x="44" y="594"/>
      <point x="44" y="358" type="curve" smooth="yes"/>
      <point x="44" y="124"/>
      <point x="171" y="-23"/>
      <point x="374" y="-23" type="curve" smooth="yes"/>
      <point x="555" y="-23"/>
      <point x="676" y="82"/>
      <point x="685" y="249" type="curve"/>
      <point x="539" y="249" type="line"/>
      <point x="530" y="156"/>
      <point x="471" y="103"/>
      <point x="378" y="103" type="curve" smooth="yes"/>
      <point x="262" y="103"/>
      <point x="194" y="197"/>
      <point x="194" y="356" type="curve" smooth="yes"/>
      <point x="194" y="517"/>
      <point x="265" y="613"/>
      <point x="383" y="613" type="curve" smooth="yes"/>
      <point x="435" y="613"/>
      <point x="478" y="595"/>
      <point x="506" y="560" type="curve" smooth="yes"/>
      <point x="522" y="540"/>
      <point x="530" y="521"/>
      <point x="539" y="482" type="curve"/>
    </contour>
    <contour>
      <point x="427" y="786" type="line"/>
      <point x="535" y="936" type="line"/>
      <point x="459" y="936" type="line"/>
      <point x="377" y="839" type="line"/>
      <point x="295" y="936" type="line"/>
      <point x="217" y="936" type="line"/>
      <point x="320" y="786" type="line"/>
    </contour>
  </outline>
</glyph>
<glyph name="Dcaron" format="1">
  <advance width="722"/>
  <unicode hex="010E"/>
  <outline>
    <contour>
      <point x="77" y="0" type="line"/>
      <point x="362" y="0" type="line" smooth="yes"/>
      <point x="473" y="0"/>
      <point x="543" y="26"/>
      <point x="592" y="85" type="curve" smooth="yes"/>
      <point x="650" y="153"/>
      <point x="681" y="252"/>
      <point x="681" y="365" type="curve" smooth="yes"/>
      <point x="681" y="477"/>
      <point x="650" y="576"/>
      <point x="592" y="645" type="curve" smooth="yes"/>
      <point x="543" y="704"/>
      <point x="474" y="729"/>
      <point x="362" y="729" type="curve" smooth="yes"/>
      <point x="77" y="729" type="line"/>
    </contour>
    <contour>
      <point x="227" y="125" type="line"/>
      <point x="227" y="604" type="line"/>
      <point x="362" y="604" type="line" smooth="yes"/>
      <point x="475" y="604"/>
      <point x="531" y="525"/>
      <point x="531" y="364" type="curve" smooth="yes"/>
      <point x="531" y="204"/>
      <point x="475" y="125"/>
      <point x="362" y="125" type="curve" smooth="yes"/>
    </contour>
    <contour>
      <point x="390" y="786" type="line"/>
      <point x="498" y="936" type="line"/>
      <point x="422" y="936" type="line"/>
      <point x="340" y="839" type="line"/>
      <point x="258" y="936" type="line"/>
      <point x="180" y="936" type="line"/>
      <point x="283" y="786" type="line"/>
    </contour>
  </outline>
</glyph>
<glyph name="dcroat" format="1">
  <advance width="611"/>
  <unicode hex="0111"/>
  <outline>
    <contour>
      <point x="405" y="596" type="line"/>
      <point x="405" y="470" type="line"/>
      <point x="370" y="524"/>
      <point x="324" y="549"/>
      <point x="256" y="549" type="curve" smooth="yes"/>
      <point x="127" y="549"/>
      <point x="29" y="425"/>
      <point x="29" y="262" type="curve" smooth="yes"/>
      <point x="29" y="100"/>
      <point x="127" y="-23"/>
      <point x="256" y="-23" type="curve" smooth="yes"/>
      <point x="323" y="-23"/>
      <point x="370" y="2"/>
      <point x="405" y="55" type="curve"/>
      <point x="405" y="0" type="line"/>
      <point x="545" y="0" type="line"/>
      <point x="545" y="596" type="line"/>
      <point x="605" y="596" type="line"/>
      <point x="605" y="663" type="line"/>
      <point x="545" y="663" type="line"/>
      <point x="545" y="729" type="line"/>
      <point x="405" y="729" type="line"/>
      <point x="405" y="663" type="line"/>
      <point x="272" y="663" type="line"/>
      <point x="272" y="596" type="line"/>
    </contour>
    <contour>
      <point x="287" y="432" type="curve" smooth="yes"/>
      <point x="358" y="432"/>
      <point x="405" y="363"/>
      <point x="405" y="260" type="curve" smooth="yes"/>
      <point x="405" y="162"/>
      <point x="357" y="94"/>
      <point x="287" y="94" type="curve" smooth="yes"/>
      <point x="217" y="94"/>
      <point x="169" y="163"/>
      <point x="169" y="262" type="curve" smooth="yes"/>
      <point x="169" y="362"/>
      <point x="218" y="432"/>
    </contour>
  </outline>
</glyph>
<glyph name="Emacron" format="1">
  <advance width="667"/>
  <unicode hex="0112"/>
  <outline>
    <contour>
      <point x="229" y="314" type="line"/>
      <point x="578" y="314" type="line"/>
      <point x="578" y="439" type="line"/>
      <point x="229" y="439" type="line"/>
      <point x="229" y="604" type="line"/>
      <point x="606" y="604" type="line"/>
      <point x="606" y="729" type="line"/>
      <point x="79" y="729" type="line"/>
      <point x="79" y="0" type="line"/>
      <point x="624" y="0" type="line"/>
      <point x="624" y="125" type="line"/>
      <point x="229" y="125" type="line"/>
    </contour>
    <contour>
      <point x="494" y="898" type="line"/>
      <point x="195" y="898" type="line"/>
      <point x="195" y="819" type="line"/>
      <point x="494" y="819" type="line"/>
    </contour>
  </outline>
</glyph>
<glyph name="Eogonek" format="1">
  <advance width="667"/>
  <unicode hex="0118"/>
  <outline>
    <contour>
      <point x="229" y="314" type="line"/>
      <point x="578" y="314" type="line"/>
      <point x="578" y="439" type="line"/>
      <point x="229" y="439" type="line"/>
      <point x="229" y="604" type="line"/>
      <point x="606" y="604" type="line"/>
      <point x="606" y="729" type="line"/>
      <point x="79" y="729" type="line"/>
      <point x="79" y="0" type="line"/>
      <point x="550" y="0" type="line"/>
      <point x="464" y="-39"/>
      <point x="425" y="-82"/>
      <point x="425" y="-138" type="curve" smooth="yes"/>
      <point x="425" y="-198"/>
      <point x="479" y="-233"/>
      <point x="574" y="-233" type="curve" smooth="yes"/>
      <point x="601" y="-233"/>
      <point x="621" y="-230"/>
      <point x="648" y="-224" type="curve"/>
      <point x="648" y="-177" type="line"/>
      <point x="630" y="-180"/>
      <point x="611" y="-182"/>
      <point x="591" y="-182" type="curve" smooth="yes"/>
      <point x="539" y="-182"/>
      <point x="515" y="-165"/>
      <point x="515" y="-129" type="curve" smooth="yes"/>
      <point x="515" y="-82"/>
      <point x="553" y="-38"/>
      <point x="624" y="0" type="curve"/>
      <point x="624" y="125" type="line"/>
      <point x="229" y="125" type="line"/>
    </contour>
  </outline>
</glyph>
<glyph name="eogonek" format="1">
  <advance width="556"/>
  <unicode hex="0119"/>
  <outline>
    <contour>
      <point x="478" y="-177" type="line"/>
      <point x="459" y="-181"/>
      <point x="441" y="-183"/>
      <point x="421" y="-183" type="curve" smooth="yes"/>
      <point x="369" y="-183"/>
      <point x="345" y="-166"/>
      <point x="345" y="-131" type="curve" smooth="yes"/>
      <point x="345" y="-88"/>
      <point x="366" y="-53"/>
      <point x="434" y="21" type="curve" smooth="yes"/>
      <point x="492" y="83"/>
      <point x="504" y="101"/>
      <point x="518" y="152" type="curve"/>
      <point x="380" y="152" type="line"/>
      <point x="363" y="108"/>
      <point x="325" y="83"/>
      <point x="274" y="83" type="curve" smooth="yes"/>
      <point x="234" y="83"/>
      <point x="201" y="100"/>
      <point x="182" y="130" type="curve" smooth="yes"/>
      <point x="169" y="151"/>
      <point x="164" y="175"/>
      <point x="162" y="226" type="curve"/>
      <point x="524" y="226" type="line"/>
      <point x="525" y="238"/>
      <point x="525" y="245"/>
      <point x="525" y="250" type="curve" smooth="yes"/>
      <point x="525" y="304"/>
      <point x="517" y="355"/>
      <point x="504" y="392" type="curve" smooth="yes"/>
      <point x="468" y="490"/>
      <point x="380" y="549"/>
      <point x="271" y="549" type="curve" smooth="yes"/>
      <point x="116" y="549"/>
      <point x="21" y="437"/>
      <point x="21" y="256" type="curve" smooth="yes"/>
      <point x="21" y="83"/>
      <point x="116" y="-24"/>
      <point x="268" y="-24" type="curve" smooth="yes"/>
      <point x="296" y="-24"/>
      <point x="314" y="-21"/>
      <point x="350" y="-11" type="curve"/>
      <point x="279" y="-60"/>
      <point x="255" y="-92"/>
      <point x="255" y="-137" type="curve" smooth="yes"/>
      <point x="255" y="-197"/>
      <point x="310" y="-234"/>
      <point x="399" y="-234" type="curve" smooth="yes"/>
      <point x="427" y="-234"/>
      <point x="451" y="-231"/>
      <point x="478" y="-224" type="curve"/>
    </contour>
    <contour>
      <point x="163" y="319" type="line"/>
      <point x="172" y="401"/>
      <point x="207" y="442"/>
      <point x="270" y="442" type="curve" smooth="yes"/>
      <point x="305" y="442"/>
      <point x="337" y="425"/>
      <point x="356" y="397" type="curve" smooth="yes"/>
      <point x="370" y="377"/>
      <point x="376" y="356"/>
      <point x="379" y="319" type="curve"/>
    </contour>
  </outline>
</glyph>
<glyph name="Ecaron" format="1">
  <advance width="667"/>
  <unicode hex="011A"/>
  <outline>
    <contour>
      <point x="229" y="314" type="line"/>
      <point x="578" y="314" type="line"/>
      <point x="578" y="439" type="line"/>
      <point x="229" y="439" type="line"/>
      <point x="229" y="604" type="line"/>
      <point x="606" y="604" type="line"/>
      <point x="606" y="729" type="line"/>
      <point x="79" y="729" type="line"/>
      <point x="79" y="0" type="line"/>
      <point x="624" y="0" type="line"/>
      <point x="624" y="125" type="line"/>
      <point x="229" y="125" type="line"/>
    </contour>
    <contour>
      <point x="396" y="786" type="line"/>
      <point x="504" y="936" type="line"/>
      <point x="428" y="936" type="line"/>
      <point x="346" y="839" type="line"/>
      <point x="264" y="936" type="line"/>
      <point x="186" y="936" type="line"/>
      <point x="289" y="786" type="line"/>
    </contour>
  </outline>
</glyph>
<glyph name="Gbreve" format="1">
  <advance width="778"/>
  <unicode hex="011E"/>
  <outline>
    <contour>
      <point x="711" y="392" type="line"/>
      <point x="419" y="392" type="line"/>
      <point x="419" y="267" type="line"/>
      <point x="585" y="267" type="line"/>
      <point x="581" y="226"/>
      <point x="571" y="201"/>
      <point x="549" y="175" type="curve" smooth="yes"/>
      <point x="513" y="131"/>
      <point x="458" y="105"/>
      <point x="400" y="105" type="curve" smooth="yes"/>
      <point x="279" y="105"/>
      <point x="192" y="211"/>
      <point x="192" y="361" type="curve" smooth="yes"/>
      <point x="192" y="518"/>
      <point x="269" y="613"/>
      <point x="396" y="613" type="curve" smooth="yes"/>
      <point x="448" y="613"/>
      <point x="492" y="598"/>
      <point x="525" y="569" type="curve" smooth="yes"/>
      <point x="546" y="551"/>
      <point x="557" y="534"/>
      <point x="570" y="496" type="curve"/>
      <point x="711" y="496" type="line"/>
      <point x="693" y="646"/>
      <point x="571" y="741"/>
      <point x="395" y="741" type="curve" smooth="yes"/>
      <point x="185" y="741"/>
      <point x="42" y="586"/>
      <point x="42" y="359" type="curve" smooth="yes"/>
      <point x="42" y="138"/>
      <point x="186" y="-23"/>
      <point x="383" y="-23" type="curve" smooth="yes"/>
      <point x="481" y="-23"/>
      <point x="547" y="12"/>
      <point x="603" y="94" type="curve"/>
      <point x="621" y="-2" type="line"/>
      <point x="711" y="-2" type="line"/>
    </contour>
    <contour>
      <point x="530" y="927" type="line"/>
      <point x="474" y="927" type="line"/>
      <point x="465" y="881"/>
      <point x="443" y="861"/>
      <point x="399" y="861" type="curve" smooth="yes"/>
      <point x="353" y="861"/>
      <point x="328" y="883"/>
      <point x="322" y="927" type="curve"/>
      <point x="266" y="927" type="line"/>
      <point x="266" y="917" type="line" smooth="yes"/>
      <point x="266" y="841"/>
      <point x="323" y="784"/>
      <point x="398" y="784" type="curve" smooth="yes"/>
      <point x="473" y="784"/>
      <point x="530" y="841"/>
      <point x="530" y="916" type="curve" smooth="yes"/>
    </contour>
  </outline>
</glyph>
<glyph name="gbreve" format="1">
  <advance width="611"/>
  <unicode hex="011F"/>
  <outline>
    <contour>
      <point x="408" y="540" type="line"/>
      <point x="408" y="457" type="line"/>
      <point x="366" y="521"/>
      <point x="320" y="549"/>
      <point x="258" y="549" type="curve" smooth="yes"/>
      <point x="130" y="549"/>
      <point x="34" y="424"/>
      <point x="34" y="257" type="curve" smooth="yes"/>
      <point x="34" y="89"/>
      <point x="122" y="-23"/>
      <point x="255" y="-23" type="curve" smooth="yes"/>
      <point x="318" y="-23"/>
      <point x="356" y="-4"/>
      <point x="408" y="55" type="curve"/>
      <point x="408" y="-18" type="line" smooth="yes"/>
      <point x="408" y="-83"/>
      <point x="359" y="-128"/>
      <point x="289" y="-128" type="curve" smooth="yes"/>
      <point x="236" y="-128"/>
      <point x="201" y="-106"/>
      <point x="190" y="-65" type="curve"/>
      <point x="45" y="-65" type="line"/>
      <point x="46" y="-107"/>
      <point x="62" y="-136"/>
      <point x="98" y="-166" type="curve" smooth="yes"/>
      <point x="141" y="-201"/>
      <point x="201" y="-218"/>
      <point x="284" y="-218" type="curve" smooth="yes"/>
      <point x="447" y="-218"/>
      <point x="541" y="-145"/>
      <point x="541" y="-18" type="curve" smooth="yes"/>
      <point x="541" y="540" type="line"/>
    </contour>
    <contour>
      <point x="288" y="432" type="curve" smooth="yes"/>
      <point x="358" y="432"/>
      <point x="410" y="359"/>
      <point x="410" y="259" type="curve" smooth="yes"/>
      <point x="410" y="161"/>
      <point x="359" y="94"/>
      <point x="286" y="94" type="curve" smooth="yes"/>
      <point x="220" y="94"/>
      <point x="174" y="161"/>
      <point x="174" y="259" type="curve" smooth="yes"/>
      <point x="174" y="361"/>
      <point x="220" y="432"/>
    </contour>
    <contour>
      <point x="438" y="748" type="line"/>
      <point x="382" y="748" type="line"/>
      <point x="374" y="702"/>
      <point x="351" y="682"/>
      <point x="307" y="682" type="curve" smooth="yes"/>
      <point x="261" y="682"/>
      <point x="236" y="704"/>
      <point x="230" y="748" type="curve"/>
      <point x="174" y="748" type="line"/>
      <point x="174" y="738" type="line" smooth="yes"/>
      <point x="174" y="662"/>
      <point x="231" y="605"/>
      <point x="306" y="605" type="curve" smooth="yes"/>
      <point x="381" y="605"/>
      <point x="438" y="662"/>
      <point x="438" y="737" type="curve" smooth="yes"/>
    </contour>
  </outline>
</glyph>
<glyph name="gcommaaccent" format="1">
  <advance width="611"/>
  <unicode hex="0123"/>
  <outline>
    <contour>
      <point x="408" y="540" type="line"/>
      <point x="408" y="457" type="line"/>
      <point x="366" y="521"/>
      <point x="320" y="549"/>
      <point x="258" y="549" type="curve" smooth="yes"/>
      <point x="130" y="549"/>
      <point x="34" y="424"/>
      <point x="34" y="257" type="curve" smooth="yes"/>
      <point x="34" y="89"/>
      <point x="122" y="-23"/>
      <point x="255" y="-23" type="curve" smooth="yes"/>
      <point x="318" y="-23"/>
      <point x="356" y="-4"/>
      <point x="408" y="55" type="curve"/>
      <point x="408" y="-18" type="line" smooth="yes"/>
      <point x="408" y="-83"/>
      <point x="359" y="-128"/>
      <point x="289" y="-128" type="curve" smooth="yes"/>
      <point x="236" y="-128"/>
      <point x="201" y="-106"/>
      <point x="190" y="-65" type="curve"/>
      <point x="45" y="-65" type="line"/>
      <point x="46" y="-107"/>
      <point x="62" y="-136"/>
      <point x="98" y="-166" type="curve" smooth="yes"/>
      <point x="141" y="-201"/>
      <point x="201" y="-218"/>
      <point x="284" y="-218" type="curve" smooth="yes"/>
      <point x="447" y="-218"/>
      <point x="541" y="-145"/>
      <point x="541" y="-18" type="curve" smooth="yes"/>
      <point x="541" y="540" type="line"/>
    </contour>
    <contour>
      <point x="288" y="432" type="curve" smooth="yes"/>
      <point x="358" y="432"/>
      <point x="410" y="359"/>
      <point x="410" y="259" type="curve" smooth="yes"/>
      <point x="410" y="161"/>
      <point x="359" y="94"/>
      <point x="286" y="94" type="curve" smooth="yes"/>
      <point x="220" y="94"/>
      <point x="174" y="161"/>
      <point x="174" y="259" type="curve" smooth="yes"/>
      <point x="174" y="361"/>
      <point x="220" y="432"/>
    </contour>
    <contour>
      <point x="365" y="606" type="line"/>
      <point x="365" y="718" type="line"/>
      <point x="298" y="718" type="line"/>
      <point x="297" y="768"/>
      <point x="319" y="798"/>
      <point x="365" y="807" type="curve"/>
      <point x="365" y="853" type="line"/>
      <point x="294" y="851"/>
      <point x="243" y="791"/>
      <point x="243" y="709" type="curve" smooth="yes"/>
      <point x="243" y="606" type="line"/>
    </contour>
  </outline>
</glyph>
<glyph name="Imacron" format="1">
  <advance width="278"/>
  <unicode hex="012A"/>
  <outline>
    <contour>
      <point x="213" y="729" type="line"/>
      <point x="63" y="729" type="line"/>
      <point x="63" y="0" type="line"/>
      <point x="213" y="0" type="line"/>
    </contour>
    <contour>
      <point x="274" y="898" type="line"/>
      <point x="2" y="898" type="line"/>
      <point x="2" y="819" type="line"/>
      <point x="274" y="819" type="line"/>
    </contour>
  </outline>
</glyph>
<glyph name="imacron" format="1">
  <advance width="278"/>
  <unicode hex="012B"/>
  <outline>
    <contour>
      <point x="207" y="540" type="line"/>
      <point x="67" y="540" type="line"/>
      <point x="67" y="0" type="line"/>
      <point x="207" y="0" type="line"/>
    </contour>
    <contour>
      <point x="266" y="719" type="line"/>
      <point x="7" y="719" type="line"/>
      <point x="7" y="640" type="line"/>
      <point x="266" y="640" type="line"/>
    </contour>
  </outline>
</glyph>
<glyph name="Iogonek" format="1">
  <advance width="278"/>
  <unicode hex="012E"/>
  <outline>
    <contour>
      <point x="213" y="729" type="line"/>
      <point x="63" y="729" type="line"/>
      <point x="63" y="0" type="line"/>
      <point x="147" y="0" type="line"/>
      <point x="70" y="-41"/>
      <point x="34" y="-84"/>
      <point x="34" y="-136" type="curve" smooth="yes"/>
      <point x="34" y="-196"/>
      <point x="85" y="-233"/>
      <point x="167" y="-233" type="curve" smooth="yes"/>
      <point x="189" y="-233"/>
      <point x="211" y="-230"/>
      <point x="237" y="-224" type="curve"/>
      <point x="237" y="-177" type="line"/>
      <point x="221" y="-180"/>
      <point x="200" y="-182"/>
      <point x="187" y="-182" type="curve" smooth="yes"/>
      <point x="150" y="-182"/>
      <point x="124" y="-161"/>
      <point x="124" y="-131" type="curve" smooth="yes"/>
      <point x="124" y="-88"/>
      <point x="156" y="-41"/>
      <point x="213" y="0" type="curve"/>
    </contour>
  </outline>
</glyph>
<glyph name="iogonek" format="1">
  <advance width="278"/>
  <unicode hex="012F"/>
  <outline>
    <contour>
      <point x="207" y="540" type="line"/>
      <point x="67" y="540" type="line"/>
      <point x="67" y="0" type="line"/>
      <point x="144" y="0" type="line"/>
      <point x="69" y="-44"/>
      <point x="34" y="-87"/>
      <point x="34" y="-136" type="curve" smooth="yes"/>
      <point x="34" y="-196"/>
      <point x="85" y="-233"/>
      <point x="168" y="-233" type="curve" smooth="yes"/>
      <point x="188" y="-233"/>
      <point x="200" y="-231"/>
      <point x="231" y="-224" type="curve"/>
      <point x="231" y="-177" type="line"/>
      <point x="208" y="-181"/>
      <point x="198" y="-182"/>
      <point x="187" y="-182" type="curve" smooth="yes"/>
      <point x="172" y="-182"/>
      <point x="158" y="-178"/>
      <point x="146" y="-171" type="curve" smooth="yes"/>
      <point x="129" y="-161"/>
      <point x="124" y="-150"/>
      <point x="124" y="-128" type="curve" smooth="yes"/>
      <point x="124" y="-83"/>
      <point x="153" y="-38"/>
      <point x="207" y="0" type="curve"/>
    </contour>
    <contour>
      <point x="207" y="729" type="line"/>
      <point x="67" y="729" type="line"/>
      <point x="67" y="604" type="line"/>
      <point x="207" y="604" type="line"/>
    </contour>
  </outline>
</glyph>
<glyph name="Idotaccent" format="1">
  <advance width="278"/>
  <unicode hex="0130"/>
  <outline>
    <contour>
      <point x="213" y="729" type="line"/>
      <point x="63" y="729" type="line"/>
      <point x="63" y="0" type="line"/>
      <point x="213" y="0" type="line"/>
    </contour>
    <contour>
      <point x="193" y="922" type="line"/>
      <point x="83" y="922" type="line"/>
      <point x="83" y="800" type="line"/>
      <point x="193" y="800" type="line"/>
    </contour>
  </outline>
</glyph>
<glyph name="IJ" format="1">
  <advance width="808"/>
  <unicode hex="0132"/>
  <outline>
    <contour>
      <point x="590" y="729" type="line"/>
      <point x="590" y="190" type="line" smooth="yes"/>
      <point x="590" y="135"/>
      <point x="561" y="105"/>
      <point x="509" y="105" type="curve" smooth="yes"/>
      <point x="452" y="105"/>
      <point x="428" y="133"/>
      <point x="428" y="200" type="curve" smooth="yes"/>
      <point x="428" y="270" type="line"/>
      <point x="278" y="270" type="line"/>
      <point x="278" y="198" type="line" smooth="yes"/>
      <point x="278" y="122"/>
      <point x="296" y="75"/>
      <point x="339" y="35" type="curve" smooth="yes"/>
      <point x="381" y="-3"/>
      <point x="437" y="-23"/>
      <point x="506" y="-23" type="curve" smooth="yes"/>
      <point x="655" y="-23"/>
      <point x="740" y="54"/>
      <point x="740" y="190" type="curve" smooth="yes"/>
      <point x="740" y="729" type="line"/>
    </contour>
    <contour>
      <point x="213" y="729" type="line"/>
      <point x="63" y="729" type="line"/>
      <point x="63" y="0" type="line"/>
      <point x="213" y="0" type="line"/>
    </contour>
  </outline>
</glyph>
<glyph name="ij" format="1">
  <advance width="492"/>
  <unicode hex="0133"/>
  <outline>
    <contour>
      <point x="207" y="540" type="line"/>
      <point x="67" y="540" type="line"/>
      <point x="67" y="0" type="line"/>
      <point x="207" y="0" type="line"/>
    </contour>
    <contour>
      <point x="207" y="729" type="line"/>
      <point x="67" y="729" type="line"/>
      <point x="67" y="604" type="line"/>
      <point x="207" y="604" type="line"/>
    </contour>
    <contour>
      <point x="418" y="540" type="line"/>
      <point x="278" y="540" type="line"/>
      <point x="278" y="-63" type="line" smooth="yes"/>
      <point x="278" y="-94"/>
      <point x="267" y="-105"/>
      <point x="237" y="-105" type="curve" smooth="yes"/>
      <point x="228" y="-105"/>
      <point x="222" y="-104"/>
      <point x="212" y="-101" type="curve"/>
      <point x="212" y="-213" type="line"/>
      <point x="240" y="-216"/>
      <point x="275" y="-218"/>
      <point x="295" y="-218" type="curve" smooth="yes"/>
      <point x="382" y="-218"/>
      <point x="418" y="-182"/>
      <point x="418" y="-94" type="curve" smooth="yes"/>
    </contour>
    <contour>
      <point x="418" y="729" type="line"/>
      <point x="278" y="729" type="line"/>
      <point x="278" y="604" type="line"/>
      <point x="418" y="604" type="line"/>
    </contour>
  </outline>
</glyph>
<glyph name="jcircumflex" format="1">
  <advance width="278"/>
  <unicode hex="0135"/>
  <outline>
    <contour>
      <point x="210" y="540" type="line"/>
      <point x="70" y="540" type="line"/>
      <point x="70" y="-63" type="line" smooth="yes"/>
      <point x="70" y="-94"/>
      <point x="59" y="-105"/>
      <point x="29" y="-105" type="curve" smooth="yes"/>
      <point x="20" y="-105"/>
      <point x="14" y="-104"/>
      <point x="4" y="-101" type="curve"/>
      <point x="4" y="-213" type="line"/>
      <point x="32" y="-216"/>
      <point x="67" y="-218"/>
      <point x="87" y="-218" type="curve" smooth="yes"/>
      <point x="174" y="-218"/>
      <point x="210" y="-182"/>
      <point x="210" y="-94" type="curve" smooth="yes"/>
    </contour>
    <contour>
      <point x="89" y="783" type="line"/>
      <point x="-19" y="633" type="line"/>
      <point x="57" y="633" type="line"/>
      <point x="139" y="733" type="line"/>
      <point x="221" y="633" type="line"/>
      <point x="299" y="633" type="line"/>
      <point x="196" y="783" type="line"/>
    </contour>
  </outline>
</glyph>
<glyph name="Kcommaaccent" format="1">
  <advance width="722"/>
  <unicode hex="0136"/>
  <outline>
    <contour>
      <point x="224" y="244" type="line"/>
      <point x="299" y="322" type="line"/>
      <point x="538" y="0" type="line"/>
      <point x="717" y="0" type="line"/>
      <point x="395" y="415" type="line"/>
      <point x="686" y="729" type="line"/>
      <point x="509" y="729" type="line"/>
      <point x="224" y="409" type="line"/>
      <point x="224" y="729" type="line"/>
      <point x="74" y="729" type="line"/>
      <point x="74" y="0" type="line"/>
      <point x="224" y="0" type="line"/>
    </contour>
    <contour>
      <point x="315" y="-60" type="line"/>
      <point x="315" y="-172" type="line"/>
      <point x="382" y="-172" type="line"/>
      <point x="383" y="-222"/>
      <point x="361" y="-252"/>
      <point x="315" y="-261" type="curve"/>
      <point x="315" y="-307" type="line"/>
      <point x="386" y="-305"/>
      <point x="437" y="-245"/>
      <point x="437" y="-163" type="curve" smooth="yes"/>
      <point x="437" y="-60" type="line"/>
    </contour>
  </outline>
</glyph>
